<svg xmlns="http://www.w3.org/2000/svg" viewBox="0 0 500 900"><defs><filter id="blur2"><feGaussianBlur stdDeviation="2.2"/></filter><linearGradient id="bosqueBg" x1="0" y1="0" x2="0" y2="1"><stop offset="0" stop-color="#c8dd8a"/><stop offset=".35" stop-color="#8fae5c"/><stop offset=".68" stop-color="#4c6b35"/><stop offset="1" stop-color="#233c15"/></linearGradient></defs><rect width="500" height="900" fill="url(#bosqueBg)"/><circle cx="489.2" cy="11.4" r="15" fill="#f3f9dd" opacity="0.7"/><circle cx="470.9" cy="85.4" r="17.1" fill="#f3f9dd" opacity="0.6"/><circle cx="497.4" cy="86.7" r="9" fill="#f3f9dd" opacity="0.6"/><circle cx="315.4" cy="7.2" r="11.3" fill="#f3f9dd" opacity="0.5"/><circle cx="34.7" cy="35.8" r="9.5" fill="#f3f9dd" opacity="0.6"/><circle cx="389.1" cy="87.4" r="16.4" fill="#f3f9dd" opacity="0.9"/><circle cx="447.6" cy="199" r="13.3" fill="#f3f9dd" opacity="0.8"/><circle cx="440.8" cy="114.2" r="8.6" fill="#f3f9dd" opacity="0.7"/><circle cx="265.1" cy="37.7" r="8" fill="#f3f9dd" opacity="0.6"/><circle cx="348.7" cy="170.6" r="14.2" fill="#f3f9dd" opacity="0.7"/><circle cx="14.2" cy="0.9" r="14.2" fill="#f3f9dd" opacity="0.7"/><circle cx="228.3" cy="36" r="8.4" fill="#f3f9dd" opacity="0.6"/><circle cx="64.3" cy="125.9" r="10.4" fill="#f3f9dd" opacity="0.7"/><circle cx="214.6" cy="115.1" r="15.2" fill="#f3f9dd" opacity="0.8"/><circle cx="74.9" cy="201.5" r="16.4" fill="#f3f9dd" opacity="0.8"/><circle cx="226.5" cy="199.9" r="15.9" fill="#f3f9dd" opacity="0.6"/><g opacity="0.9"><circle cx="392.8" cy="49.9" r="17.5" fill="#a9c86b"/><circle cx="107.9" cy="141.7" r="24.8" fill="#a9c86b"/><circle cx="463.5" cy="149.2" r="15.8" fill="#8fb757"/><circle cx="508.7" cy="207.2" r="16.7" fill="#8fb757"/><circle cx="259.2" cy="144.6" r="15" fill="#c3da84"/><circle cx="320.5" cy="234.5" r="27.2" fill="#a9c86b"/><circle cx="116.4" cy="28.3" r="23.3" fill="#c3da84"/><circle cx="111.3" cy="127.8" r="16.3" fill="#8fb757"/><circle cx="135.8" cy="4.1" r="21.5" fill="#a9c86b"/><circle cx="66.2" cy="83.6" r="17.8" fill="#8fb757"/><circle cx="429.7" cy="-24.2" r="17.9" fill="#a9c86b"/><circle cx="216.6" cy="173.8" r="24.3" fill="#8fb757"/><circle cx="245.3" cy="78.9" r="16.7" fill="#a9c86b"/><circle cx="368.7" cy="242.7" r="22.4" fill="#a9c86b"/><circle cx="262" cy="75.8" r="17.1" fill="#a9c86b"/><circle cx="241.9" cy="245.7" r="29" fill="#8fb757"/><circle cx="140.6" cy="94.1" r="29" fill="#c3da84"/><circle cx="236" cy="9.3" r="18.1" fill="#a9c86b"/><circle cx="357.9" cy="176.5" r="25.1" fill="#c3da84"/><circle cx="23.7" cy="24.7" r="20" fill="#c3da84"/><circle cx="92.5" cy="88.8" r="24.4" fill="#8fb757"/><circle cx="193.2" cy="131.9" r="28.8" fill="#c3da84"/><circle cx="90.9" cy="52.4" r="27.3" fill="#8fb757"/><circle cx="59" cy="28.4" r="19.8" fill="#8fb757"/><circle cx="383.3" cy="95.1" r="28" fill="#c3da84"/><circle cx="60.4" cy="-28.1" r="21.6" fill="#c3da84"/><circle cx="520" cy="3.8" r="18.6" fill="#8fb757"/><circle cx="92.2" cy="181.3" r="17.2" fill="#c3da84"/><circle cx="429.2" cy="41.7" r="18.7" fill="#8fb757"/><circle cx="141" cy="-29.6" r="25" fill="#c3da84"/><circle cx="157.1" cy="118.2" r="25.7" fill="#8fb757"/><circle cx="350.4" cy="-19.9" r="24" fill="#a9c86b"/><circle cx="354.2" cy="195.7" r="20.8" fill="#a9c86b"/><circle cx="261.5" cy="-7.7" r="16.1" fill="#c3da84"/><circle cx="49.4" cy="2.2" r="23.3" fill="#8fb757"/><circle cx="373.7" cy="148.4" r="24.5" fill="#8fb757"/><circle cx="345.2" cy="74.7" r="28.9" fill="#a9c86b"/><circle cx="192" cy="-1.4" r="24.2" fill="#8fb757"/><circle cx="339.9" cy="-24.7" r="14.8" fill="#8fb757"/><circle cx="250.1" cy="-29.5" r="20.1" fill="#8fb757"/><circle cx="454.2" cy="246.7" r="28.1" fill="#8fb757"/><circle cx="406.7" cy="-11" r="15.3" fill="#a9c86b"/><circle cx="208.7" cy="-24.8" r="19.6" fill="#a9c86b"/><circle cx="272.7" cy="204.1" r="29.9" fill="#8fb757"/><circle cx="-17.5" cy="-19.2" r="24.7" fill="#8fb757"/><circle cx="388.1" cy="195.3" r="28" fill="#a9c86b"/><circle cx="84.1" cy="82.3" r="17.8" fill="#c3da84"/><circle cx="195.8" cy="-19" r="27.8" fill="#a9c86b"/><circle cx="147.8" cy="109.2" r="19.5" fill="#8fb757"/><circle cx="384.3" cy="-20.3" r="21.2" fill="#8fb757"/><circle cx="252.1" cy="218.7" r="19" fill="#a9c86b"/><circle cx="301.8" cy="-28.4" r="16.5" fill="#8fb757"/><circle cx="343.3" cy="164.1" r="19.6" fill="#c3da84"/><circle cx="444.7" cy="98.4" r="20.6" fill="#c3da84"/><circle cx="315.2" cy="3" r="20.5" fill="#c3da84"/><circle cx="177.8" cy="158.2" r="22.3" fill="#c3da84"/><circle cx="258.3" cy="10.9" r="24.8" fill="#8fb757"/><circle cx="56.9" cy="32.3" r="28.3" fill="#a9c86b"/><circle cx="458.4" cy="2.3" r="18.7" fill="#8fb757"/><circle cx="-2.7" cy="-3.9" r="24.8" fill="#8fb757"/><circle cx="223.8" cy="24.2" r="27.2" fill="#a9c86b"/><circle cx="126.8" cy="-9.3" r="17" fill="#8fb757"/><circle cx="303.2" cy="112" r="27.5" fill="#c3da84"/><circle cx="142.6" cy="141.3" r="20.9" fill="#a9c86b"/><circle cx="107.4" cy="19.9" r="14.6" fill="#c3da84"/><circle cx="42.1" cy="171.4" r="14" fill="#c3da84"/><circle cx="333.5" cy="15.5" r="20.4" fill="#c3da84"/><circle cx="502.4" cy="78.7" r="23" fill="#c3da84"/><circle cx="58" cy="67" r="26.2" fill="#c3da84"/><circle cx="359.9" cy="18.2" r="19.8" fill="#a9c86b"/><circle cx="120.3" cy="169.6" r="15.8" fill="#c3da84"/><circle cx="1.9" cy="129.7" r="18.5" fill="#a9c86b"/><circle cx="344" cy="12" r="20.1" fill="#8fb757"/><circle cx="250.2" cy="-23.3" r="18.7" fill="#a9c86b"/><circle cx="444" cy="68.7" r="27.4" fill="#c3da84"/><circle cx="30.6" cy="86" r="20.1" fill="#8fb757"/><circle cx="117.8" cy="17.9" r="16" fill="#c3da84"/><circle cx="446.3" cy="240.9" r="16.3" fill="#a9c86b"/><circle cx="237.2" cy="113.2" r="26.5" fill="#c3da84"/><circle cx="511.2" cy="50.6" r="18.6" fill="#8fb757"/><circle cx="177.3" cy="134.2" r="20.5" fill="#a9c86b"/><circle cx="316.6" cy="58" r="20.4" fill="#8fb757"/><circle cx="54.7" cy="-21" r="26.5" fill="#8fb757"/><circle cx="126.8" cy="73.2" r="23.7" fill="#8fb757"/><circle cx="289" cy="88.3" r="16" fill="#8fb757"/><circle cx="331" cy="-9.9" r="20.4" fill="#8fb757"/><circle cx="55.1" cy="-29.8" r="18.3" fill="#8fb757"/><circle cx="284.8" cy="59.2" r="24.4" fill="#8fb757"/><circle cx="112.7" cy="43.8" r="23.1" fill="#a9c86b"/><circle cx="60.9" cy="-11.7" r="21.2" fill="#c3da84"/></g><g filter="url(#blur2)" opacity=".75"><path d="M9.6 627.8L11.4 588.3L13.1 548.8L14.8 509.4L16.4 469.9L18 430.4L19.5 390.9L21 351.5L22.5 312L23.8 272.5L25.2 233L26.5 193.6L27.7 154.1L28.9 114.6L30.1 75.1L33.4 75.2L32.5 114.7L31.5 154.2L30.5 193.7L29.5 233.2L28.4 272.7L27.2 312.1L26 351.6L24.8 391.1L23.5 430.6L22.2 470.1L20.8 509.6L19.4 549.1L17.9 588.6L16.3 628.1Z" fill="#2c231a"/><path d="M10.1 627.9L11.8 588.4L13.4 548.9L15 509.5L16.6 470L18 430.5L19.5 391L20.9 351.5L22.2 312L23.5 272.6L24.8 233.1L26 193.6L27.2 154.1L28.3 114.6L29.3 75.2L30.4 75.2L29.4 114.7L28.4 154.2L27.3 193.6L26.1 233.1L24.9 272.6L23.7 312.1L22.4 351.6L21.1 391.1L19.7 430.5L18.3 470L16.8 509.5L15.3 549L13.7 588.5L12.1 628Z" fill="#554938" opacity=".8"/><path d="M23.1 364.5 Q15.1 334.5 4.1 291.1" stroke="#2c231a" stroke-width="1.1" fill="none" stroke-linecap="round"/><path d="M22.6 378.4 Q30.6 348.4 42.3 330.5" stroke="#2c231a" stroke-width="1.1" fill="none" stroke-linecap="round"/><path d="M41.4 572.4L42.8 536.8L44.3 501.2L45.7 465.6L47 430.1L48.3 394.5L49.6 358.9L50.8 323.3L52 287.8L53.2 252.2L54.3 216.6L55.4 181L56.4 145.5L57.4 109.9L58.4 74.3L61.3 74.4L60.6 110L59.8 145.5L58.9 181.1L58.1 216.7L57.2 252.3L56.2 287.9L55.2 323.5L54.2 359.1L53.1 394.7L52 430.2L50.9 465.8L49.7 501.4L48.4 537L47.2 572.6Z" fill="#2c231a"/><path d="M41.8 572.4L43.2 536.9L44.5 501.3L45.8 465.7L47.1 430.1L48.4 394.5L49.6 359L50.7 323.4L51.8 287.8L52.9 252.2L54 216.7L55 181.1L55.9 145.5L56.9 109.9L57.7 74.3L58.7 74.4L57.9 109.9L57 145.5L56.1 181.1L55.1 216.7L54.2 252.3L53.1 287.8L52.1 323.4L51 359L49.8 394.6L48.6 430.2L47.4 465.8L46.2 501.3L44.9 536.9L43.5 572.5Z" fill="#554938" opacity=".8"/><path d="M53.1 322 Q61.1 292 94.7 267.8" stroke="#2c231a" stroke-width="0.9" fill="none" stroke-linecap="round"/><path d="M53.1 321.6 Q45.1 291.6 31.4 245.4" stroke="#2c231a" stroke-width="0.9" fill="none" stroke-linecap="round"/><path d="M83.5 586L82 547.2L80.4 508.3L79 469.5L77.5 430.7L76.2 391.9L74.8 353.1L73.6 314.3L72.3 275.4L71.1 236.6L70 197.8L68.9 159L67.9 120.2L66.9 81.3L65.9 42.5L68.3 42.5L69.4 81.3L70.6 120.1L71.8 158.9L73.1 197.7L74.4 236.5L75.7 275.3L77.1 314.1L78.6 352.9L80.1 391.7L81.6 430.6L83.2 469.4L84.9 508.2L86.5 547L88.3 585.8Z" fill="#33291f"/><path d="M83.9 585.9L82.2 547.1L80.6 508.3L79.1 469.5L77.6 430.7L76.2 391.8L74.8 353L73.5 314.2L72.2 275.4L70.9 236.6L69.7 197.8L68.6 159L67.5 120.1L66.4 81.3L65.4 42.5L66.2 42.5L67.2 81.3L68.3 120.1L69.5 158.9L70.7 197.7L71.9 236.5L73.2 275.4L74.6 314.2L75.9 353L77.4 391.8L78.9 430.6L80.4 469.4L82 508.2L83.6 547L85.3 585.9Z" fill="#5d5140" opacity=".8"/><path d="M75.9 329.6 Q67.9 299.6 36.6 246.3" stroke="#33291f" stroke-width="0.8" fill="none" stroke-linecap="round"/><path d="M75 304.8 Q83 274.8 100.6 220.3" stroke="#33291f" stroke-width="0.8" fill="none" stroke-linecap="round"/><path d="M74.3 285.3 Q66.3 255.3 40 227.9" stroke="#33291f" stroke-width="0.8" fill="none" stroke-linecap="round"/><path d="M108.6 625.3L110.4 583L112.2 540.6L114 498.3L115.6 456L117.3 413.7L118.8 371.4L120.4 329.1L121.8 286.7L123.3 244.4L124.7 202.1L126 159.8L127.3 117.5L128.5 75.2L129.7 32.8L132.8 32.9L131.8 75.2L130.8 117.6L129.8 159.9L128.7 202.2L127.5 244.6L126.3 286.9L125 329.2L123.7 371.5L122.4 413.9L121 456.2L119.5 498.5L118 540.9L116.5 583.2L114.9 625.5Z" fill="#2c231a"/><path d="M109.1 625.4L110.8 583L112.5 540.7L114.1 498.4L115.7 456.1L117.3 413.8L118.8 371.4L120.2 329.1L121.6 286.8L123 244.5L124.3 202.2L125.5 159.8L126.7 117.5L127.9 75.2L129 32.9L130 32.9L128.9 75.2L127.9 117.5L126.7 159.9L125.5 202.2L124.3 244.5L123 286.8L121.7 329.2L120.3 371.5L118.9 413.8L117.4 456.1L115.8 498.5L114.2 540.8L112.6 583.1L110.9 625.4Z" fill="#554938" opacity=".8"/><path d="M124.2 283.1 Q132.2 253.1 158.6 212.6" stroke="#2c231a" stroke-width="1" fill="none" stroke-linecap="round"/><path d="M126 224.3 Q134 194.3 150.4 149.4" stroke="#2c231a" stroke-width="1" fill="none" stroke-linecap="round"/><path d="M125.1 253.6 Q117.1 223.6 95.5 198.3" stroke="#2c231a" stroke-width="1" fill="none" stroke-linecap="round"/><path d="M148.7 616.8L148 576L147.3 535.2L146.7 494.4L146 453.6L145.4 412.8L144.8 372L144.2 331.2L143.7 290.4L143.2 249.6L142.7 208.8L142.2 168L141.8 127.2L141.3 86.4L140.9 45.6L144.3 45.5L145 86.3L145.6 127.1L146.3 167.9L147 208.7L147.8 249.5L148.5 290.3L149.3 331.1L150.1 371.9L151 412.7L151.8 453.5L152.7 494.3L153.6 535.1L154.5 575.9L155.5 616.7Z" fill="#33291f"/><path d="M149.2 616.8L148.4 576L147.6 535.2L146.9 494.4L146.1 453.6L145.4 412.8L144.8 372L144.1 331.2L143.5 290.4L142.9 249.6L142.3 208.8L141.7 168L141.2 127.2L140.7 86.4L140.2 45.6L141.3 45.6L141.8 86.3L142.4 127.1L143 167.9L143.6 208.7L144.3 249.5L145 290.3L145.7 331.1L146.4 371.9L147.1 412.7L147.9 453.5L148.7 494.3L149.5 535.1L150.4 575.9L151.2 616.7Z" fill="#5d5140" opacity=".8"/><path d="M144.6 191.5 Q136.6 161.5 107 131.7" stroke="#33291f" stroke-width="1.1" fill="none" stroke-linecap="round"/><path d="M146.4 310.9 Q138.4 280.9 112.9 244.7" stroke="#33291f" stroke-width="1.1" fill="none" stroke-linecap="round"/><path d="M146.5 313.7 Q154.5 283.7 184.4 265.2" stroke="#33291f" stroke-width="1.1" fill="none" stroke-linecap="round"/><path d="M178 623.3L179 584.3L179.9 545.2L180.8 506.2L181.6 467.1L182.4 428.1L183.2 389L184 350L184.8 310.9L185.5 271.9L186.2 232.8L186.9 193.8L187.6 154.8L188.2 115.7L188.8 76.7L191.2 76.7L190.8 115.7L190.3 154.8L189.8 193.8L189.3 232.9L188.8 271.9L188.2 311L187.6 350.1L187 389.1L186.4 428.2L185.7 467.2L185 506.3L184.3 545.3L183.6 584.4L182.8 623.4Z" fill="#2c231a"/><path d="M178.4 623.4L179.2 584.3L180.1 545.3L180.9 506.2L181.7 467.2L182.5 428.1L183.2 389.1L183.9 350L184.6 311L185.3 271.9L185.9 232.9L186.6 193.8L187.2 154.8L187.7 115.7L188.3 76.7L189 76.7L188.5 115.7L188 154.8L187.5 193.8L186.9 232.9L186.3 271.9L185.7 311L185 350L184.4 389.1L183.7 428.1L182.9 467.2L182.2 506.2L181.4 545.3L180.6 584.3L179.8 623.4Z" fill="#554938" opacity=".8"/><path d="M187 277.8 Q195 247.8 226.9 189.3" stroke="#2c231a" stroke-width="0.8" fill="none" stroke-linecap="round"/><path d="M185.8 353.4 Q177.8 323.4 159.4 274" stroke="#2c231a" stroke-width="0.8" fill="none" stroke-linecap="round"/><path d="M186 341.5 Q194 311.5 209.8 260.9" stroke="#2c231a" stroke-width="0.8" fill="none" stroke-linecap="round"/><path d="M215.7 561L216.6 523.6L217.5 486.2L218.4 448.8L219.2 411.4L220 374L220.8 336.6L221.6 299.2L222.4 261.8L223.1 224.4L223.8 187L224.5 149.6L225.2 112.2L225.8 74.8L226.4 37.3L229.5 37.4L229.1 74.8L228.7 112.2L228.2 149.6L227.8 187L227.3 224.4L226.8 261.9L226.2 299.3L225.7 336.7L225.1 374.1L224.5 411.5L223.9 448.9L223.2 486.3L222.5 523.7L221.8 561.1Z" fill="#3c3126"/><path d="M216.1 561.1L216.9 523.7L217.8 486.2L218.5 448.8L219.3 411.4L220.1 374L220.8 336.6L221.5 299.2L222.2 261.8L222.8 224.4L223.5 187L224.1 149.6L224.6 112.2L225.2 74.8L225.7 37.4L226.7 37.4L226.3 74.8L225.8 112.2L225.2 149.6L224.7 187L224.1 224.4L223.5 261.8L222.9 299.2L222.3 336.6L221.6 374.1L220.9 411.5L220.2 448.9L219.5 486.3L218.7 523.7L217.9 561.1Z" fill="#6a5c49" opacity=".8"/><path d="M226.3 151.4 Q234.3 121.4 249.5 67.7" stroke="#3c3126" stroke-width="1" fill="none" stroke-linecap="round"/><path d="M225.1 227.4 Q233.1 197.4 258.7 147.8" stroke="#3c3126" stroke-width="1" fill="none" stroke-linecap="round"/><path d="M238.6 597.6L240.3 560.9L241.9 524.3L243.5 487.6L245 450.9L246.5 414.2L247.9 377.5L249.3 340.9L250.7 304.2L252 267.5L253.3 230.8L254.5 194.1L255.7 157.5L256.8 120.8L257.9 84.1L260.6 84.2L259.7 120.9L258.8 157.5L257.8 194.2L256.8 230.9L255.7 267.6L254.6 304.3L253.4 341L252.2 377.7L251 414.4L249.7 451.1L248.3 487.8L247 524.5L245.5 561.2L244 597.8Z" fill="#2c231a"/><path d="M239 597.7L240.6 561L242.1 524.3L243.6 487.6L245.1 451L246.5 414.3L247.9 377.6L249.2 340.9L250.5 304.2L251.8 267.5L253 230.9L254.1 194.2L255.2 157.5L256.3 120.8L257.3 84.1L258.1 84.1L257.2 120.8L256.2 157.5L255.1 194.2L254 230.9L252.9 267.6L251.7 304.3L250.5 341L249.2 377.6L247.9 414.3L246.5 451L245.1 487.7L243.7 524.4L242.1 561.1L240.6 597.8Z" fill="#554938" opacity=".8"/><path d="M254.4 249.6 Q246.4 219.6 226.4 200.1" stroke="#2c231a" stroke-width="0.9" fill="none" stroke-linecap="round"/><path d="M254 264.5 Q246 234.5 217.5 194.8" stroke="#2c231a" stroke-width="0.9" fill="none" stroke-linecap="round"/><path d="M286.3 622.9L286.6 583.3L286.8 543.7L287 504.1L287.2 464.6L287.4 425L287.6 385.4L287.8 345.8L288 306.3L288.2 266.7L288.4 227.1L288.6 187.5L288.8 147.9L289 108.4L289.1 68.8L291.5 68.8L291.5 108.4L291.5 148L291.5 187.5L291.5 227.1L291.5 266.7L291.5 306.3L291.5 345.8L291.4 385.4L291.4 425L291.3 464.6L291.3 504.1L291.3 543.7L291.2 583.3L291.2 622.9Z" fill="#2c231a"/><path d="M286.7 622.9L286.8 583.3L287 543.7L287.1 504.1L287.3 464.6L287.5 425L287.6 385.4L287.7 345.8L287.9 306.3L288 266.7L288.1 227.1L288.3 187.5L288.4 147.9L288.5 108.4L288.6 68.8L289.4 68.8L289.3 108.4L289.2 148L289.2 187.5L289.1 227.1L289 266.7L288.9 306.3L288.8 345.8L288.8 385.4L288.7 425L288.6 464.6L288.5 504.1L288.3 543.7L288.2 583.3L288.1 622.9Z" fill="#554938" opacity=".8"/><path d="M290 231.7 Q282 201.7 254.8 177.8" stroke="#2c231a" stroke-width="0.8" fill="none" stroke-linecap="round"/><path d="M290.1 191.6 Q298.1 161.6 329.3 138" stroke="#2c231a" stroke-width="0.8" fill="none" stroke-linecap="round"/><path d="M289.7 335.2 Q297.7 305.2 321 277.2" stroke="#2c231a" stroke-width="0.8" fill="none" stroke-linecap="round"/><path d="M306.9 623.6L305.9 582.7L305 541.7L304.1 500.7L303.2 459.7L302.4 418.7L301.6 377.8L300.8 336.8L300.1 295.8L299.4 254.8L298.7 213.9L298 172.9L297.4 131.9L296.8 90.9L296.2 49.9L298.9 49.9L299.6 90.9L300.4 131.8L301.2 172.8L302.1 213.8L302.9 254.8L303.8 295.7L304.8 336.7L305.7 377.7L306.7 418.7L307.7 459.6L308.8 500.6L309.9 541.6L311 582.5L312.1 623.5Z" fill="#2c231a"/><path d="M307.2 623.6L306.2 582.6L305.2 541.6L304.3 500.7L303.3 459.7L302.4 418.7L301.5 377.7L300.7 336.8L299.9 295.8L299.1 254.8L298.4 213.8L297.6 172.9L296.9 131.9L296.3 90.9L295.7 49.9L296.5 49.9L297.2 90.9L297.9 131.9L298.6 172.8L299.4 213.8L300.2 254.8L301.1 295.8L301.9 336.7L302.8 377.7L303.7 418.7L304.7 459.7L305.7 500.6L306.7 541.6L307.7 582.6L308.8 623.6Z" fill="#554938" opacity=".8"/><path d="M302.9 339.8 Q310.9 309.8 325.1 286.9" stroke="#2c231a" stroke-width="0.8" fill="none" stroke-linecap="round"/><path d="M299.8 184.1 Q307.8 154.1 339.9 119.5" stroke="#2c231a" stroke-width="0.8" fill="none" stroke-linecap="round"/><path d="M301.5 271.5 Q293.5 241.5 278.4 208.3" stroke="#2c231a" stroke-width="0.8" fill="none" stroke-linecap="round"/><path d="M347.2 586.2L348 550.6L348.9 515L349.7 479.4L350.4 443.8L351.2 408.2L351.9 372.6L352.6 337L353.3 301.4L354 265.8L354.6 230.2L355.3 194.6L355.9 159L356.5 123.4L357 87.8L360.5 87.8L360.1 123.4L359.8 159.1L359.4 194.7L359 230.3L358.6 265.9L358.2 301.5L357.8 337.1L357.3 372.7L356.8 408.3L356.3 443.9L355.8 479.5L355.2 515.1L354.6 550.7L354 586.3Z" fill="#2c231a"/><path d="M347.7 586.3L348.4 550.7L349.2 515L349.9 479.4L350.6 443.8L351.2 408.2L351.9 372.6L352.5 337L353.1 301.4L353.7 265.8L354.2 230.2L354.8 194.6L355.3 159L355.8 123.4L356.3 87.8L357.4 87.8L357 123.4L356.5 159L356.1 194.6L355.6 230.2L355.1 265.8L354.6 301.5L354.1 337.1L353.5 372.7L352.9 408.3L352.3 443.9L351.7 479.5L351.1 515.1L350.4 550.7L349.7 586.3Z" fill="#554938" opacity=".8"/><path d="M357.1 211.6 Q349.1 181.6 324.4 138.6" stroke="#2c231a" stroke-width="1.1" fill="none" stroke-linecap="round"/><path d="M355.2 337.5 Q363.2 307.5 397.1 274.1" stroke="#2c231a" stroke-width="1.1" fill="none" stroke-linecap="round"/><path d="M384.4 636.1L383.7 595.9L383.1 555.6L382.4 515.3L381.8 475.1L381.2 434.8L380.7 394.6L380.1 354.3L379.6 314.1L379.1 273.8L378.6 233.6L378.2 193.3L377.7 153.1L377.3 112.8L376.9 72.6L379.5 72.5L380.1 112.8L380.7 153L381.3 193.3L381.9 233.5L382.6 273.8L383.3 314L384 354.3L384.7 394.5L385.5 434.8L386.2 475L387 515.3L387.8 555.5L388.7 595.8L389.5 636Z" fill="#2c231a"/><path d="M384.8 636.1L384 595.8L383.3 555.6L382.6 515.3L381.9 475.1L381.3 434.8L380.6 394.6L380 354.3L379.4 314.1L378.9 273.8L378.3 233.6L377.8 193.3L377.3 153.1L376.8 112.8L376.4 72.6L377.2 72.5L377.7 112.8L378.2 153L378.8 193.3L379.3 233.5L379.9 273.8L380.6 314L381.2 354.3L381.9 394.5L382.5 434.8L383.2 475L384 515.3L384.7 555.5L385.5 595.8L386.3 636Z" fill="#554938" opacity=".8"/><path d="M380.2 228.1 Q388.2 198.1 421 152.3" stroke="#2c231a" stroke-width="0.8" fill="none" stroke-linecap="round"/><path d="M379.7 194.1 Q371.7 164.1 354.3 124.5" stroke="#2c231a" stroke-width="0.8" fill="none" stroke-linecap="round"/><path d="M379.8 197.9 Q371.8 167.9 360.3 136.8" stroke="#2c231a" stroke-width="0.8" fill="none" stroke-linecap="round"/><path d="M416.2 601.7L417.4 562.2L418.6 522.6L419.8 483L420.9 443.4L422 403.8L423.1 364.2L424.2 324.6L425.2 285L426.1 245.4L427.1 205.9L428 166.3L428.9 126.7L429.7 87.1L430.5 47.5L433.1 47.5L432.5 87.1L431.8 126.7L431.1 166.3L430.4 205.9L429.6 245.5L428.9 285.1L428 324.7L427.2 364.3L426.3 403.9L425.4 443.5L424.4 483.1L423.4 522.7L422.4 562.3L421.3 601.9Z" fill="#2c231a"/><path d="M416.5 601.8L417.7 562.2L418.8 522.6L420 483L421 443.4L422.1 403.8L423.1 364.2L424.1 324.7L425 285.1L425.9 245.5L426.8 205.9L427.6 166.3L428.4 126.7L429.2 87.1L429.9 47.5L430.8 47.5L430.1 87.1L429.4 126.7L428.6 166.3L427.8 205.9L427 245.5L426.1 285.1L425.2 324.7L424.3 364.3L423.4 403.9L422.4 443.5L421.4 483.1L420.3 522.7L419.2 562.2L418.1 601.8Z" fill="#554938" opacity=".8"/><path d="M427.9 244.5 Q419.9 214.5 394.6 157.8" stroke="#2c231a" stroke-width="0.8" fill="none" stroke-linecap="round"/><path d="M428.2 229.6 Q436.2 199.6 455.4 161" stroke="#2c231a" stroke-width="0.8" fill="none" stroke-linecap="round"/><path d="M441.5 573.1L441.7 535.9L441.9 498.7L442.1 461.6L442.3 424.4L442.5 387.2L442.6 350.1L442.8 312.9L443 275.7L443.2 238.6L443.4 201.4L443.5 164.3L443.7 127.1L443.9 89.9L444 52.8L447.1 52.8L447.2 89.9L447.3 127.1L447.3 164.3L447.3 201.4L447.4 238.6L447.4 275.8L447.5 312.9L447.5 350.1L447.5 387.3L447.6 424.4L447.6 461.6L447.6 498.8L447.7 535.9L447.7 573.1Z" fill="#3c3126"/><path d="M441.9 573.1L442 535.9L442.2 498.7L442.3 461.6L442.4 424.4L442.5 387.2L442.6 350.1L442.7 312.9L442.8 275.8L442.9 238.6L443 201.4L443.1 164.3L443.2 127.1L443.3 89.9L443.4 52.8L444.4 52.8L444.3 89.9L444.3 127.1L444.3 164.3L444.2 201.4L444.2 238.6L444.2 275.8L444.1 312.9L444.1 350.1L444 387.3L444 424.4L443.9 461.6L443.9 498.7L443.8 535.9L443.8 573.1Z" fill="#6a5c49" opacity=".8"/><path d="M445.2 306.9 Q437.2 276.9 423.2 259" stroke="#3c3126" stroke-width="1" fill="none" stroke-linecap="round"/><path d="M445.3 254.1 Q453.3 224.1 467.9 181.2" stroke="#3c3126" stroke-width="1" fill="none" stroke-linecap="round"/><path d="M445.4 159.3 Q453.4 129.3 481.8 98.5" stroke="#3c3126" stroke-width="1" fill="none" stroke-linecap="round"/><path d="M481.9 596.3L483.6 558.9L485.3 521.4L486.9 484L488.5 446.5L490 409.1L491.5 371.6L492.9 334.2L494.3 296.7L495.6 259.2L496.9 221.8L498.2 184.3L499.4 146.9L500.5 109.4L501.7 72L505.1 72L504.3 109.5L503.4 147L502.4 184.5L501.4 221.9L500.3 259.4L499.3 296.9L498.1 334.3L496.9 371.8L495.7 409.3L494.4 446.8L493.1 484.2L491.7 521.7L490.3 559.2L488.9 596.6Z" fill="#2c231a"/><path d="M482.4 596.4L484 559L485.6 521.5L487.1 484.1L488.6 446.6L490 409.1L491.4 371.7L492.8 334.2L494.1 296.8L495.3 259.3L496.5 221.8L497.7 184.4L498.8 146.9L499.9 109.4L500.9 72L502 72L501 109.5L500.1 146.9L499 184.4L497.9 221.9L496.8 259.3L495.6 296.8L494.4 334.3L493.1 371.7L491.8 409.2L490.4 446.7L489 484.1L487.5 521.6L486 559.1L484.5 596.5Z" fill="#554938" opacity=".8"/><path d="M497.8 264.3 Q489.8 234.3 462.1 205" stroke="#2c231a" stroke-width="1.1" fill="none" stroke-linecap="round"/><path d="M499.8 201.9 Q491.8 171.9 479 124.7" stroke="#2c231a" stroke-width="1.1" fill="none" stroke-linecap="round"/></g><g opacity="0.95"><circle cx="460.6" cy="21.7" r="28" fill="#77a144"/><circle cx="234.1" cy="47.9" r="21.3" fill="#93b859"/><circle cx="51.9" cy="288.5" r="18.2" fill="#5d8836"/><circle cx="81" cy="280.1" r="34.3" fill="#77a144"/><circle cx="325.3" cy="240.3" r="18.9" fill="#93b859"/><circle cx="7" cy="55.2" r="24" fill="#93b859"/><circle cx="395.4" cy="116.3" r="32.6" fill="#77a144"/><circle cx="35.3" cy="-16.2" r="18.4" fill="#93b859"/><circle cx="339" cy="99.7" r="22" fill="#93b859"/><circle cx="140.5" cy="107.5" r="25.5" fill="#77a144"/><circle cx="424.5" cy="-0.3" r="24.4" fill="#77a144"/><circle cx="284.9" cy="-24.8" r="34.9" fill="#93b859"/><circle cx="249.9" cy="32.3" r="21.8" fill="#5d8836"/><circle cx="308" cy="154.6" r="23.7" fill="#5d8836"/><circle cx="62.2" cy="85.8" r="17" fill="#5d8836"/><circle cx="460.5" cy="96.9" r="17.5" fill="#77a144"/><circle cx="271.1" cy="116.3" r="30.8" fill="#93b859"/><circle cx="413.9" cy="289.3" r="21.8" fill="#5d8836"/><circle cx="508.8" cy="285" r="28.2" fill="#77a144"/><circle cx="169.5" cy="13.1" r="25.2" fill="#77a144"/><circle cx="397" cy="87.2" r="33.5" fill="#77a144"/><circle cx="37.7" cy="68.2" r="18.6" fill="#77a144"/><circle cx="172.1" cy="108" r="35.2" fill="#5d8836"/><circle cx="436.8" cy="-28.1" r="20" fill="#93b859"/><circle cx="511.9" cy="-9.6" r="28.2" fill="#5d8836"/><circle cx="222.3" cy="99" r="35.1" fill="#5d8836"/><circle cx="-10.7" cy="260.2" r="24.1" fill="#5d8836"/><circle cx="231" cy="233.6" r="35.2" fill="#77a144"/><circle cx="88.1" cy="97" r="22.6" fill="#5d8836"/><circle cx="159.6" cy="12.4" r="20.8" fill="#77a144"/><circle cx="200.3" cy="-11.5" r="18.3" fill="#5d8836"/><circle cx="476.4" cy="186.3" r="16.3" fill="#93b859"/><circle cx="169.3" cy="80.4" r="26" fill="#5d8836"/><circle cx="282.1" cy="-23.2" r="20.5" fill="#77a144"/><circle cx="26.9" cy="263.1" r="26.6" fill="#93b859"/><circle cx="361.2" cy="-28.3" r="21.9" fill="#93b859"/><circle cx="443.9" cy="-12.1" r="32.9" fill="#5d8836"/><circle cx="351.6" cy="165.9" r="20.3" fill="#77a144"/><circle cx="341.9" cy="68.5" r="28.6" fill="#5d8836"/><circle cx="287.6" cy="72.4" r="29.1" fill="#5d8836"/><circle cx="91.6" cy="262.6" r="21.3" fill="#93b859"/><circle cx="278.5" cy="15.4" r="24.2" fill="#5d8836"/><circle cx="171.7" cy="299.6" r="26" fill="#93b859"/><circle cx="56.1" cy="229.2" r="23.9" fill="#93b859"/><circle cx="103.1" cy="233.5" r="23.2" fill="#93b859"/><circle cx="0.6" cy="13.7" r="28.9" fill="#77a144"/><circle cx="490.7" cy="198.7" r="24.9" fill="#77a144"/><circle cx="418.1" cy="184" r="26.1" fill="#5d8836"/><circle cx="258.3" cy="169.8" r="16.1" fill="#93b859"/><circle cx="277.1" cy="-28.9" r="22.7" fill="#77a144"/><circle cx="259.2" cy="73.5" r="22.4" fill="#93b859"/><circle cx="108.3" cy="-22.3" r="30.8" fill="#77a144"/><circle cx="459.2" cy="72.4" r="23.6" fill="#5d8836"/><circle cx="209.4" cy="57.3" r="26.8" fill="#77a144"/><circle cx="174.6" cy="20.8" r="25.6" fill="#5d8836"/><circle cx="-15.8" cy="26.4" r="30.6" fill="#77a144"/><circle cx="341.1" cy="-29" r="31.1" fill="#93b859"/><circle cx="-3.5" cy="120.1" r="32.4" fill="#5d8836"/><circle cx="498.4" cy="-23" r="22.1" fill="#77a144"/><circle cx="453.4" cy="132.4" r="27.9" fill="#93b859"/><circle cx="416" cy="26.2" r="22.8" fill="#93b859"/><circle cx="415.6" cy="205.5" r="18.1" fill="#93b859"/><circle cx="290.9" cy="13.6" r="27" fill="#93b859"/><circle cx="203.8" cy="278.7" r="19.1" fill="#77a144"/><circle cx="61.7" cy="-12.9" r="18.1" fill="#93b859"/><circle cx="9" cy="70.1" r="21.4" fill="#93b859"/><circle cx="42.4" cy="159.9" r="30.7" fill="#93b859"/><circle cx="81.6" cy="65.4" r="35.3" fill="#93b859"/><circle cx="1.7" cy="-18.8" r="32.8" fill="#5d8836"/><circle cx="185.6" cy="78.2" r="28.4" fill="#5d8836"/></g><path d="M-19.8 701.6L-19.9 653.4L-20.1 605.2L-20.2 557L-20.3 508.9L-20.4 460.7L-20.5 412.5L-20.6 364.4L-20.7 316.2L-20.7 268L-20.8 219.8L-20.9 171.7L-20.9 123.5L-20.9 75.3L-21 27.2L-16.6 27.1L-16.3 75.3L-16 123.5L-15.6 171.7L-15.2 219.8L-14.9 268L-14.5 316.2L-14.1 364.3L-13.7 412.5L-13.3 460.7L-12.9 508.8L-12.5 557L-12.1 605.2L-11.6 653.3L-11.2 701.5Z" fill="#3c3126"/><path d="M-19.2 701.5L-19.5 653.4L-19.7 605.2L-19.9 557L-20.1 508.9L-20.4 460.7L-20.6 412.5L-20.8 364.4L-21 316.2L-21.1 268L-21.3 219.8L-21.5 171.7L-21.6 123.5L-21.8 75.3L-21.9 27.2L-20.5 27.2L-20.3 75.3L-20.1 123.5L-19.8 171.7L-19.6 219.8L-19.3 268L-19.1 316.2L-18.8 364.3L-18.5 412.5L-18.2 460.7L-17.9 508.8L-17.6 557L-17.3 605.2L-16.9 653.4L-16.6 701.5Z" fill="#6a5c49" opacity=".8"/><path d="M-17.2 389.1 Q-25.2 359.1 -54.6 332" stroke="#3c3126" stroke-width="1.4" fill="none" stroke-linecap="round"/><path d="M-18.2 185.4 Q-10.2 155.4 17.7 112.6" stroke="#3c3126" stroke-width="1.4" fill="none" stroke-linecap="round"/><path d="M48.8 776.2L47.6 723.5L46.4 670.8L45.2 618.2L44 565.5L42.9 512.8L41.9 460.1L40.9 407.4L39.9 354.7L39 302L38.1 249.3L37.2 196.7L36.4 144L35.7 91.3L35 38.6L40.4 38.5L41.5 91.2L42.6 143.9L43.8 196.5L45 249.2L46.3 301.9L47.6 354.5L48.9 407.2L50.3 459.9L51.8 512.6L53.3 565.2L54.8 617.9L56.3 670.6L58 723.3L59.6 775.9Z" fill="#2c231a"/><path d="M49.6 776.1L48.2 723.4L46.8 670.8L45.5 618.1L44.2 565.4L43 512.7L41.8 460L40.7 407.3L39.5 354.7L38.5 302L37.5 249.3L36.5 196.6L35.5 143.9L34.6 91.2L33.8 38.6L35.5 38.5L36.5 91.2L37.5 143.9L38.5 196.6L39.6 249.2L40.7 301.9L41.9 354.6L43.1 407.3L44.4 460L45.7 512.6L47 565.3L48.4 618L49.8 670.7L51.3 723.4L52.8 776Z" fill="#554938" opacity=".8"/><path d="M41.6 249.7 Q33.6 219.7 1.1 162.7" stroke="#2c231a" stroke-width="1.7" fill="none" stroke-linecap="round"/><path d="M45.6 439.8 Q53.6 409.8 81.6 350.4" stroke="#2c231a" stroke-width="1.7" fill="none" stroke-linecap="round"/><path d="M112.6 761.9L114.5 711.5L116.4 661.2L118.3 610.8L120 560.4L121.8 510.1L123.4 459.7L125.1 409.3L126.7 358.9L128.2 308.6L129.7 258.2L131.1 207.8L132.5 157.5L133.8 107.1L135.1 56.7L140.4 56.8L139.5 107.2L138.6 157.6L137.6 208L136.5 258.4L135.4 308.8L134.3 359.2L133.1 409.5L131.8 459.9L130.5 510.3L129.2 560.7L127.8 611.1L126.3 661.5L124.8 711.9L123.3 762.3Z" fill="#3c3126"/><path d="M113.4 762L115.1 711.7L116.9 661.3L118.6 610.9L120.2 560.5L121.8 510.2L123.4 459.8L124.9 409.4L126.3 359L127.7 308.6L129 258.3L130.3 207.9L131.6 157.5L132.8 107.1L133.9 56.7L135.6 56.8L134.6 107.2L133.5 157.5L132.4 207.9L131.2 258.3L129.9 308.7L128.7 359.1L127.3 409.5L125.9 459.8L124.5 510.2L123 560.6L121.5 611L119.9 661.4L118.2 711.8L116.6 762.2Z" fill="#6a5c49" opacity=".8"/><path d="M128.2 440.7 Q136.2 410.7 165.5 362.7" stroke="#3c3126" stroke-width="1.7" fill="none" stroke-linecap="round"/><path d="M133.8 229.8 Q141.8 199.8 152.7 169.7" stroke="#3c3126" stroke-width="1.7" fill="none" stroke-linecap="round"/><path d="M166.7 783.9L168.5 729.7L170.2 675.6L171.9 621.5L173.6 567.3L175.2 513.2L176.7 459.1L178.2 404.9L179.7 350.8L181.1 296.7L182.4 242.5L183.8 188.4L185 134.3L186.2 80.1L187.4 26L191.6 26.1L190.7 80.2L189.8 134.4L188.8 188.5L187.8 242.6L186.7 296.8L185.6 350.9L184.5 405.1L183.2 459.2L182 513.4L180.7 567.5L179.3 621.7L178 675.8L176.5 730L175 784.1Z" fill="#33291f"/><path d="M167.3 784L169 729.8L170.6 675.7L172.2 621.5L173.7 567.4L175.2 513.3L176.7 459.1L178.1 405L179.4 350.9L180.7 296.7L182 242.6L183.2 188.4L184.3 134.3L185.4 80.2L186.5 26L187.8 26L186.8 80.2L185.8 134.3L184.7 188.5L183.6 242.6L182.4 296.8L181.2 350.9L180 405L178.7 459.2L177.3 513.3L175.9 567.5L174.4 621.6L172.9 675.7L171.4 729.9L169.8 784Z" fill="#5d5140" opacity=".8"/><path d="M184.1 287.3 Q176.1 257.3 156.4 215.5" stroke="#33291f" stroke-width="1.3" fill="none" stroke-linecap="round"/><path d="M181.2 410.4 Q189.2 380.4 223.2 353.3" stroke="#33291f" stroke-width="1.3" fill="none" stroke-linecap="round"/><path d="M242.7 717.8L243 667.6L243.3 617.3L243.6 567.1L243.9 516.8L244.2 466.6L244.4 416.4L244.7 366.1L245 315.9L245.3 265.6L245.5 215.4L245.8 165.2L246.1 114.9L246.3 64.7L246.6 14.4L252 14.4L252.2 64.7L252.3 114.9L252.4 165.2L252.5 215.4L252.7 265.7L252.8 315.9L252.9 366.1L253 416.4L253.1 466.6L253.2 516.9L253.3 567.1L253.4 617.3L253.5 667.6L253.6 717.8Z" fill="#2c231a"/><path d="M243.5 717.8L243.6 667.6L243.8 617.3L243.9 567.1L244.1 516.8L244.2 466.6L244.4 416.4L244.5 366.1L244.6 315.9L244.8 265.6L244.9 215.4L245 165.2L245.1 114.9L245.3 64.7L245.4 14.4L247.1 14.4L247.1 64.7L247.1 114.9L247.1 165.2L247.1 215.4L247.1 265.6L247 315.9L247 366.1L247 416.4L246.9 466.6L246.9 516.8L246.9 567.1L246.8 617.3L246.8 667.6L246.8 717.8Z" fill="#554938" opacity=".8"/><path d="M249 205.1 Q257 175.1 267.4 148.8" stroke="#2c231a" stroke-width="1.7" fill="none" stroke-linecap="round"/><path d="M248.9 319.7 Q256.9 289.7 278.5 233.4" stroke="#2c231a" stroke-width="1.7" fill="none" stroke-linecap="round"/><path d="M249 210.6 Q241 180.6 209.3 147.6" stroke="#2c231a" stroke-width="1.7" fill="none" stroke-linecap="round"/><path d="M305 740.1L306.1 689.8L307.2 639.5L308.2 589.2L309.3 538.9L310.3 488.6L311.2 438.3L312.2 388L313.1 337.6L314 287.3L314.9 237L315.7 186.7L316.5 136.4L317.3 86.1L318.1 35.8L323.8 35.9L323.4 86.2L323 136.5L322.6 186.8L322.2 237.1L321.7 287.4L321.2 337.8L320.7 388.1L320.2 438.4L319.6 488.7L319 539L318.4 589.4L317.7 639.7L317 690L316.3 740.3Z" fill="#2c231a"/><path d="M305.8 740.2L306.7 689.9L307.7 639.6L308.6 589.2L309.5 538.9L310.3 488.6L311.1 438.3L312 388L312.7 337.7L313.5 287.4L314.2 237.1L314.9 186.8L315.6 136.4L316.2 86.1L316.8 35.8L318.7 35.8L318.2 86.2L317.6 136.5L317.1 186.8L316.5 237.1L315.9 287.4L315.2 337.7L314.6 388L313.9 438.3L313.2 488.7L312.4 539L311.6 589.3L310.9 639.6L310 689.9L309.2 740.2Z" fill="#554938" opacity=".8"/><path d="M316.8 364 Q308.8 334 286.8 301.9" stroke="#2c231a" stroke-width="1.8" fill="none" stroke-linecap="round"/><path d="M318.1 268.9 Q326.1 238.9 337.3 188.6" stroke="#2c231a" stroke-width="1.8" fill="none" stroke-linecap="round"/><path d="M318.6 227.9 Q310.6 197.9 280.1 138.9" stroke="#2c231a" stroke-width="1.8" fill="none" stroke-linecap="round"/><path d="M354.5 716.5L353.7 666.2L352.9 615.8L352.2 565.5L351.5 515.2L350.8 464.9L350.1 414.6L349.5 364.2L348.9 313.9L348.3 263.6L347.8 213.3L347.2 163L346.7 112.6L346.3 62.3L345.8 12L350.5 11.9L351.3 62.3L352.1 112.6L352.9 162.9L353.8 213.2L354.7 263.5L355.6 313.8L356.5 364.1L357.5 414.4L358.5 464.8L359.5 515.1L360.6 565.4L361.7 615.7L362.8 666L363.9 716.3Z" fill="#3c3126"/><path d="M355.2 716.4L354.2 666.1L353.3 615.8L352.5 565.5L351.6 515.2L350.8 464.8L350 414.5L349.3 364.2L348.6 313.9L347.9 263.6L347.2 213.2L346.6 162.9L346 112.6L345.4 62.3L344.8 12L346.3 12L347 62.3L347.6 112.6L348.4 162.9L349.1 213.2L349.8 263.5L350.6 313.9L351.5 364.2L352.3 414.5L353.2 464.8L354.1 515.1L355 565.4L356 615.7L357 666.1L358 716.4Z" fill="#6a5c49" opacity=".8"/><path d="M351.1 237.2 Q359.1 207.2 392.4 174.2" stroke="#3c3126" stroke-width="1.5" fill="none" stroke-linecap="round"/><path d="M350.3 176.6 Q342.3 146.6 324.2 130.1" stroke="#3c3126" stroke-width="1.5" fill="none" stroke-linecap="round"/><path d="M418.7 754.3L419.9 705L421.1 655.6L422.2 606.3L423.3 557L424.4 507.7L425.4 458.3L426.4 409L427.4 359.7L428.4 310.3L429.3 261L430.2 211.7L431.1 162.3L432 113L432.8 63.7L438.7 63.7L438.3 113.1L437.9 162.4L437.5 211.8L437 261.1L436.5 310.4L435.9 359.8L435.4 409.1L434.8 458.5L434.1 507.8L433.5 557.2L432.8 606.5L432.1 655.9L431.3 705.2L430.6 754.5Z" fill="#2c231a"/><path d="M419.5 754.4L420.6 705.1L421.6 655.7L422.6 606.4L423.5 557L424.4 507.7L425.3 458.4L426.2 409L427 359.7L427.9 310.4L428.6 261L429.4 211.7L430.1 162.4L430.8 113L431.5 63.7L433.4 63.7L432.8 113L432.3 162.4L431.7 211.7L431 261.1L430.4 310.4L429.7 359.7L428.9 409.1L428.2 458.4L427.4 507.8L426.6 557.1L425.8 606.4L424.9 655.8L424 705.1L423.1 754.5Z" fill="#554938" opacity=".8"/><path d="M432.4 311.8 Q440.4 281.8 464.6 228.9" stroke="#2c231a" stroke-width="1.9" fill="none" stroke-linecap="round"/><path d="M432.6 301.4 Q440.6 271.4 472.7 241" stroke="#2c231a" stroke-width="1.9" fill="none" stroke-linecap="round"/><path d="M433.2 257.7 Q441.2 227.7 452.3 170.2" stroke="#2c231a" stroke-width="1.9" fill="none" stroke-linecap="round"/><path d="M483.9 715L485.6 664.7L487.3 614.4L489 564L490.6 513.7L492.2 463.4L493.7 413L495.2 362.7L496.7 312.4L498.1 262L499.4 211.7L500.7 161.4L502 111L503.2 60.7L504.4 10.4L510.3 10.5L509.5 60.8L508.7 111.2L507.9 161.5L507 211.9L506.1 262.2L505.1 312.6L504 362.9L503 413.3L501.9 463.6L500.7 514L499.5 564.3L498.3 614.7L497 665L495.6 715.4Z" fill="#33291f"/><path d="M484.7 715.1L486.3 664.8L487.9 614.5L489.4 564.1L490.9 513.8L492.3 463.4L493.7 413.1L495 362.8L496.3 312.4L497.5 262.1L498.7 211.8L499.9 161.4L501 111.1L502.1 60.7L503.1 10.4L505 10.4L504.1 60.8L503.1 111.1L502.1 161.5L501.1 211.8L500 262.2L498.9 312.5L497.7 362.8L496.5 413.2L495.2 463.5L493.9 513.9L492.6 564.2L491.2 614.6L489.7 664.9L488.2 715.2Z" fill="#5d5140" opacity=".8"/><path d="M499.9 353.7 Q491.9 323.7 458.8 270.3" stroke="#33291f" stroke-width="1.9" fill="none" stroke-linecap="round"/><path d="M503.9 181.6 Q511.9 151.6 529.8 102.9" stroke="#33291f" stroke-width="1.9" fill="none" stroke-linecap="round"/><path d="M0 806 Q80 792 160 802 T330 800 T500 804 L500 900 L0 900 Z" fill="#2c4a1b"/><path d="M33.7 910.3L32.3 846.3L31 782.4L29.7 718.4L28.5 654.5L27.3 590.5L26.1 526.6L25.1 462.6L24 398.7L23.1 334.7L22.1 270.8L21.2 206.8L20.4 142.9L19.6 78.9L18.9 15L28.2 14.8L29.6 78.8L31.1 142.7L32.6 206.6L34.1 270.5L35.7 334.5L37.4 398.4L39.1 462.3L40.8 526.2L42.6 590.1L44.5 654.1L46.4 718L48.3 781.9L50.3 845.8L52.4 909.7Z" fill="#3c3126"/><path d="M35 910.1L33.4 846.1L31.8 782.2L30.3 718.3L28.8 654.3L27.4 590.4L26 526.4L24.7 462.5L23.4 398.6L22.2 334.6L21 270.7L19.9 206.7L18.8 142.8L17.8 78.9L16.8 14.9L19.8 14.9L21 78.8L22.2 142.7L23.4 206.7L24.8 270.6L26.1 334.5L27.5 398.5L29 462.4L30.5 526.3L32.1 590.3L33.7 654.2L35.3 718.1L37 782.1L38.8 846L40.6 909.9Z" fill="#6a5c49" opacity=".8"/><path d="M30.8 404.3 Q22.8 374.3 -3 354.4" stroke="#3c3126" stroke-width="3" fill="none" stroke-linecap="round"/><path d="M28.3 279.6 Q36.3 249.6 70.3 211.3" stroke="#3c3126" stroke-width="3" fill="none" stroke-linecap="round"/><path d="M147.4 909.9L148.6 843L149.8 776.1L150.9 709.2L152 642.2L153.1 575.3L154.2 508.4L155.3 441.5L156.3 374.6L157.3 307.7L158.3 240.8L159.2 173.9L160.1 107L161 40.1L161.9 -26.8L170.8 -26.8L170.6 40.1L170.3 107.1L170.1 174L169.7 240.9L169.4 307.8L169 374.7L168.7 441.7L168.2 508.6L167.8 575.5L167.3 642.4L166.9 709.4L166.3 776.3L165.8 843.2L165.2 910.1Z" fill="#33291f"/><path d="M148.6 910L149.6 843.1L150.6 776.1L151.5 709.2L152.4 642.3L153.3 575.4L154.1 508.5L154.9 441.6L155.7 374.7L156.5 307.7L157.2 240.8L157.9 173.9L158.6 107L159.3 40.1L159.9 -26.8L162.8 -26.8L162.3 40.1L161.9 107L161.3 173.9L160.8 240.9L160.2 307.8L159.6 374.7L159 441.6L158.4 508.5L157.7 575.4L157 642.4L156.3 709.3L155.6 776.2L154.8 843.1L154 910Z" fill="#5d5140" opacity=".8"/><path d="M162.2 416.1 Q170.2 386.1 199.6 366.1" stroke="#33291f" stroke-width="2.9" fill="none" stroke-linecap="round"/><path d="M162.4 400.2 Q170.4 370.2 202.2 335.9" stroke="#33291f" stroke-width="2.9" fill="none" stroke-linecap="round"/><path d="M317.3 910.2L316.5 844L315.8 777.9L315.1 711.7L314.4 645.6L313.8 579.4L313.2 513.3L312.6 447.1L312.1 381L311.6 314.8L311.1 248.7L310.6 182.5L310.2 116.3L309.9 50.2L309.5 -16L319.9 -16.1L321 50.1L322.1 116.2L323.3 182.3L324.4 248.5L325.6 314.6L326.9 380.8L328.2 446.9L329.5 513L330.8 579.2L332.2 645.3L333.6 711.4L335 777.6L336.5 843.7L338 909.8Z" fill="#2c231a"/><path d="M318.7 910.1L317.7 843.9L316.7 777.8L315.7 711.6L314.8 645.5L313.9 579.3L313 513.2L312.2 447L311.4 380.9L310.6 314.7L309.9 248.6L309.2 182.4L308.5 116.3L307.9 50.2L307.3 -16L310.6 -16L311.4 50.1L312.2 116.3L313.1 182.4L314 248.5L315 314.7L315.9 380.8L316.9 447L318 513.1L319.1 579.2L320.2 645.4L321.3 711.5L322.5 777.7L323.7 843.8L324.9 909.9Z" fill="#554938" opacity=".8"/><path d="M320.7 470.2 Q328.7 440.2 352.5 398.3" stroke="#2c231a" stroke-width="3.3" fill="none" stroke-linecap="round"/><path d="M318.1 273.1 Q326.1 243.1 359.3 190.3" stroke="#2c231a" stroke-width="3.3" fill="none" stroke-linecap="round"/><path d="M448.1 909.8L449.8 844.9L451.5 780.1L453.2 715.2L454.8 650.3L456.3 585.5L457.8 520.6L459.3 455.7L460.8 390.9L462.2 326L463.5 261.1L464.8 196.3L466.1 131.4L467.4 66.5L468.6 1.7L478.2 1.8L477.6 66.7L477.1 131.6L476.5 196.5L475.9 261.3L475.2 326.2L474.5 391.1L473.7 456L472.9 520.9L472.1 585.8L471.2 650.7L470.3 715.5L469.3 780.4L468.3 845.3L467.3 910.2Z" fill="#33291f"/><path d="M449.5 909.9L450.9 845.1L452.4 780.2L453.8 715.3L455.1 650.4L456.4 585.6L457.7 520.7L458.9 455.8L460.1 391L461.3 326.1L462.4 261.2L463.5 196.3L464.5 131.5L465.5 66.6L466.4 1.7L469.5 1.8L468.8 66.6L468 131.5L467.1 196.4L466.2 261.3L465.3 326.1L464.3 391L463.3 455.9L462.3 520.8L461.2 585.7L460.1 650.5L458.9 715.4L457.7 780.3L456.5 845.2L455.2 910.1Z" fill="#5d5140" opacity=".8"/><path d="M469.9 244.2 Q461.9 214.2 440.2 165.2" stroke="#33291f" stroke-width="3.1" fill="none" stroke-linecap="round"/><path d="M470.7 193.9 Q462.7 163.9 440.4 143.9" stroke="#33291f" stroke-width="3.1" fill="none" stroke-linecap="round"/><path d="M470.5 210.5 Q462.5 180.5 444 124.8" stroke="#33291f" stroke-width="3.1" fill="none" stroke-linecap="round"/><g opacity="0.9"><circle cx="113.1" cy="160.9" r="23.1" fill="#4f7a2c"/><circle cx="230.2" cy="140.8" r="38.7" fill="#4f7a2c"/><circle cx="462.3" cy="56.7" r="40.5" fill="#2f541a"/><circle cx="432.6" cy="-35.3" r="36.5" fill="#3c6322"/><circle cx="518.6" cy="122.4" r="28.2" fill="#2f541a"/><circle cx="407" cy="38.8" r="23.5" fill="#2f541a"/><circle cx="21.9" cy="-14.3" r="43" fill="#2f541a"/><circle cx="284.2" cy="-33.3" r="32.4" fill="#2f541a"/><circle cx="154" cy="135.5" r="42" fill="#4f7a2c"/><circle cx="347.1" cy="38.6" r="35.1" fill="#4f7a2c"/><circle cx="504.5" cy="62.7" r="32.3" fill="#2f541a"/><circle cx="468.2" cy="-27.8" r="37" fill="#2f541a"/><circle cx="76.9" cy="106.3" r="31.5" fill="#4f7a2c"/><circle cx="126.1" cy="167.8" r="24.6" fill="#2f541a"/><circle cx="334.4" cy="-19.6" r="25.9" fill="#3c6322"/><circle cx="87.6" cy="170.2" r="31.7" fill="#2f541a"/><circle cx="111.5" cy="188.6" r="29.2" fill="#3c6322"/><circle cx="332.2" cy="83.3" r="37.1" fill="#4f7a2c"/><circle cx="204.1" cy="53.9" r="41.9" fill="#3c6322"/><circle cx="461.2" cy="27.3" r="25.2" fill="#3c6322"/><circle cx="222.6" cy="33.9" r="31.4" fill="#4f7a2c"/><circle cx="20.1" cy="39.4" r="23" fill="#3c6322"/><circle cx="137.7" cy="36" r="33.2" fill="#3c6322"/><circle cx="502.5" cy="171.5" r="45.4" fill="#3c6322"/><circle cx="215.1" cy="20" r="38.3" fill="#3c6322"/><circle cx="96.8" cy="86" r="26.3" fill="#3c6322"/><circle cx="155.6" cy="-27.3" r="40.5" fill="#3c6322"/><circle cx="69.3" cy="61.9" r="37.3" fill="#3c6322"/><circle cx="442.6" cy="10.5" r="29.6" fill="#4f7a2c"/><circle cx="-3" cy="104.9" r="25.3" fill="#4f7a2c"/><circle cx="5.2" cy="-38.8" r="43.4" fill="#4f7a2c"/><circle cx="46" cy="63.8" r="23.7" fill="#2f541a"/><circle cx="375.7" cy="110.7" r="33.8" fill="#2f541a"/><circle cx="499.4" cy="92.2" r="39.4" fill="#4f7a2c"/></g><g opacity="1"><circle cx="396.3" cy="830.1" r="19.4" fill="#3f6524"/><circle cx="326.4" cy="829" r="12" fill="#365a1f"/><circle cx="48.4" cy="818.9" r="21.7" fill="#3f6524"/><circle cx="206" cy="862" r="17.8" fill="#3f6524"/><circle cx="123.9" cy="796.1" r="10.6" fill="#3f6524"/><circle cx="34.5" cy="832.6" r="15.4" fill="#4f7a2c"/><circle cx="74.8" cy="833.4" r="18.3" fill="#4f7a2c"/><circle cx="-13" cy="801.1" r="15.6" fill="#4f7a2c"/><circle cx="115" cy="859" r="14.3" fill="#3f6524"/><circle cx="105.6" cy="864.6" r="20.6" fill="#365a1f"/><circle cx="66.4" cy="796.6" r="17" fill="#365a1f"/><circle cx="335.4" cy="818.1" r="13.8" fill="#365a1f"/><circle cx="142.4" cy="831.2" r="12.8" fill="#4f7a2c"/><circle cx="397.9" cy="818.9" r="14.1" fill="#365a1f"/><circle cx="356.2" cy="796" r="13.4" fill="#3f6524"/><circle cx="113.3" cy="831.9" r="20.2" fill="#365a1f"/><circle cx="415.9" cy="833.9" r="12.9" fill="#365a1f"/><circle cx="93.2" cy="815.2" r="11.3" fill="#365a1f"/><circle cx="495.9" cy="859.8" r="15" fill="#3f6524"/><circle cx="176.1" cy="833.8" r="18.9" fill="#365a1f"/><circle cx="302" cy="801.4" r="12.1" fill="#365a1f"/><circle cx="37.2" cy="846.9" r="18.7" fill="#4f7a2c"/><circle cx="310.1" cy="861.2" r="17.3" fill="#365a1f"/><circle cx="103" cy="817.3" r="10.3" fill="#365a1f"/><circle cx="467.6" cy="809.8" r="18.6" fill="#4f7a2c"/><circle cx="350.2" cy="811.1" r="10.7" fill="#365a1f"/><circle cx="167.6" cy="861.8" r="14" fill="#4f7a2c"/><circle cx="332.1" cy="873.5" r="11.4" fill="#365a1f"/><circle cx="142.6" cy="871.5" r="15.8" fill="#4f7a2c"/><circle cx="124.9" cy="865.7" r="20.4" fill="#4f7a2c"/><circle cx="266" cy="810.7" r="13.9" fill="#3f6524"/><circle cx="126.1" cy="849.4" r="16.7" fill="#4f7a2c"/><circle cx="364.4" cy="838" r="20.5" fill="#4f7a2c"/><circle cx="197.9" cy="866.6" r="17.2" fill="#365a1f"/><circle cx="228.4" cy="798.6" r="16.8" fill="#4f7a2c"/><circle cx="176.6" cy="851.9" r="14.1" fill="#4f7a2c"/><circle cx="433.2" cy="825.6" r="13.7" fill="#4f7a2c"/><circle cx="205" cy="863.3" r="11.4" fill="#365a1f"/><circle cx="422.1" cy="800.2" r="14.8" fill="#4f7a2c"/><circle cx="122.3" cy="807.5" r="13.3" fill="#4f7a2c"/><circle cx="152.6" cy="849.7" r="16" fill="#365a1f"/><circle cx="21.7" cy="798.5" r="17.5" fill="#3f6524"/><circle cx="322.4" cy="830.3" r="12.7" fill="#3f6524"/><circle cx="77.6" cy="811.9" r="17.6" fill="#3f6524"/><circle cx="76.5" cy="834.8" r="15.6" fill="#365a1f"/><circle cx="41.2" cy="845.1" r="10.8" fill="#4f7a2c"/></g><circle cx="280.1" cy="807.1" r="1.6" fill="#9cc861" opacity="0.6"/><circle cx="217.2" cy="841.8" r="2.4" fill="#9cc861" opacity="0.7"/><circle cx="142.9" cy="862.4" r="2.5" fill="#9cc861" opacity="0.4"/><circle cx="2.2" cy="857.6" r="2.5" fill="#9cc861" opacity="0.6"/><circle cx="330.8" cy="886" r="2.5" fill="#9cc861" opacity="0.6"/><circle cx="28.2" cy="806.6" r="2" fill="#9cc861" opacity="0.5"/><circle cx="252.4" cy="848.9" r="2.3" fill="#9cc861" opacity="0.5"/><circle cx="406.3" cy="828.2" r="2.9" fill="#9cc861" opacity="0.5"/><circle cx="311.6" cy="834.3" r="2.1" fill="#9cc861" opacity="0.5"/><circle cx="87.8" cy="834.1" r="1.9" fill="#9cc861" opacity="0.6"/><circle cx="306.9" cy="802.4" r="2.5" fill="#9cc861" opacity="0.4"/><circle cx="365.8" cy="806.9" r="2" fill="#9cc861" opacity="0.4"/><circle cx="223.2" cy="876.2" r="2.5" fill="#9cc861" opacity="0.4"/><circle cx="140" cy="877.3" r="1.5" fill="#9cc861" opacity="0.4"/><circle cx="475" cy="889.2" r="2.9" fill="#9cc861" opacity="0.5"/><circle cx="279" cy="880.1" r="2.3" fill="#9cc861" opacity="0.8"/><circle cx="8.1" cy="830.7" r="2.8" fill="#9cc861" opacity="0.4"/><circle cx="223.9" cy="858.8" r="2.4" fill="#9cc861" opacity="0.8"/><circle cx="141.6" cy="848" r="1.7" fill="#9cc861" opacity="0.6"/><circle cx="177.1" cy="880" r="3" fill="#9cc861" opacity="0.5"/><circle cx="388.1" cy="889.9" r="2.8" fill="#9cc861" opacity="0.8"/><circle cx="79.3" cy="848.7" r="2.2" fill="#9cc861" opacity="0.7"/><circle cx="394.8" cy="876.3" r="2.9" fill="#9cc861" opacity="0.6"/><circle cx="140.5" cy="893.1" r="2.4" fill="#9cc861" opacity="0.4"/><circle cx="190.7" cy="803.8" r="2.1" fill="#9cc861" opacity="0.5"/><circle cx="145.6" cy="880.3" r="2.6" fill="#9cc861" opacity="0.5"/><circle cx="88.2" cy="809.4" r="2.4" fill="#9cc861" opacity="0.7"/><circle cx="12.4" cy="818.4" r="2.8" fill="#9cc861" opacity="0.6"/><circle cx="48.8" cy="843.8" r="2" fill="#9cc861" opacity="0.5"/><circle cx="393.2" cy="868.2" r="1.6" fill="#9cc861" opacity="0.4"/><circle cx="52.7" cy="863.3" r="2.7" fill="#9cc861" opacity="0.5"/><circle cx="410.1" cy="870.5" r="1.4" fill="#9cc861" opacity="0.4"/><circle cx="319.7" cy="862.9" r="2.2" fill="#9cc861" opacity="0.4"/><circle cx="163.4" cy="818.9" r="1.5" fill="#9cc861" opacity="0.6"/><circle cx="287.5" cy="865.4" r="1.9" fill="#9cc861" opacity="0.5"/><circle cx="471.9" cy="877.3" r="1.8" fill="#9cc861" opacity="0.8"/><circle cx="45.8" cy="880.7" r="2.9" fill="#9cc861" opacity="0.5"/><circle cx="297.7" cy="864.4" r="1.8" fill="#9cc861" opacity="0.5"/><circle cx="203.9" cy="855.1" r="2.4" fill="#9cc861" opacity="0.6"/><circle cx="256" cy="838.3" r="2.6" fill="#9cc861" opacity="0.6"/><circle cx="273.2" cy="865.8" r="2.5" fill="#9cc861" opacity="0.6"/><circle cx="424.3" cy="872.5" r="2.3" fill="#9cc861" opacity="0.4"/><circle cx="71.9" cy="843.3" r="2.5" fill="#9cc861" opacity="0.6"/><circle cx="427.1" cy="804.8" r="2.5" fill="#9cc861" opacity="0.5"/><circle cx="304.7" cy="847.4" r="2.1" fill="#9cc861" opacity="0.6"/><circle cx="309.4" cy="843.8" r="2.9" fill="#9cc861" opacity="0.4"/><circle cx="65.4" cy="806.7" r="3" fill="#9cc861" opacity="0.5"/><circle cx="287.3" cy="853.3" r="2.2" fill="#9cc861" opacity="0.4"/><circle cx="112.1" cy="848.1" r="2.9" fill="#9cc861" opacity="0.6"/><circle cx="124.4" cy="852.8" r="2" fill="#9cc861" opacity="0.4"/><circle cx="206.1" cy="874.3" r="2.5" fill="#9cc861" opacity="0.6"/><circle cx="97.4" cy="855.6" r="2.5" fill="#9cc861" opacity="0.6"/><circle cx="278.3" cy="866.5" r="2.2" fill="#9cc861" opacity="0.4"/><circle cx="97.7" cy="856.8" r="2.6" fill="#9cc861" opacity="0.5"/><circle cx="470.1" cy="804.5" r="1.7" fill="#9cc861" opacity="0.4"/><circle cx="304.8" cy="872.3" r="2.2" fill="#9cc861" opacity="0.5"/><circle cx="142.4" cy="839.2" r="2" fill="#9cc861" opacity="0.7"/><circle cx="496.2" cy="827.1" r="2.3" fill="#9cc861" opacity="0.4"/><circle cx="334.7" cy="887.7" r="2.1" fill="#9cc861" opacity="0.6"/><circle cx="237.4" cy="893.4" r="1.6" fill="#9cc861" opacity="0.4"/><circle cx="218.8" cy="854.8" r="2.3" fill="#9cc861" opacity="0.7"/><circle cx="70" cy="826" r="2" fill="#9cc861" opacity="0.8"/><circle cx="73.6" cy="824.7" r="2.8" fill="#9cc861" opacity="0.4"/><circle cx="315.1" cy="869.9" r="2.9" fill="#9cc861" opacity="0.6"/><circle cx="82.6" cy="856" r="2.3" fill="#9cc861" opacity="0.5"/><circle cx="6.8" cy="867.5" r="2.4" fill="#9cc861" opacity="0.5"/><circle cx="381.6" cy="830" r="1.9" fill="#9cc861" opacity="0.7"/><circle cx="383.5" cy="880.6" r="2.6" fill="#9cc861" opacity="0.7"/><circle cx="259.4" cy="828.9" r="1.5" fill="#9cc861" opacity="0.7"/><circle cx="315.7" cy="879.2" r="2.4" fill="#9cc861" opacity="0.5"/></svg>