<svg xmlns="http://www.w3.org/2000/svg" viewBox="0 0 500 900"><g opacity=".85"><path d="M10.2 460.5 L-4.3 492.3 L3 487.4 L10.2 490.2 L17.5 484 L24.8 492.3 Z" fill="#2e6b4b"/><path d="M10.2 480.4 L-9 518.2 L0.6 510.6 L10.2 519.8 L19.9 510.1 L29.5 518.2 Z" fill="#2e6b4b"/><path d="M10.2 500.3 L-13.8 544.1 L-1.8 539.5 L10.2 545.1 L22.2 535.9 L34.3 544.1 Z" fill="#2e6b4b"/><path d="M10.2 520.2 L-18.5 569.9 L-4.1 564.2 L10.2 569.6 L24.6 563.4 L39 569.9 Z" fill="#2e6b4b"/><rect x="6.8" y="554" width="6.9" height="17.9" fill="#2e6b4b"/><path d="M87.9 461.3 L74.7 492.9 L81.3 489.5 L87.9 492.3 L94.5 485.1 L101.1 492.9 Z" fill="#2e6b4b"/><path d="M87.9 481 L70.4 518.5 L79.2 511.5 L87.9 517.7 L96.7 515.3 L105.4 518.5 Z" fill="#2e6b4b"/><path d="M87.9 500.8 L66.1 544.2 L77 536.5 L87.9 542.5 L98.8 538.7 L109.8 544.2 Z" fill="#2e6b4b"/><path d="M87.9 520.5 L61.8 569.9 L74.9 564.2 L87.9 572.6 L101 565.9 L114.1 569.9 Z" fill="#2e6b4b"/><rect x="84.8" y="554" width="6.3" height="17.8" fill="#2e6b4b"/><path d="M133.1 456.8 L117 489.9 L125.1 486.8 L133.1 487 L141.2 485.3 L149.2 489.9 Z" fill="#2e6b4b"/><path d="M133.1 477.5 L111.8 516.7 L122.4 512.9 L133.1 517.6 L143.8 509 L154.5 516.7 Z" fill="#2e6b4b"/><path d="M133.1 498.1 L106.5 543.5 L119.8 539.3 L133.1 544.9 L146.4 535.7 L159.7 543.5 Z" fill="#2e6b4b"/><path d="M133.1 518.7 L101.3 570.3 L117.2 565.2 L133.1 568.6 L149 561.6 L165 570.3 Z" fill="#2e6b4b"/><rect x="129.3" y="554" width="7.6" height="18.4" fill="#2e6b4b"/><path d="M190.7 451.6 L176.2 486.3 L183.5 481.2 L190.7 488.3 L198 483.1 L205.3 486.3 Z" fill="#2e6b4b"/><path d="M190.7 473.3 L171.4 514.5 L181.1 511.3 L190.7 517.4 L200.4 510.2 L210 514.5 Z" fill="#2e6b4b"/><path d="M190.7 495 L166.7 542.7 L178.7 535.5 L190.7 540.7 L202.7 537.4 L214.7 542.7 Z" fill="#2e6b4b"/><path d="M190.7 516.7 L161.9 570.8 L176.3 565.1 L190.7 571.9 L205.1 562.4 L219.5 570.8 Z" fill="#2e6b4b"/><rect x="187.3" y="554" width="6.9" height="19" fill="#2e6b4b"/><path d="M245.9 428.2 L230.6 470.3 L238.2 465.5 L245.9 467.9 L253.5 463.7 L261.1 470.3 Z" fill="#2e6b4b"/><path d="M245.9 454.5 L225.6 504.6 L235.7 501.1 L245.9 505.5 L256 501.6 L266.1 504.6 Z" fill="#2e6b4b"/><path d="M245.9 480.9 L220.6 538.9 L233.2 531.1 L245.9 538.6 L258.5 534.7 L271.1 538.9 Z" fill="#2e6b4b"/><path d="M245.9 507.3 L215.6 573.2 L230.8 566.9 L245.9 574.9 L261 567.6 L276.1 573.2 Z" fill="#2e6b4b"/><rect x="242.2" y="554" width="7.3" height="21.8" fill="#2e6b4b"/><path d="M302.4 461 L285.8 492.7 L294.1 484.4 L302.4 490.9 L310.7 485.7 L319 492.7 Z" fill="#2e6b4b"/><path d="M302.4 480.8 L280.3 518.4 L291.3 513.7 L302.4 520.6 L313.4 512.3 L324.4 518.4 Z" fill="#2e6b4b"/><path d="M302.4 500.6 L274.9 544.2 L288.6 538.2 L302.4 545.9 L316.1 536.8 L329.8 544.2 Z" fill="#2e6b4b"/><path d="M302.4 520.4 L269.5 569.9 L285.9 563.1 L302.4 570.6 L318.8 564.7 L335.2 569.9 Z" fill="#2e6b4b"/><rect x="298.4" y="554" width="7.9" height="17.9" fill="#2e6b4b"/><path d="M358.8 460.5 L345.1 492.4 L352 487.7 L358.8 493.5 L365.6 489.2 L372.4 492.4 Z" fill="#2e6b4b"/><path d="M358.8 480.4 L340.7 518.2 L349.7 513.8 L358.8 516.7 L367.8 513.8 L376.8 518.2 Z" fill="#2e6b4b"/><path d="M358.8 500.3 L336.2 544.1 L347.5 541 L358.8 543.2 L370 535.2 L381.3 544.1 Z" fill="#2e6b4b"/><path d="M358.8 520.2 L331.8 569.9 L345.3 563.2 L358.8 568.6 L372.2 562 L385.7 569.9 Z" fill="#2e6b4b"/><rect x="355.5" y="554" width="6.5" height="17.9" fill="#2e6b4b"/><path d="M416.9 460 L400.7 492 L408.8 483.3 L416.9 492.7 L425 484.2 L433.1 492 Z" fill="#2e6b4b"/><path d="M416.9 480 L395.4 518 L406.2 510.2 L416.9 519.9 L427.6 510.8 L438.4 518 Z" fill="#2e6b4b"/><path d="M416.9 500 L390.1 544 L403.5 536.1 L416.9 543.7 L430.3 539.2 L443.7 544 Z" fill="#2e6b4b"/><path d="M416.9 520 L384.8 570 L400.9 564.1 L416.9 572.2 L432.9 563.4 L449 570 Z" fill="#2e6b4b"/><rect x="413.1" y="554" width="7.7" height="18" fill="#2e6b4b"/><path d="M484.5 436.3 L469.7 475.9 L477.1 471.2 L484.5 475.7 L491.9 467.7 L499.2 475.9 Z" fill="#2e6b4b"/><path d="M484.5 461.1 L464.9 508.1 L474.7 499.8 L484.5 509.8 L494.3 503.5 L504.1 508.1 Z" fill="#2e6b4b"/><path d="M484.5 485.8 L460.1 540.2 L472.3 536.9 L484.5 541.4 L496.7 534.7 L508.9 540.2 Z" fill="#2e6b4b"/><path d="M484.5 510.5 L455.3 572.4 L469.9 564.4 L484.5 574.5 L499.1 564.1 L513.7 572.4 Z" fill="#2e6b4b"/><rect x="481" y="554" width="7" height="20.8" fill="#2e6b4b"/></g><rect x="0" y="470" width="500" height="130" fill="#9fd8bd" opacity=".16"/><path d="M-11.8 532.3 L-32.9 585.9 L-22.4 578.8 L-11.8 585.5 L-1.2 581.2 L9.3 585.9 Z" fill="#1b4a31"/><path d="M-11.8 565.8 L-39.8 629.6 L-25.8 623.8 L-11.8 628 L2.2 625.2 L16.2 629.6 Z" fill="#1b4a31"/><path d="M-11.8 599.4 L-46.7 673.2 L-29.3 668.6 L-11.8 675.1 L5.7 664.4 L23.1 673.2 Z" fill="#1b4a31"/><path d="M-11.8 632.9 L-53.6 716.8 L-32.7 711.5 L-11.8 719.1 L9.1 709.3 L30 716.8 Z" fill="#1b4a31"/><rect x="-16.8" y="694" width="10" height="26.1" fill="#241708"/><path d="M66.9 495.2 L45.8 560.8 L56.3 554.2 L66.9 562.7 L77.4 554.1 L87.9 560.8 Z" fill="#1b4a31"/><path d="M66.9 536.2 L39 614 L52.9 606.2 L66.9 612.3 L80.8 607.1 L94.7 614 Z" fill="#1b4a31"/><path d="M66.9 577.1 L32.1 667.2 L49.5 662.4 L66.9 666.4 L84.2 662.9 L101.6 667.2 Z" fill="#1b4a31"/><path d="M66.9 618.1 L25.2 720.5 L46 711.9 L66.9 719 L87.7 715.2 L108.5 720.5 Z" fill="#1b4a31"/><rect x="61.9" y="694" width="10" height="30.6" fill="#241708"/><path d="M157.5 512.5 L133.6 572.5 L145.6 565.2 L157.5 570.6 L169.5 563.7 L181.4 572.5 Z" fill="#1b4a31"/><path d="M157.5 550 L125.8 621.3 L141.6 615.1 L157.5 620 L173.4 615.1 L189.2 621.3 Z" fill="#1b4a31"/><path d="M157.5 587.5 L118 670 L137.7 661 L157.5 667 L177.3 663.3 L197 670 Z" fill="#1b4a31"/><path d="M157.5 625 L110.2 718.7 L133.8 714.3 L157.5 717.6 L181.2 715.2 L204.9 718.7 Z" fill="#1b4a31"/><rect x="151.8" y="694" width="11.4" height="28.5" fill="#241708"/><path d="M243.9 517.8 L220.8 576.1 L232.3 568.5 L243.9 576.7 L255.5 572.2 L267 576.1 Z" fill="#1b4a31"/><path d="M243.9 554.2 L213.2 623.5 L228.6 617.7 L243.9 622.4 L259.2 615.1 L274.6 623.5 Z" fill="#1b4a31"/><path d="M243.9 590.7 L205.7 670.8 L224.8 665.3 L243.9 669 L263 664.1 L282.1 670.8 Z" fill="#1b4a31"/><path d="M243.9 627.1 L198.1 718.2 L221 712.5 L243.9 720.9 L266.8 713.3 L289.7 718.2 Z" fill="#1b4a31"/><rect x="238.4" y="694" width="11" height="27.9" fill="#241708"/><path d="M326.5 492.8 L305.7 559.1 L316.1 552.4 L326.5 560.2 L336.8 553.4 L347.2 559.1 Z" fill="#1b4a31"/><path d="M326.5 534.2 L298.9 613 L312.7 605.3 L326.5 612.4 L340.2 608.9 L354 613 Z" fill="#1b4a31"/><path d="M326.5 575.7 L292.2 666.8 L309.3 659.3 L326.5 668.1 L343.6 658.1 L360.8 666.8 Z" fill="#1b4a31"/><path d="M326.5 617.1 L285.4 720.7 L305.9 717.4 L326.5 721.8 L347 713.7 L367.5 720.7 Z" fill="#1b4a31"/><rect x="321.5" y="694" width="9.9" height="30.9" fill="#241708"/><path d="M421.6 496.2 L402.1 561.4 L411.8 553.9 L421.6 561.4 L431.3 558.4 L441.1 561.4 Z" fill="#1b4a31"/><path d="M421.6 537 L395.7 614.4 L408.7 606.2 L421.6 611.7 L434.5 607.3 L447.5 614.4 Z" fill="#1b4a31"/><path d="M421.6 577.7 L389.4 667.4 L405.5 658.7 L421.6 666.8 L437.7 661.6 L453.8 667.4 Z" fill="#1b4a31"/><path d="M421.6 618.5 L383 720.4 L402.3 714 L421.6 718.2 L440.9 711.5 L460.2 720.4 Z" fill="#1b4a31"/><rect x="417" y="694" width="9.3" height="30.5" fill="#241708"/><path d="M501.3 515.8 L479.7 574.7 L490.5 568.6 L501.3 575.9 L512.1 571.1 L522.9 574.7 Z" fill="#1b4a31"/><path d="M501.3 552.6 L472.6 622.6 L486.9 618.6 L501.3 624 L515.6 615.7 L529.9 622.6 Z" fill="#1b4a31"/><path d="M501.3 589.5 L465.5 670.5 L483.4 662.5 L501.3 668.1 L519.1 666.7 L537 670.5 Z" fill="#1b4a31"/><path d="M501.3 626.3 L458.5 718.4 L479.9 709.8 L501.3 718.8 L522.7 714.9 L544.1 718.4 Z" fill="#1b4a31"/><rect x="496.1" y="694" width="10.3" height="28.1" fill="#241708"/><rect x="0" y="600" width="500" height="120" fill="#9fd8bd" opacity=".1"/><path d="M-25 623.9 L-58.4 713.8 L-41.7 710.5 L-25 714.9 L-8.2 709.9 L8.5 713.8 Z" fill="#071c11"/><path d="M-25 680.1 L-69.4 786.9 L-47.2 778.2 L-25 788.3 L-2.8 780.6 L19.4 786.9 Z" fill="#071c11"/><path d="M-25 736.3 L-80.3 860 L-52.6 853.4 L-25 861.9 L2.7 855.4 L30.4 860 Z" fill="#071c11"/><path d="M-25 792.5 L-91.2 933.1 L-58.1 929.6 L-25 934.5 L8.2 929.6 L41.3 933.1 Z" fill="#071c11"/><rect x="-32.9" y="899" width="15.9" height="39.7" fill="#120b04"/><path d="M98 610.5 L61.7 704.7 L79.9 698.5 L98 702.6 L116.1 699.3 L134.2 704.7 Z" fill="#071c11"/><path d="M98 669.4 L49.9 781.3 L73.9 777.5 L98 783.5 L122 773.1 L146.1 781.3 Z" fill="#071c11"/><path d="M98 728.3 L38.1 857.9 L68 851.2 L98 856.3 L128 850.9 L157.9 857.9 Z" fill="#071c11"/><path d="M98 787.2 L26.2 934.4 L62.1 931.2 L98 934 L133.9 927.3 L169.8 934.4 Z" fill="#071c11"/><rect x="89.4" y="899" width="17.2" height="41.3" fill="#120b04"/><path d="M213.6 619.8 L178.3 711 L195.9 704.1 L213.6 709.2 L231.3 703.4 L249 711 Z" fill="#071c11"/><path d="M213.6 676.8 L166.7 785.2 L190.2 777.8 L213.6 787.6 L237.1 777.2 L260.6 785.2 Z" fill="#071c11"/><path d="M213.6 733.9 L155.1 859.4 L184.4 854.9 L213.6 857 L242.9 855.1 L272.1 859.4 Z" fill="#071c11"/><path d="M213.6 790.9 L143.6 933.5 L178.6 926.1 L213.6 935.2 L248.7 927.1 L283.7 933.5 Z" fill="#071c11"/><rect x="205.2" y="899" width="16.8" height="40.2" fill="#120b04"/><path d="M328.2 647.4 L291.8 729.9 L310 724.1 L328.2 729.8 L346.4 723 L364.5 729.9 Z" fill="#071c11"/><path d="M328.2 699 L280 796.8 L304.1 792 L328.2 796.7 L352.3 788.2 L376.4 796.8 Z" fill="#071c11"/><path d="M328.2 750.5 L268.1 863.8 L298.1 858.4 L328.2 862.7 L358.2 859.9 L388.3 863.8 Z" fill="#071c11"/><path d="M328.2 802 L256.2 930.8 L292.2 925.1 L328.2 932.4 L364.2 922.5 L400.2 930.8 Z" fill="#071c11"/><rect x="319.6" y="899" width="17.3" height="36.9" fill="#120b04"/><path d="M465.8 606.2 L429.1 701.8 L447.4 698.1 L465.8 702.1 L484.2 696.3 L502.5 701.8 Z" fill="#071c11"/><path d="M465.8 665.9 L417 779.5 L441.4 775.1 L465.8 778.1 L490.2 773.8 L514.5 779.5 Z" fill="#071c11"/><path d="M465.8 725.7 L405 857.2 L435.4 852.9 L465.8 857.8 L496.2 851.4 L526.6 857.2 Z" fill="#071c11"/><path d="M465.8 785.5 L393 934.9 L429.4 931 L465.8 937.7 L502.2 927.4 L538.6 934.9 Z" fill="#071c11"/><rect x="457.1" y="899" width="17.5" height="41.9" fill="#120b04"/><path d="M28 510 L-20 647.6 L4 639 L28 648.3 L52 639.5 L76 647.6 Z" fill="#04120a"/><path d="M28 596 L-35.7 759.4 L-3.8 756.2 L28 759.2 L59.8 753.6 L91.7 759.4 Z" fill="#04120a"/><path d="M28 682 L-51.3 871.2 L-11.7 867.1 L28 873.4 L67.7 863.1 L107.3 871.2 Z" fill="#04120a"/><path d="M28 768 L-67 983 L-19.5 976.7 L28 981.1 L75.5 976.8 L123 983 Z" fill="#04120a"/><rect x="16.6" y="934" width="22.8" height="57.6" fill="#0b0602"/><path d="M478 490 L427.5 637.2 L452.8 629 L478 639.5 L503.2 630.3 L528.5 637.2 Z" fill="#04120a"/><path d="M478 582 L411 756.8 L444.5 750.1 L478 759.2 L511.5 752.7 L545 756.8 Z" fill="#04120a"/><path d="M478 674 L394.5 876.4 L436.2 869.4 L478 876.4 L519.8 871.4 L561.5 876.4 Z" fill="#04120a"/><path d="M478 766 L378 996 L428 988.1 L478 993.8 L528 992.1 L578 996 Z" fill="#04120a"/><rect x="466" y="944" width="24" height="61.2" fill="#0b0602"/></svg>