<svg xmlns="http://www.w3.org/2000/svg" viewBox="0 0 500 900"><defs><radialGradient id="ch0" cx="0.34" cy="0.3" r="1"><stop offset="0" stop-color="#ffffff" stop-opacity=".95"/><stop offset=".26" stop-color="#ffc0dd"/><stop offset=".72" stop-color="#ff9ecb" stop-opacity=".92"/><stop offset="1" stop-color="#ec60a4" stop-opacity=".85"/></radialGradient><radialGradient id="ch1" cx="0.34" cy="0.3" r="1"><stop offset="0" stop-color="#ffffff" stop-opacity=".95"/><stop offset=".26" stop-color="#ffc8e2"/><stop offset=".72" stop-color="#ffaad2" stop-opacity=".92"/><stop offset="1" stop-color="#f06eaf" stop-opacity=".85"/></radialGradient><radialGradient id="ch2" cx="0.34" cy="0.3" r="1"><stop offset="0" stop-color="#ffffff" stop-opacity=".95"/><stop offset=".26" stop-color="#e6ceff"/><stop offset=".72" stop-color="#d9b3ff" stop-opacity=".92"/><stop offset="1" stop-color="#a87aeb" stop-opacity=".85"/></radialGradient><radialGradient id="ch3" cx="0.34" cy="0.3" r="1"><stop offset="0" stop-color="#ffffff" stop-opacity=".95"/><stop offset=".26" stop-color="#ffc0dd"/><stop offset=".72" stop-color="#ff9ecb" stop-opacity=".92"/><stop offset="1" stop-color="#ec60a4" stop-opacity=".85"/></radialGradient></defs><circle cx="110.0" cy="234" r="46" fill="url(#ch0)"/><ellipse cx="92.5" cy="214.7" rx="12" ry="7.4" fill="#ffffff" opacity=".85" transform="rotate(-30 92.5 214.7)"/><circle cx="123.8" cy="254.2" r="3.7" fill="#ffffff" opacity=".5"/><circle cx="350.0" cy="396" r="28" fill="url(#ch1)"/><ellipse cx="339.4" cy="384.2" rx="7.3" ry="4.5" fill="#ffffff" opacity=".85" transform="rotate(-30 339.4 384.2)"/><circle cx="358.4" cy="408.3" r="2.2" fill="#ffffff" opacity=".5"/><circle cx="410.0" cy="684" r="56" fill="url(#ch2)"/><ellipse cx="388.7" cy="660.5" rx="14.6" ry="9" fill="#ffffff" opacity=".85" transform="rotate(-30 388.7 660.5)"/><circle cx="426.8" cy="708.6" r="4.5" fill="#ffffff" opacity=".5"/><circle cx="180.0" cy="594" r="22" fill="url(#ch3)"/><ellipse cx="171.6" cy="584.8" rx="5.7" ry="3.5" fill="#ffffff" opacity=".85" transform="rotate(-30 171.6 584.8)"/><circle cx="186.6" cy="603.7" r="1.8" fill="#ffffff" opacity=".5"/></svg>