<svg xmlns="http://www.w3.org/2000/svg" viewBox="0 0 1600 900"><defs><radialGradient id="ch0" cx="0.34" cy="0.3" r="1"><stop offset="0" stop-color="#ffffff" stop-opacity=".95"/><stop offset=".26" stop-color="#ffc0dd"/><stop offset=".72" stop-color="#ff9ecb" stop-opacity=".92"/><stop offset="1" stop-color="#ec60a4" stop-opacity=".85"/></radialGradient><radialGradient id="ch1" cx="0.34" cy="0.3" r="1"><stop offset="0" stop-color="#ffffff" stop-opacity=".95"/><stop offset=".26" stop-color="#ffc8e2"/><stop offset=".72" stop-color="#ffaad2" stop-opacity=".92"/><stop offset="1" stop-color="#f06eaf" stop-opacity=".85"/></radialGradient><radialGradient id="ch2" cx="0.34" cy="0.3" r="1"><stop offset="0" stop-color="#ffffff" stop-opacity=".95"/><stop offset=".26" stop-color="#e6ceff"/><stop offset=".72" stop-color="#d9b3ff" stop-opacity=".92"/><stop offset="1" stop-color="#a87aeb" stop-opacity=".85"/></radialGradient><radialGradient id="ch3" cx="0.34" cy="0.3" r="1"><stop offset="0" stop-color="#ffffff" stop-opacity=".95"/><stop offset=".26" stop-color="#ffc0dd"/><stop offset=".72" stop-color="#ff9ecb" stop-opacity=".92"/><stop offset="1" stop-color="#ec60a4" stop-opacity=".85"/></radialGradient><radialGradient id="ch4" cx="0.34" cy="0.3" r="1"><stop offset="0" stop-color="#ffffff" stop-opacity=".95"/><stop offset=".26" stop-color="#ffc0dd"/><stop offset=".72" stop-color="#ff9ecb" stop-opacity=".92"/><stop offset="1" stop-color="#ec60a4" stop-opacity=".85"/></radialGradient><radialGradient id="ch5" cx="0.34" cy="0.3" r="1"><stop offset="0" stop-color="#ffffff" stop-opacity=".95"/><stop offset=".26" stop-color="#e6ceff"/><stop offset=".72" stop-color="#d9b3ff" stop-opacity=".92"/><stop offset="1" stop-color="#a87aeb" stop-opacity=".85"/></radialGradient><radialGradient id="ch6" cx="0.34" cy="0.3" r="1"><stop offset="0" stop-color="#ffffff" stop-opacity=".95"/><stop offset=".26" stop-color="#ffc8e2"/><stop offset=".72" stop-color="#ffaad2" stop-opacity=".92"/><stop offset="1" stop-color="#f06eaf" stop-opacity=".85"/></radialGradient></defs><circle cx="352.0" cy="234" r="46" fill="url(#ch0)"/><ellipse cx="334.5" cy="214.7" rx="12" ry="7.4" fill="#ffffff" opacity=".85" transform="rotate(-30 334.5 214.7)"/><circle cx="365.8" cy="254.2" r="3.7" fill="#ffffff" opacity=".5"/><circle cx="1120.0" cy="396" r="28" fill="url(#ch1)"/><ellipse cx="1109.4" cy="384.2" rx="7.3" ry="4.5" fill="#ffffff" opacity=".85" transform="rotate(-30 1109.4 384.2)"/><circle cx="1128.4" cy="408.3" r="2.2" fill="#ffffff" opacity=".5"/><circle cx="1312.0" cy="684" r="56" fill="url(#ch2)"/><ellipse cx="1290.7" cy="660.5" rx="14.6" ry="9" fill="#ffffff" opacity=".85" transform="rotate(-30 1290.7 660.5)"/><circle cx="1328.8" cy="708.6" r="4.5" fill="#ffffff" opacity=".5"/><circle cx="576.0" cy="594" r="22" fill="url(#ch3)"/><ellipse cx="567.6" cy="584.8" rx="5.7" ry="3.5" fill="#ffffff" opacity=".85" transform="rotate(-30 567.6 584.8)"/><circle cx="582.6" cy="603.7" r="1.8" fill="#ffffff" opacity=".5"/><circle cx="816.0" cy="150" r="34" fill="url(#ch4)"/><ellipse cx="803.1" cy="135.7" rx="8.8" ry="5.4" fill="#ffffff" opacity=".85" transform="rotate(-30 803.1 135.7)"/><circle cx="826.2" cy="165" r="2.7" fill="#ffffff" opacity=".5"/><circle cx="192.0" cy="470" r="26" fill="url(#ch5)"/><ellipse cx="182.1" cy="459.1" rx="6.8" ry="4.2" fill="#ffffff" opacity=".85" transform="rotate(-30 182.1 459.1)"/><circle cx="199.8" cy="481.4" r="2.1" fill="#ffffff" opacity=".5"/><circle cx="960.0" cy="780" r="30" fill="url(#ch6)"/><ellipse cx="948.6" cy="767.4" rx="7.8" ry="4.8" fill="#ffffff" opacity=".85" transform="rotate(-30 948.6 767.4)"/><circle cx="969" cy="793.2" r="2.4" fill="#ffffff" opacity=".5"/></svg>