<svg xmlns="http://www.w3.org/2000/svg" viewBox="0 0 260 310"><defs><radialGradient id="sh" cx="0.36" cy="0.28" r="0.85"><stop offset="0" stop-color="#fff" stop-opacity=".55"/><stop offset=".22" stop-color="#fff" stop-opacity=".12"/><stop offset=".6" stop-color="#000" stop-opacity="0"/><stop offset="1" stop-color="#05060d" stop-opacity=".6"/></radialGradient></defs><rect x="128" y="0" width="4" height="20" rx="2" fill="#9aa3ba"/><circle cx="130" cy="26" r="7" fill="none" stroke="#aeb7cc" stroke-width="3.5"/><circle cx="130" cy="40" r="7" fill="none" stroke="#8f98b0" stroke-width="3.5"/><path d="M114 52 L146 52 L140 66 L120 66 Z" fill="#6d7590"/><circle cx="130" cy="176" r="108" fill="#10121d"/><polygon points="128.9,68.1 109.2,70.2 110.5,70.2 128.9,68.1" fill="#bcc1d0"/><polygon points="129,68.1 110.6,70.2 112.7,70.2 129,68.1" fill="#b1b7c6"/><polygon points="129.2,68.1 112.8,70.2 115.6,70.2 129.2,68.1" fill="#adb3c2"/><polygon points="129.3,68.1 115.8,70.2 119.2,70.2 129.3,68.1" fill="#81d4be"/><polygon points="129.5,68.1 119.4,70.2 123.3,70.2 129.5,68.1" fill="#d0d5e3"/><polygon points="129.8,68.1 123.5,70.2 127.7,70.2 129.8,68.1" fill="#c7cddb"/><polygon points="130,68.1 127.9,70.2 132.1,70.2 130,68.1" fill="#ced3e1"/><polygon points="130.2,68.1 132.3,70.2 136.5,70.2 130.2,68.1" fill="#b9becd"/><polygon points="130.5,68.1 136.7,70.2 140.6,70.2 130.5,68.1" fill="#6ec0ac"/><polygon points="130.7,68.1 140.8,70.2 144.2,70.2 130.7,68.1" fill="#a7acbc"/><polygon points="130.8,68.1 144.4,70.2 147.2,70.2 130.8,68.1" fill="#bfc4d3"/><polygon points="131,68.1 147.3,70.2 149.4,70.2 131,68.1" fill="#c1c6d5"/><polygon points="131.1,68.1 149.5,70.2 150.8,70.2 131.1,68.1" fill="#a5aab9"/><polygon points="106.5,70.7 87.1,76.9 88,76.9 106.9,70.7" fill="#d5dbe9"/><polygon points="107.1,70.7 88.2,76.9 90.7,76.9 108.4,70.7" fill="#dce1ef"/><polygon points="108.6,70.7 91,76.9 95.1,76.9 110.8,70.7" fill="#e0a2ca"/><polygon points="111.2,70.7 95.5,76.9 101.1,76.9 114,70.7" fill="#eed38c"/><polygon points="114.5,70.7 101.6,76.9 108.3,76.9 117.9,70.7" fill="#8cd2f6"/><polygon points="118.5,70.7 108.9,76.9 116.4,76.9 122.4,70.7" fill="#d1d7e4"/><polygon points="123.1,70.7 117.1,76.9 125.2,76.9 127.2,70.7" fill="#c3c9d7"/><polygon points="127.9,70.7 125.9,76.9 134.1,76.9 132.1,70.7" fill="#bfc5d4"/><polygon points="132.8,70.7 134.8,76.9 142.9,76.9 136.9,70.7" fill="#d7dcea"/><polygon points="137.6,70.7 143.6,76.9 151.1,76.9 141.5,70.7" fill="#72c4ae"/><polygon points="142.1,70.7 151.7,76.9 158.4,76.9 145.5,70.7" fill="#c9cfdd"/><polygon points="146,70.7 158.9,76.9 164.5,76.9 148.8,70.7" fill="#b5bac9"/><polygon points="149.2,70.7 164.9,76.9 169,76.9 151.4,70.7" fill="#6cb0d6"/><polygon points="151.6,70.7 169.3,76.9 171.8,76.9 152.9,70.7" fill="#6ec0aa"/><polygon points="153.1,70.7 172,76.9 172.9,76.9 153.5,70.7" fill="#8d92a2"/><polygon points="85.1,77.9 67.5,88 68.7,88 86,77.9" fill="#be98f0"/><polygon points="86.2,77.9 69,88 72.7,88 88.7,77.9" fill="#f5f6fa"/><polygon points="89.2,77.9 73.1,88 79.1,88 93.3,77.9" fill="#d4d9e7"/><polygon points="94,77.9 79.8,88 87.8,88 99.5,77.9" fill="#d2d8e6"/><polygon points="100.4,77.9 88.6,88 98.3,88 107.1,77.9" fill="#f5f7fa"/><polygon points="108,77.9 99.2,88 110.1,88 115.6,77.9" fill="#e7edfa"/><polygon points="116.7,77.9 111.2,88 122.9,88 124.7,77.9" fill="#d7ddeb"/><polygon points="125.9,77.9 124,88 136,88 134.1,77.9" fill="#d3d9e7"/><polygon points="135.3,77.9 137.1,88 148.8,88 143.3,77.9" fill="#d9dfed"/><polygon points="144.4,77.9 149.9,88 160.8,88 152,77.9" fill="#babfce"/><polygon points="152.9,77.9 161.7,88 171.4,88 159.6,77.9" fill="#a9aebe"/><polygon points="160.5,77.9 172.2,88 180.2,88 166,77.9" fill="#74c7b2"/><polygon points="166.7,77.9 180.9,88 186.9,88 170.8,77.9" fill="#a8aebd"/><polygon points="171.3,77.9 187.3,88 191,88 173.8,77.9" fill="#979cac"/><polygon points="174,77.9 191.3,88 192.5,88 174.9,77.9" fill="#8a90a0"/><polygon points="65.7,89.3 50.6,102.9 52.2,102.9 66.9,89.3" fill="#c3c8d7"/><polygon points="67.2,89.3 52.5,102.9 57.1,102.9 70.9,89.3" fill="#d5dae8"/><polygon points="71.5,89.3 57.8,102.9 65.3,102.9 77.5,89.3" fill="#f6f8fb"/><polygon points="78.4,89.3 66.2,102.9 76.3,102.9 86.4,89.3" fill="#fafbfe"/><polygon points="87.5,89.3 77.4,102.9 89.6,102.9 97.2,89.3" fill="#dce2f0"/><polygon points="98.5,89.3 90.9,102.9 104.7,102.9 109.4,89.3" fill="#86ccf0"/><polygon points="110.8,89.3 106.2,102.9 120.9,102.9 122.5,89.3" fill="#f3f5f8"/><polygon points="124,89.3 122.4,102.9 137.6,102.9 136,89.3" fill="#d2d7e5"/><polygon points="137.5,89.3 139.1,102.9 153.8,102.9 149.2,89.3" fill="#c1c6d5"/><polygon points="150.6,89.3 155.3,102.9 169.1,102.9 161.5,89.3" fill="#c3c9d7"/><polygon points="162.8,89.3 170.4,102.9 182.6,102.9 172.5,89.3" fill="#bcc1d0"/><polygon points="173.6,89.3 183.7,102.9 193.8,102.9 181.6,89.3" fill="#a2a8b7"/><polygon points="182.5,89.3 194.7,102.9 202.2,102.9 188.5,89.3" fill="#868b9c"/><polygon points="189.1,89.3 202.9,102.9 207.5,102.9 192.8,89.3" fill="#b2749e"/><polygon points="193.1,89.3 207.8,102.9 209.4,102.9 194.3,89.3" fill="#585d6f"/><polygon points="49.1,104.6 37.1,121.1 39,121.1 50.7,104.6" fill="#d3d9e7"/><polygon points="51,104.6 39.4,121.1 44.8,121.1 55.7,104.6" fill="#d3d9e7"/><polygon points="56.4,104.6 45.5,121.1 54.3,121.1 64,104.6" fill="#e2f6f1"/><polygon points="65.1,104.6 55.4,121.1 67.2,121.1 75.2,104.6" fill="#f9fafe"/><polygon points="76.5,104.6 68.5,121.1 82.8,121.1 88.7,104.6" fill="#fafbfe"/><polygon points="90.3,104.6 84.4,121.1 100.4,121.1 104.1,104.6" fill="#e3f8f2"/><polygon points="105.9,104.6 102.2,121.1 119.4,121.1 120.6,104.6" fill="#f9fbfe"/><polygon points="122.4,104.6 121.2,121.1 138.8,121.1 137.6,104.6" fill="#d5dae8"/><polygon points="139.4,104.6 140.6,121.1 157.8,121.1 154.1,104.6" fill="#ccd2e0"/><polygon points="155.9,104.6 159.6,121.1 175.6,121.1 169.7,104.6" fill="#aeb3c2"/><polygon points="171.3,104.6 177.2,121.1 191.5,121.1 183.5,104.6" fill="#a8aebd"/><polygon points="184.8,104.6 192.8,121.1 204.6,121.1 194.9,104.6" fill="#7c8192"/><polygon points="196,104.6 205.7,121.1 214.5,121.1 203.6,104.6" fill="#797e8f"/><polygon points="204.3,104.6 215.2,121.1 220.6,121.1 209,104.6" fill="#488db4"/><polygon points="209.3,104.6 221,121.1 222.9,121.1 210.9,104.6" fill="#303548"/><polygon points="36,123 27.7,141.6 29.8,141.6 37.8,123" fill="#6fc2ac"/><polygon points="38.3,123 30.2,141.6 36.2,141.6 43.7,123" fill="#c9cedc"/><polygon points="44.6,123 37,141.6 46.7,141.6 53.4,123" fill="#f0f2f5"/><polygon points="54.6,123 47.9,141.6 60.8,141.6 66.3,123" fill="#cbd1df"/><polygon points="67.9,123 62.3,141.6 78,141.6 82.1,123" fill="#fafbfe"/><polygon points="83.9,123 79.8,141.6 97.4,141.6 100,123" fill="#f4f6f9"/><polygon points="101.9,123 99.4,141.6 118.3,141.6 119.1,123" fill="#f7e7f2"/><polygon points="121.2,123 120.3,141.6 139.7,141.6 138.8,123" fill="#cbd1df"/><polygon points="140.9,123 141.7,141.6 160.6,141.6 158.1,123" fill="#c1c7d5"/><polygon points="160,123 162.6,141.6 180.2,141.6 176.1,123" fill="#a9afbe"/><polygon points="177.9,123 182,141.6 197.7,141.6 192.1,123" fill="#cb8cb6"/><polygon points="193.7,123 199.2,141.6 212.1,141.6 205.4,123" fill="#787d8e"/><polygon points="206.6,123 213.3,141.6 223,141.6 215.4,123" fill="#696d7f"/><polygon points="216.3,123 223.8,141.6 229.8,141.6 221.7,123" fill="#32374a"/><polygon points="222.2,123 230.2,141.6 232.3,141.6 224,123" fill="#282c40"/><polygon points="27.1,143.7 22.8,163.6 24.9,163.6 29.1,143.7" fill="#69aed4"/><polygon points="29.5,143.7 25.4,163.6 31.6,163.6 35.5,143.7" fill="#cad0de"/><polygon points="36.4,143.7 32.5,163.6 42.6,163.6 46.1,143.7" fill="#d5dbe8"/><polygon points="47.4,143.7 43.9,163.6 57.5,163.6 60.3,143.7" fill="#dee4f1"/><polygon points="61.9,143.7 59.1,163.6 75.5,163.6 77.6,143.7" fill="#cbd1df"/><polygon points="79.5,143.7 77.4,163.6 95.8,163.6 97.1,143.7" fill="#cfd5e3"/><polygon points="99.2,143.7 97.9,163.6 117.7,163.6 118.1,143.7" fill="#c4cad8"/><polygon points="120.3,143.7 119.9,163.6 140.1,163.6 139.7,143.7" fill="#bac0ce"/><polygon points="141.9,143.7 142.3,163.6 162.1,163.6 160.8,143.7" fill="#a8aebd"/><polygon points="162.9,143.7 164.2,163.6 182.6,163.6 180.5,143.7" fill="#8e93a3"/><polygon points="182.4,143.7 184.5,163.6 200.9,163.6 198.1,143.7" fill="#7c8192"/><polygon points="199.7,143.7 202.5,163.6 216.1,163.6 212.6,143.7" fill="#64697a"/><polygon points="213.9,143.7 217.4,163.6 227.5,163.6 223.6,143.7" fill="#2b3043"/><polygon points="224.5,143.7 228.4,163.6 234.6,163.6 230.5,143.7" fill="#282c40"/><polygon points="230.9,143.7 235.1,163.6 237.2,163.6 232.9,143.7" fill="#282c40"/><polygon points="22.6,165.8 22.6,186.2 24.7,186.2 24.7,165.8" fill="#9da2b2"/><polygon points="25.2,165.8 25.2,186.2 31.4,186.2 31.4,165.8" fill="#989dad"/><polygon points="32.3,165.8 32.3,186.2 42.4,186.2 42.4,165.8" fill="#6fc2ac"/><polygon points="43.8,165.8 43.8,186.2 57.3,186.2 57.3,165.8" fill="#afb5c4"/><polygon points="59,165.8 59,186.2 75.3,186.2 75.3,165.8" fill="#c7cddb"/><polygon points="77.3,165.8 77.3,186.2 95.7,186.2 95.7,165.8" fill="#a8adbc"/><polygon points="97.9,165.8 97.9,186.2 117.7,186.2 117.7,165.8" fill="#a8adbd"/><polygon points="119.9,165.8 119.9,186.2 140.1,186.2 140.1,165.8" fill="#969bab"/><polygon points="142.3,165.8 142.3,186.2 162.1,186.2 162.1,165.8" fill="#9398a8"/><polygon points="164.3,165.8 164.3,186.2 182.7,186.2 182.7,165.8" fill="#787c8d"/><polygon points="184.7,165.8 184.7,186.2 201,186.2 201,165.8" fill="#5a5f71"/><polygon points="202.7,165.8 202.7,186.2 216.2,186.2 216.2,165.8" fill="#494d60"/><polygon points="217.6,165.8 217.6,186.2 227.7,186.2 227.7,165.8" fill="#282c40"/><polygon points="228.6,165.8 228.6,186.2 234.8,186.2 234.8,165.8" fill="#282c40"/><polygon points="235.3,165.8 235.3,186.2 237.4,186.2 237.4,165.8" fill="#282c40"/><polygon points="22.8,188.4 27.1,208.3 29.1,208.3 24.9,188.4" fill="#7b8091"/><polygon points="25.4,188.4 29.5,208.3 35.5,208.3 31.6,188.4" fill="#7a7e8f"/><polygon points="32.5,188.4 36.4,208.3 46.1,208.3 42.6,188.4" fill="#a2a8b7"/><polygon points="43.9,188.4 47.4,208.3 60.3,208.3 57.5,188.4" fill="#9ea3b3"/><polygon points="59.1,188.4 61.9,208.3 77.6,208.3 75.5,188.4" fill="#9ea3b3"/><polygon points="77.4,188.4 79.5,208.3 97.1,208.3 95.8,188.4" fill="#8f94a4"/><polygon points="97.9,188.4 99.2,208.3 118.1,208.3 117.7,188.4" fill="#979cac"/><polygon points="119.9,188.4 120.3,208.3 139.7,208.3 140.1,188.4" fill="#9aa0af"/><polygon points="142.3,188.4 141.9,208.3 160.8,208.3 162.1,188.4" fill="#686d7e"/><polygon points="164.2,188.4 162.9,208.3 180.5,208.3 182.6,188.4" fill="#8660b9"/><polygon points="184.5,188.4 182.4,208.3 198.1,208.3 200.9,188.4" fill="#4286ae"/><polygon points="202.5,188.4 199.7,208.3 212.6,208.3 216.1,188.4" fill="#282c40"/><polygon points="217.4,188.4 213.9,208.3 223.6,208.3 227.5,188.4" fill="#282c40"/><polygon points="228.4,188.4 224.5,208.3 230.5,208.3 234.6,188.4" fill="#282c40"/><polygon points="235.1,188.4 230.9,208.3 232.9,208.3 237.2,188.4" fill="#282c40"/><polygon points="27.7,210.4 36,229 37.8,229 29.8,210.4" fill="#4e5265"/><polygon points="30.2,210.4 38.3,229 43.7,229 36.2,210.4" fill="#4c9e8a"/><polygon points="37,210.4 44.6,229 53.4,229 46.7,210.4" fill="#848999"/><polygon points="47.9,210.4 54.6,229 66.3,229 60.8,210.4" fill="#838898"/><polygon points="62.3,210.4 67.9,229 82.1,229 78,210.4" fill="#6e7384"/><polygon points="79.8,210.4 83.9,229 100,229 97.4,210.4" fill="#787d8e"/><polygon points="99.4,210.4 101.9,229 119.1,229 118.3,210.4" fill="#787d8e"/><polygon points="120.3,210.4 121.2,229 138.8,229 139.7,210.4" fill="#686c7e"/><polygon points="141.7,210.4 140.9,229 158.1,229 160.6,210.4" fill="#855eb8"/><polygon points="162.6,210.4 160,229 176.1,229 180.2,210.4" fill="#2d3145"/><polygon points="182,210.4 177.9,229 192.1,229 197.7,210.4" fill="#282c40"/><polygon points="199.2,210.4 193.7,229 205.4,229 212.1,210.4" fill="#2e806c"/><polygon points="213.3,210.4 206.6,229 215.4,229 223,210.4" fill="#282c40"/><polygon points="223.8,210.4 216.3,229 221.7,229 229.8,210.4" fill="#328470"/><polygon points="230.2,210.4 222.2,229 224,229 232.3,210.4" fill="#282c40"/><polygon points="37.1,230.9 49.1,247.4 50.7,247.4 39,230.9" fill="#2a2e42"/><polygon points="39.4,230.9 51,247.4 55.7,247.4 44.8,230.9" fill="#2a2e41"/><polygon points="45.5,230.9 56.4,247.4 64,247.4 54.3,230.9" fill="#373b4e"/><polygon points="55.4,230.9 65.1,247.4 75.2,247.4 67.2,230.9" fill="#5b6072"/><polygon points="68.5,230.9 76.5,247.4 88.7,247.4 82.8,230.9" fill="#4e94ba"/><polygon points="84.4,230.9 90.3,247.4 104.1,247.4 100.4,230.9" fill="#5e6375"/><polygon points="102.2,230.9 105.9,247.4 120.6,247.4 119.4,230.9" fill="#515668"/><polygon points="121.2,230.9 122.4,247.4 137.6,247.4 138.8,230.9" fill="#454a5c"/><polygon points="140.6,230.9 139.4,247.4 154.1,247.4 157.8,230.9" fill="#282c40"/><polygon points="159.6,230.9 155.9,247.4 169.7,247.4 175.6,230.9" fill="#2c3044"/><polygon points="177.2,230.9 171.3,247.4 183.5,247.4 191.5,230.9" fill="#927633"/><polygon points="192.8,230.9 184.8,247.4 194.9,247.4 204.6,230.9" fill="#282c40"/><polygon points="205.7,230.9 196,247.4 203.6,247.4 214.5,230.9" fill="#282c40"/><polygon points="215.2,230.9 204.3,247.4 209,247.4 220.6,230.9" fill="#282c40"/><polygon points="221,230.9 209.3,247.4 210.9,247.4 222.9,230.9" fill="#282c40"/><polygon points="50.6,249.1 65.7,262.7 66.9,262.7 52.2,249.1" fill="#282c40"/><polygon points="52.5,249.1 67.2,262.7 70.9,262.7 57.1,249.1" fill="#282c40"/><polygon points="57.8,249.1 71.5,262.7 77.5,262.7 65.3,249.1" fill="#282c40"/><polygon points="66.2,249.1 78.4,262.7 86.4,262.7 76.3,249.1" fill="#282c40"/><polygon points="77.4,249.1 87.5,262.7 97.2,262.7 89.6,249.1" fill="#282c40"/><polygon points="90.9,249.1 98.5,262.7 109.4,262.7 104.7,249.1" fill="#282c40"/><polygon points="106.2,249.1 110.8,262.7 122.5,262.7 120.9,249.1" fill="#282c40"/><polygon points="122.4,249.1 124,262.7 136,262.7 137.6,249.1" fill="#282c40"/><polygon points="139.1,249.1 137.5,262.7 149.2,262.7 153.8,249.1" fill="#282c40"/><polygon points="155.3,249.1 150.6,262.7 161.5,262.7 169.1,249.1" fill="#282c40"/><polygon points="170.4,249.1 162.8,262.7 172.5,262.7 182.6,249.1" fill="#2e3246"/><polygon points="183.7,249.1 173.6,262.7 181.6,262.7 193.8,249.1" fill="#282c40"/><polygon points="194.7,249.1 182.5,262.7 188.5,262.7 202.2,249.1" fill="#30749c"/><polygon points="202.9,249.1 189.1,262.7 192.8,262.7 207.5,249.1" fill="#282c40"/><polygon points="207.8,249.1 193.1,262.7 194.3,262.7 209.4,249.1" fill="#282c40"/><polygon points="67.5,264 85.1,274.1 86,274.1 68.7,264" fill="#282c40"/><polygon points="69,264 86.2,274.1 88.7,274.1 72.7,264" fill="#282c40"/><polygon points="73.1,264 89.2,274.1 93.3,274.1 79.1,264" fill="#282c40"/><polygon points="79.8,264 94,274.1 99.5,274.1 87.8,264" fill="#282c40"/><polygon points="88.6,264 100.4,274.1 107.1,274.1 98.3,264" fill="#282c40"/><polygon points="99.2,264 108,274.1 115.6,274.1 110.1,264" fill="#282c40"/><polygon points="111.2,264 116.7,274.1 124.7,274.1 122.9,264" fill="#282c40"/><polygon points="124,264 125.9,274.1 134.1,274.1 136,264" fill="#282c40"/><polygon points="137.1,264 135.3,274.1 143.3,274.1 148.8,264" fill="#282c40"/><polygon points="149.9,264 144.4,274.1 152,274.1 160.8,264" fill="#282c40"/><polygon points="161.7,264 152.9,274.1 159.6,274.1 171.4,264" fill="#282c40"/><polygon points="172.2,264 160.5,274.1 166,274.1 180.2,264" fill="#282c40"/><polygon points="180.9,264 166.7,274.1 170.8,274.1 186.9,264" fill="#282c40"/><polygon points="187.3,264 171.3,274.1 173.8,274.1 191,264" fill="#282c40"/><polygon points="191.3,264 174,274.1 174.9,274.1 192.5,264" fill="#282c40"/><polygon points="87.1,275.1 106.5,281.3 106.9,281.3 88,275.1" fill="#282c40"/><polygon points="88.2,275.1 107.1,281.3 108.4,281.3 90.7,275.1" fill="#282c40"/><polygon points="91,275.1 108.6,281.3 110.8,281.3 95.1,275.1" fill="#292d41"/><polygon points="95.5,275.1 111.2,281.3 114,281.3 101.1,275.1" fill="#8e4f7b"/><polygon points="101.6,275.1 114.5,281.3 117.9,281.3 108.3,275.1" fill="#292d41"/><polygon points="108.9,275.1 118.5,281.3 122.4,281.3 116.4,275.1" fill="#927632"/><polygon points="117.1,275.1 123.1,281.3 127.2,281.3 125.2,275.1" fill="#282c40"/><polygon points="125.9,275.1 127.9,281.3 132.1,281.3 134.1,275.1" fill="#282c40"/><polygon points="134.8,275.1 132.8,281.3 136.9,281.3 142.9,275.1" fill="#303447"/><polygon points="143.6,275.1 137.6,281.3 141.5,281.3 151.1,275.1" fill="#282c40"/><polygon points="151.7,275.1 142.1,281.3 145.5,281.3 158.4,275.1" fill="#282c40"/><polygon points="158.9,275.1 146,281.3 148.8,281.3 164.5,275.1" fill="#927632"/><polygon points="164.9,275.1 149.2,281.3 151.4,281.3 169,275.1" fill="#282c40"/><polygon points="169.3,275.1 151.6,281.3 152.9,281.3 171.8,275.1" fill="#282c40"/><polygon points="172,275.1 153.1,281.3 153.5,281.3 172.9,275.1" fill="#282c40"/><polygon points="109.2,281.8 128.9,283.9 128.9,283.9 110.5,281.8" fill="#282c40"/><polygon points="110.6,281.8 129,283.9 129,283.9 112.7,281.8" fill="#282c40"/><polygon points="112.8,281.8 129.2,283.9 129.2,283.9 115.6,281.8" fill="#2c3044"/><polygon points="115.8,281.8 129.3,283.9 129.3,283.9 119.2,281.8" fill="#282c40"/><polygon points="119.4,281.8 129.5,283.9 129.5,283.9 123.3,281.8" fill="#282c40"/><polygon points="123.5,281.8 129.8,283.9 129.8,283.9 127.7,281.8" fill="#282c40"/><polygon points="127.9,281.8 130,283.9 130,283.9 132.1,281.8" fill="#282c40"/><polygon points="132.3,281.8 130.2,283.9 130.2,283.9 136.5,281.8" fill="#282c40"/><polygon points="136.7,281.8 130.5,283.9 130.5,283.9 140.6,281.8" fill="#282c40"/><polygon points="140.8,281.8 130.7,283.9 130.7,283.9 144.2,281.8" fill="#282c40"/><polygon points="144.4,281.8 130.8,283.9 130.8,283.9 147.2,281.8" fill="#282c40"/><polygon points="147.3,281.8 131,283.9 131,283.9 149.4,281.8" fill="#282c40"/><polygon points="149.5,281.8 131.1,283.9 131.1,283.9 150.8,281.8" fill="#282c40"/><circle cx="130" cy="176" r="108" fill="url(#sh)"/><circle cx="130" cy="176" r="108" fill="none" stroke="#c6cfeb" stroke-opacity=".4" stroke-width="1.6"/><g opacity="0" transform="translate(108.9 86.2)"><rect x="-9" y="-1" width="18" height="2" rx="1" fill="#fff"/><rect x="-1" y="-9" width="2" height="18" rx="1" fill="#fff"/><circle r="2.4" fill="#fff"/><animate attributeName="opacity" values="0;1;0" dur="2.2s" begin="0.0s" repeatCount="indefinite"/></g><g opacity="0" transform="translate(130 86.2)"><rect x="-9" y="-1" width="18" height="2" rx="1" fill="#fff"/><rect x="-1" y="-9" width="2" height="18" rx="1" fill="#fff"/><circle r="2.4" fill="#fff"/><animate attributeName="opacity" values="0;1;0" dur="2.9000000000000004s" begin="0.9s" repeatCount="indefinite"/></g><g opacity="0" transform="translate(160.5 86.2)"><rect x="-9" y="-1" width="18" height="2" rx="1" fill="#fff"/><rect x="-1" y="-9" width="2" height="18" rx="1" fill="#fff"/><circle r="2.4" fill="#fff"/><animate attributeName="opacity" values="0;1;0" dur="3.6s" begin="1.8s" repeatCount="indefinite"/></g><g opacity="0" transform="translate(130 115.1)"><rect x="-9" y="-1" width="18" height="2" rx="1" fill="#fff"/><rect x="-1" y="-9" width="2" height="18" rx="1" fill="#fff"/><circle r="2.4" fill="#fff"/><animate attributeName="opacity" values="0;1;0" dur="4.3s" begin="2.7s" repeatCount="indefinite"/></g><g opacity="0" transform="translate(54.6 154.4)"><rect x="-9" y="-1" width="18" height="2" rx="1" fill="#fff"/><rect x="-1" y="-9" width="2" height="18" rx="1" fill="#fff"/><circle r="2.4" fill="#fff"/><animate attributeName="opacity" values="0;1;0" dur="5.0s" begin="3.6s" repeatCount="indefinite"/></g></svg>