<svg xmlns="http://www.w3.org/2000/svg" viewBox="0 0 500 900"><defs><radialGradient id="g0" cx="0.35" cy="0.3" r="1.05"><stop offset="0" stop-color="#fdbfc8"/><stop offset=".45" stop-color="#fb7185"/><stop offset="1" stop-color="#be123c"/></radialGradient><radialGradient id="g1" cx="0.35" cy="0.3" r="1.05"><stop offset="0" stop-color="#a5e1fc"/><stop offset=".45" stop-color="#38bdf8"/><stop offset="1" stop-color="#0369a1"/></radialGradient><radialGradient id="g2" cx="0.35" cy="0.3" r="1.05"><stop offset="0" stop-color="#d8b2fb"/><stop offset=".45" stop-color="#a855f7"/><stop offset="1" stop-color="#6b21a8"/></radialGradient><radialGradient id="g3" cx="0.35" cy="0.3" r="1.05"><stop offset="0" stop-color="#fde29c"/><stop offset=".45" stop-color="#fbbf24"/><stop offset="1" stop-color="#b45309"/></radialGradient><radialGradient id="g4" cx="0.35" cy="0.3" r="1.05"><stop offset="0" stop-color="#a4ebd1"/><stop offset=".45" stop-color="#34d399"/><stop offset="1" stop-color="#047857"/></radialGradient></defs><path d="M90 285 c9 16 -12 30 -4 48 c6 14 -8 24 -3 42" fill="none" stroke="#ffffff" stroke-opacity=".5" stroke-width="1.6"/><g transform="rotate(-6 90 216)"><ellipse cx="90" cy="216" rx="50" ry="62" fill="url(#g0)"/><ellipse cx="73" cy="192.4" rx="15" ry="12.4" fill="#ffffff" opacity=".6" transform="rotate(-28 73 192.4)"/><path d="M84 285 L90 276 L96 285 Z" fill="#be123c"/></g><path d="M390 209 c9 16 -12 30 -4 48 c6 14 -8 24 -3 42" fill="none" stroke="#ffffff" stroke-opacity=".5" stroke-width="1.6"/><g transform="rotate(5 390 144)"><ellipse cx="390" cy="144" rx="46" ry="58" fill="url(#g1)"/><ellipse cx="374.4" cy="122" rx="13.8" ry="11.6" fill="#ffffff" opacity=".6" transform="rotate(-28 374.4 122)"/><path d="M384 209 L390 200 L396 209 Z" fill="#0369a1"/></g><path d="M40 619 c9 16 -12 30 -4 48 c6 14 -8 24 -3 42" fill="none" stroke="#ffffff" stroke-opacity=".5" stroke-width="1.6"/><g transform="rotate(-5 40 558)"><ellipse cx="40" cy="558" rx="42" ry="54" fill="url(#g2)"/><ellipse cx="25.7" cy="537.5" rx="12.6" ry="10.8" fill="#ffffff" opacity=".6" transform="rotate(-28 25.7 537.5)"/><path d="M34 619 L40 610 L46 619 Z" fill="#6b21a8"/></g><path d="M450 585 c9 16 -12 30 -4 48 c6 14 -8 24 -3 42" fill="none" stroke="#ffffff" stroke-opacity=".5" stroke-width="1.6"/><g transform="rotate(6 450 522)"><ellipse cx="450" cy="522" rx="44" ry="56" fill="url(#g3)"/><ellipse cx="435" cy="500.7" rx="13.2" ry="11.2" fill="#ffffff" opacity=".6" transform="rotate(-28 435 500.7)"/><path d="M444 585 L450 576 L456 585 Z" fill="#b45309"/></g><path d="M282 811 c9 16 -12 30 -4 48 c6 14 -8 24 -3 42" fill="none" stroke="#ffffff" stroke-opacity=".5" stroke-width="1.6"/><g transform="rotate(-4 282 756)"><ellipse cx="282" cy="756" rx="38" ry="48" fill="url(#g4)"/><ellipse cx="269.1" cy="737.8" rx="11.4" ry="9.6" fill="#ffffff" opacity=".6" transform="rotate(-28 269.1 737.8)"/><path d="M276 811 L282 802 L288 811 Z" fill="#047857"/></g></svg>