<svg xmlns="http://www.w3.org/2000/svg" viewBox="0 0 1600 900"><defs><radialGradient id="g0" cx="0.35" cy="0.3" r="1.05"><stop offset="0" stop-color="#fdbfc8"/><stop offset=".45" stop-color="#fb7185"/><stop offset="1" stop-color="#be123c"/></radialGradient><radialGradient id="g1" cx="0.35" cy="0.3" r="1.05"><stop offset="0" stop-color="#a5e1fc"/><stop offset=".45" stop-color="#38bdf8"/><stop offset="1" stop-color="#0369a1"/></radialGradient><radialGradient id="g2" cx="0.35" cy="0.3" r="1.05"><stop offset="0" stop-color="#d8b2fb"/><stop offset=".45" stop-color="#a855f7"/><stop offset="1" stop-color="#6b21a8"/></radialGradient><radialGradient id="g3" cx="0.35" cy="0.3" r="1.05"><stop offset="0" stop-color="#fde29c"/><stop offset=".45" stop-color="#fbbf24"/><stop offset="1" stop-color="#b45309"/></radialGradient><radialGradient id="g4" cx="0.35" cy="0.3" r="1.05"><stop offset="0" stop-color="#a4ebd1"/><stop offset=".45" stop-color="#34d399"/><stop offset="1" stop-color="#047857"/></radialGradient><radialGradient id="g5" cx="0.35" cy="0.3" r="1.05"><stop offset="0" stop-color="#9cebf7"/><stop offset=".45" stop-color="#22d3ee"/><stop offset="1" stop-color="#08668a"/></radialGradient><radialGradient id="g6" cx="0.35" cy="0.3" r="1.05"><stop offset="0" stop-color="#fdcea7"/><stop offset=".45" stop-color="#fb923c"/><stop offset="1" stop-color="#9a3412"/></radialGradient></defs><path d="M288 285 c9 16 -12 30 -4 48 c6 14 -8 24 -3 42" fill="none" stroke="#ffffff" stroke-opacity=".5" stroke-width="1.6"/><g transform="rotate(-6 288.0 216)"><ellipse cx="288.0" cy="216" rx="50" ry="62" fill="url(#g0)"/><ellipse cx="271" cy="192.4" rx="15" ry="12.4" fill="#ffffff" opacity=".6" transform="rotate(-28 271 192.4)"/><path d="M282 285 L288 276 L294 285 Z" fill="#be123c"/></g><path d="M1248 209 c9 16 -12 30 -4 48 c6 14 -8 24 -3 42" fill="none" stroke="#ffffff" stroke-opacity=".5" stroke-width="1.6"/><g transform="rotate(5 1248.0 144)"><ellipse cx="1248.0" cy="144" rx="46" ry="58" fill="url(#g1)"/><ellipse cx="1232.4" cy="122" rx="13.8" ry="11.6" fill="#ffffff" opacity=".6" transform="rotate(-28 1232.4 122)"/><path d="M1242 209 L1248 200 L1254 209 Z" fill="#0369a1"/></g><path d="M128 619 c9 16 -12 30 -4 48 c6 14 -8 24 -3 42" fill="none" stroke="#ffffff" stroke-opacity=".5" stroke-width="1.6"/><g transform="rotate(-5 128.0 558)"><ellipse cx="128.0" cy="558" rx="42" ry="54" fill="url(#g2)"/><ellipse cx="113.7" cy="537.5" rx="12.6" ry="10.8" fill="#ffffff" opacity=".6" transform="rotate(-28 113.7 537.5)"/><path d="M122 619 L128 610 L134 619 Z" fill="#6b21a8"/></g><path d="M1440 585 c9 16 -12 30 -4 48 c6 14 -8 24 -3 42" fill="none" stroke="#ffffff" stroke-opacity=".5" stroke-width="1.6"/><g transform="rotate(6 1440.0 522)"><ellipse cx="1440.0" cy="522" rx="44" ry="56" fill="url(#g3)"/><ellipse cx="1425" cy="500.7" rx="13.2" ry="11.2" fill="#ffffff" opacity=".6" transform="rotate(-28 1425 500.7)"/><path d="M1434 585 L1440 576 L1446 585 Z" fill="#b45309"/></g><path d="M902.4 811 c9 16 -12 30 -4 48 c6 14 -8 24 -3 42" fill="none" stroke="#ffffff" stroke-opacity=".5" stroke-width="1.6"/><g transform="rotate(-4 902.4 756)"><ellipse cx="902.4" cy="756" rx="38" ry="48" fill="url(#g4)"/><ellipse cx="889.5" cy="737.8" rx="11.4" ry="9.6" fill="#ffffff" opacity=".6" transform="rotate(-28 889.5 737.8)"/><path d="M896.4 811 L902.4 802 L908.4 811 Z" fill="#047857"/></g><path d="M752 453 c9 16 -12 30 -4 48 c6 14 -8 24 -3 42" fill="none" stroke="#ffffff" stroke-opacity=".5" stroke-width="1.6"/><g transform="rotate(4 752.0 396)"><ellipse cx="752.0" cy="396" rx="40" ry="50" fill="url(#g5)"/><ellipse cx="738.4" cy="377" rx="12" ry="10" fill="#ffffff" opacity=".6" transform="rotate(-28 738.4 377)"/><path d="M746 453 L752 444 L758 453 Z" fill="#08668a"/></g><path d="M528 693 c9 16 -12 30 -4 48 c6 14 -8 24 -3 42" fill="none" stroke="#ffffff" stroke-opacity=".5" stroke-width="1.6"/><g transform="rotate(-5 528.0 640)"><ellipse cx="528.0" cy="640" rx="36" ry="46" fill="url(#g6)"/><ellipse cx="515.8" cy="622.5" rx="10.8" ry="9.2" fill="#ffffff" opacity=".6" transform="rotate(-28 515.8 622.5)"/><path d="M522 693 L528 684 L534 693 Z" fill="#9a3412"/></g></svg>