<svg xmlns="http://www.w3.org/2000/svg" viewBox="0 0 200 200"><defs><radialGradient id="halo" cx="0.5" cy="0.5" r="0.5"><stop offset=".62" stop-color="#cfe0ff" stop-opacity=".38"/><stop offset="1" stop-color="#bed7ff" stop-opacity="0"/></radialGradient><radialGradient id="cara" cx="0.38" cy="0.34" r="0.9"><stop offset="0" stop-color="#ffffff"/><stop offset=".72" stop-color="#fdfeff"/><stop offset="1" stop-color="#e2ebf9"/></radialGradient></defs><circle cx="100" cy="100" r="98" fill="url(#halo)"/><circle cx="100" cy="100" r="66" fill="url(#cara)"/><ellipse cx="82" cy="86" rx="26" ry="18" fill="#c3d2ec" opacity=".35"/><ellipse cx="118" cy="118" rx="20" ry="14" fill="#c3d2ec" opacity=".3"/><circle cx="100.4" cy="105" r="6.4" fill="#b7c8e6" opacity=".55"/><circle cx="99.3" cy="103.9" r="4.6" fill="#a9bcde" opacity=".5"/><circle cx="134" cy="80.7" r="5.9" fill="#b7c8e6" opacity=".55"/><circle cx="133" cy="79.7" r="4.2" fill="#a9bcde" opacity=".5"/><circle cx="104.6" cy="125.8" r="4.5" fill="#b7c8e6" opacity=".55"/><circle cx="103.8" cy="125" r="3.2" fill="#a9bcde" opacity=".5"/><circle cx="75" cy="74.4" r="6.6" fill="#b7c8e6" opacity=".55"/><circle cx="73.9" cy="73.2" r="4.8" fill="#a9bcde" opacity=".5"/><circle cx="88.3" cy="78.2" r="4" fill="#b7c8e6" opacity=".55"/><circle cx="87.6" cy="77.5" r="2.9" fill="#a9bcde" opacity=".5"/><circle cx="117.7" cy="80" r="4.6" fill="#b7c8e6" opacity=".55"/><circle cx="116.9" cy="79.2" r="3.3" fill="#a9bcde" opacity=".5"/><circle cx="86.5" cy="137.3" r="2.7" fill="#b7c8e6" opacity=".55"/><circle cx="86" cy="136.8" r="1.9" fill="#a9bcde" opacity=".5"/><circle cx="129.3" cy="108.8" r="4.2" fill="#b7c8e6" opacity=".55"/><circle cx="128.5" cy="108" r="3" fill="#a9bcde" opacity=".5"/><circle cx="100" cy="100" r="66" fill="none" stroke="#ffffff" stroke-opacity=".5" stroke-width="1.2"/></svg>