<svg xmlns="http://www.w3.org/2000/svg" viewBox="0 0 500 900"><g fill="#cfe0f6" opacity=".85"><circle cx="40" cy="209.5" r="29.5"/><circle cx="72.5" cy="196.7" r="41.9"/><circle cx="105" cy="186.8" r="50.3"/><circle cx="135" cy="199.3" r="37.9"/><circle cx="167.5" cy="212.1" r="25.5"/><ellipse cx="105" cy="224" rx="87.5" ry="26"/></g><g fill="#ffffff"><circle cx="40" cy="198.5" r="29.5"/><circle cx="72.5" cy="185.7" r="41.9"/><circle cx="105" cy="175.8" r="50.3"/><circle cx="135" cy="188.3" r="37.9"/><circle cx="167.5" cy="201.1" r="25.5"/><ellipse cx="105" cy="212" rx="90" ry="27.5"/></g><g fill="#cfe0f6" opacity=".85"><circle cx="275.4" cy="400.4" r="24.2"/><circle cx="302.7" cy="391" r="32.7"/><circle cx="330" cy="379" r="44.8"/><circle cx="355.2" cy="390.7" r="32.7"/><circle cx="382.5" cy="399.2" r="25.5"/><ellipse cx="330" cy="412.1" rx="73.5" ry="21.8"/></g><g fill="#ffffff"><circle cx="275.4" cy="391.2" r="24.2"/><circle cx="302.7" cy="381.8" r="32.7"/><circle cx="330" cy="369.7" r="44.8"/><circle cx="355.2" cy="381.5" r="32.7"/><circle cx="382.5" cy="390" r="25.5"/><ellipse cx="330" cy="402" rx="75.6" ry="23.1"/></g><g fill="#cfe0f6" opacity=".85"><circle cx="153.6" cy="607.9" r="14.8"/><circle cx="171.8" cy="599.5" r="23.4"/><circle cx="190" cy="592.8" r="29.7"/><circle cx="206.8" cy="600.3" r="22"/><circle cx="225" cy="606.7" r="16.2"/><ellipse cx="190" cy="614.7" rx="49" ry="14.6"/></g><g fill="#ffffff"><circle cx="153.6" cy="601.7" r="14.8"/><circle cx="171.8" cy="593.4" r="23.4"/><circle cx="190" cy="586.6" r="29.7"/><circle cx="206.8" cy="594.2" r="22"/><circle cx="225" cy="600.6" r="16.2"/><ellipse cx="190" cy="608" rx="50.4" ry="15.4"/></g><g fill="#cfe0f6" opacity=".85"><circle cx="403.4" cy="701.1" r="12.7"/><circle cx="417.7" cy="697" r="16.1"/><circle cx="432" cy="690.7" r="22.5"/><circle cx="445.2" cy="694.9" r="18.8"/><circle cx="459.5" cy="701.5" r="12"/><ellipse cx="432" cy="707.3" rx="38.5" ry="11.4"/></g><g fill="#ffffff"><circle cx="403.4" cy="696.3" r="12.7"/><circle cx="417.7" cy="692.1" r="16.1"/><circle cx="432" cy="685.8" r="22.5"/><circle cx="445.2" cy="690.1" r="18.8"/><circle cx="459.5" cy="696.7" r="12"/><ellipse cx="432" cy="702" rx="39.6" ry="12.1"/></g></svg>