<svg xmlns="http://www.w3.org/2000/svg" viewBox="0 0 1600 900"><g fill="#cfe0f6" opacity=".85"><circle cx="271" cy="209.5" r="29.5"/><circle cx="303.5" cy="196.7" r="41.9"/><circle cx="336" cy="186.8" r="50.3"/><circle cx="366" cy="199.3" r="37.9"/><circle cx="398.5" cy="212.1" r="25.5"/><ellipse cx="336" cy="224" rx="87.5" ry="26"/></g><g fill="#ffffff"><circle cx="271" cy="198.5" r="29.5"/><circle cx="303.5" cy="185.7" r="41.9"/><circle cx="336" cy="175.8" r="50.3"/><circle cx="366" cy="188.3" r="37.9"/><circle cx="398.5" cy="201.1" r="25.5"/><ellipse cx="336" cy="212" rx="90" ry="27.5"/></g><g fill="#cfe0f6" opacity=".85"><circle cx="1001.4" cy="400.4" r="24.2"/><circle cx="1028.7" cy="391" r="32.7"/><circle cx="1056" cy="379" r="44.8"/><circle cx="1081.2" cy="390.7" r="32.7"/><circle cx="1108.5" cy="399.2" r="25.5"/><ellipse cx="1056" cy="412.1" rx="73.5" ry="21.8"/></g><g fill="#ffffff"><circle cx="1001.4" cy="391.2" r="24.2"/><circle cx="1028.7" cy="381.8" r="32.7"/><circle cx="1056" cy="369.7" r="44.8"/><circle cx="1081.2" cy="381.5" r="32.7"/><circle cx="1108.5" cy="390" r="25.5"/><ellipse cx="1056" cy="402" rx="75.6" ry="23.1"/></g><g fill="#cfe0f6" opacity=".85"><circle cx="571.6" cy="607.9" r="14.8"/><circle cx="589.8" cy="599.5" r="23.4"/><circle cx="608" cy="592.8" r="29.7"/><circle cx="624.8" cy="600.3" r="22"/><circle cx="643" cy="606.7" r="16.2"/><ellipse cx="608" cy="614.7" rx="49" ry="14.6"/></g><g fill="#ffffff"><circle cx="571.6" cy="601.7" r="14.8"/><circle cx="589.8" cy="593.4" r="23.4"/><circle cx="608" cy="586.6" r="29.7"/><circle cx="624.8" cy="594.2" r="22"/><circle cx="643" cy="600.6" r="16.2"/><ellipse cx="608" cy="608" rx="50.4" ry="15.4"/></g><g fill="#cfe0f6" opacity=".85"><circle cx="1353.8" cy="701.1" r="12.7"/><circle cx="1368.1" cy="697" r="16.1"/><circle cx="1382.4" cy="690.7" r="22.5"/><circle cx="1395.6" cy="694.9" r="18.8"/><circle cx="1409.9" cy="701.5" r="12"/><ellipse cx="1382.4" cy="707.3" rx="38.5" ry="11.4"/></g><g fill="#ffffff"><circle cx="1353.8" cy="696.3" r="12.7"/><circle cx="1368.1" cy="692.1" r="16.1"/><circle cx="1382.4" cy="685.8" r="22.5"/><circle cx="1395.6" cy="690.1" r="18.8"/><circle cx="1409.9" cy="696.7" r="12"/><ellipse cx="1382.4" cy="702" rx="39.6" ry="12.1"/></g><g fill="#cfe0f6" opacity=".85"><circle cx="755.8" cy="118.3" r="20.1"/><circle cx="777.9" cy="110.2" r="27.7"/><circle cx="800" cy="100.9" r="36.9"/><circle cx="820.4" cy="111" r="26.2"/><circle cx="842.5" cy="119.8" r="17.8"/><ellipse cx="800" cy="128.2" rx="59.5" ry="17.7"/></g><g fill="#ffffff"><circle cx="755.8" cy="110.8" r="20.1"/><circle cx="777.9" cy="102.7" r="27.7"/><circle cx="800" cy="93.4" r="36.9"/><circle cx="820.4" cy="103.6" r="26.2"/><circle cx="842.5" cy="112.3" r="17.8"/><ellipse cx="800" cy="120" rx="61.2" ry="18.7"/></g><g fill="#cfe0f6" opacity=".85"><circle cx="158.2" cy="478.7" r="15.4"/><circle cx="175.1" cy="472.1" r="21.7"/><circle cx="192" cy="467" r="25.9"/><circle cx="207.6" cy="473.9" r="19"/><circle cx="224.5" cy="479.6" r="13.9"/><ellipse cx="192" cy="486.2" rx="45.5" ry="13.5"/></g><g fill="#ffffff"><circle cx="158.2" cy="473" r="15.4"/><circle cx="175.1" cy="466.4" r="21.7"/><circle cx="192" cy="461.3" r="25.9"/><circle cx="207.6" cy="468.2" r="19"/><circle cx="224.5" cy="473.9" r="13.9"/><ellipse cx="192" cy="480" rx="46.8" ry="14.3"/></g><g fill="#cfe0f6" opacity=".85"><circle cx="1465" cy="298.9" r="17.2"/><circle cx="1484.5" cy="292.8" r="22.4"/><circle cx="1504" cy="282.6" r="33.3"/><circle cx="1522" cy="291.1" r="24.5"/><circle cx="1541.5" cy="299.5" r="16.1"/><ellipse cx="1504" cy="307.2" rx="52.5" ry="15.6"/></g><g fill="#ffffff"><circle cx="1465" cy="292.3" r="17.2"/><circle cx="1484.5" cy="286.2" r="22.4"/><circle cx="1504" cy="276" r="33.3"/><circle cx="1522" cy="284.5" r="24.5"/><circle cx="1541.5" cy="292.9" r="16.1"/><ellipse cx="1504" cy="300" rx="54" ry="16.5"/></g></svg>