<svg xmlns="http://www.w3.org/2000/svg" viewBox="0 0 500 900"><path fill="#0e4a33" opacity=".9" d="M92.3 638.4L96 630L99.3 621.6L102.4 613.1L105.2 604.7L107.7 596.3L109.9 587.8L111.8 579.4L113.5 570.9L114.8 562.5L115.9 554L116.8 545.5L117.3 537.1L117.5 528.6L117.5 520.1L122.5 519.9L122.8 528.6L122.7 537.2L122.4 545.9L121.8 554.6L120.9 563.3L119.7 571.9L118.2 580.6L116.4 589.3L114.3 598L112 606.7L109.3 615.4L106.4 624.2L103.2 632.9L99.7 641.6ZM128.5 520a8.5 8.5 0 1 0 -17 0a8.5 8.5 0 1 0 17 0ZM120 520L121.8 507.3L115.6 518.9L115.8 506.3L111.3 518.3L109.2 508.6L107 518.2L103.6 508.7L102.7 518.5L98.1 510.7L98.4 519.3L92.5 510.7L94.2 520.5L87.4 513.6L89.9 522.2L83.1 517.9L85.7 524.3L77.6 519.6L81.5 526.9L73.2 523.6L77.4 529.9L69.3 528.4L73.2 533.4L65.3 533.2L69.1 537.3L61.9 538.7L65 541.7L58.2 544.2L60.9 546.5L54.1 549.7L56.8 551.8L50.8 556.2L52.8 557.6L55.4 559.3L56.8 551.8L60.2 554.2L60.9 546.5L64.6 549.4L65 541.7L69.8 545.7L69.1 537.3L74.4 542.2L73.2 533.4L79.7 539.9L77.4 529.9L83.6 537L81.5 526.9L88.2 535.5L85.7 524.3L92.1 533.9L89.9 522.2L96.4 533.7L94.2 520.5L99.9 532.8L98.4 519.3L103.2 532.4L102.7 518.5L107.5 536.1L107 518.2L110.4 537.3L111.3 518.3L113.1 538.1L115.6 518.9L115.8 539.2L120 520ZM120 520L126.5 512.1L116.9 517.3L122.5 509.3L113.8 514.9L117.9 507.4L110.7 512.9L115.1 504.2L107.7 511.2L110.1 503.4L104.6 509.8L106.4 501.5L101.6 508.8L101.6 501.8L98.6 508.2L97.8 500.7L95.6 507.8L93.7 501.3L92.6 507.9L89.7 503.6L89.6 508.3L86.1 504.5L86.7 509L82.5 505.4L83.7 510.1L79.4 508L80.8 511.5L76.1 509.9L77.9 513.3L73.5 513.1L75 515.4L70.9 516.3L72.1 517.8L74.3 520.1L75 515.4L77.8 518.5L77.9 513.3L80.6 516.8L80.8 511.5L83.5 515.7L83.7 510.1L86.7 515.6L86.7 509L90 516.7L89.6 508.3L92.4 516.8L92.6 507.9L94.4 516L95.6 507.8L96.8 517.2L98.6 508.2L98.9 518L101.6 508.8L101 519.3L104.6 509.8L102.7 523.5L107.7 511.2L105 523.3L110.7 512.9L106.6 526.9L113.8 514.9L108.7 529L116.9 517.3L111.1 530.7L120 520ZM120 520L129.3 516.8L118.6 516.3L129 513.1L117.2 512.8L125.3 509.6L115.8 509.7L124.1 506.3L114.5 506.7L121.5 503.4L113.1 504.1L119.6 500.7L111.7 501.7L119 498L110.4 499.7L116.4 495.8L109 497.8L113.3 494.2L107.7 496.3L111.9 492.2L106.4 495L108.7 491.4L105 494L106.6 490.4L103.7 493.3L104.5 489.5L102.4 492.8L102 489.7L101.1 492.6L99.9 490.5L99.8 492.7L98 490.9L98.5 493L99.7 495.4L99.8 492.7L100.8 496L101.1 492.6L101.7 497.5L102.4 492.8L102.2 497.9L103.7 493.3L102.6 498.9L105 494L103.2 499.7L106.4 495L103.6 501.1L107.7 496.3L103.6 503.6L109 497.8L104.5 504.8L110.4 499.7L104.5 507.6L111.7 501.7L105.4 509.4L113.1 504.1L105.9 512.2L114.5 506.7L105.3 516.3L115.8 509.7L107.1 518.3L117.2 512.8L107.5 521.9L118.6 516.3L107.3 526.4L120 520ZM120 520L128.5 520.3L120 516.8L130 517.9L120 513.8L129.2 514.8L120 510.9L127.3 511.4L119.9 508.3L126.7 508.7L119.9 505.8L127.3 506.6L119.9 503.6L127.1 504.5L119.9 501.5L125.3 501.8L119.9 499.6L126 500.4L119.9 497.9L125.3 498.6L119.8 496.4L124.4 496.9L119.8 495.1L123.7 495.5L119.8 493.9L122.8 494.2L119.8 493L122.3 493.2L119.8 492.2L122.5 492.7L119.8 491.6L121.5 491.9L119.8 491.3L117.8 492.2L119.8 491.6L117.5 492.6L119.8 492.2L116.6 493.6L119.8 493L116.3 494.5L119.8 493.9L116.1 495.5L119.8 495.1L115.8 496.8L119.8 496.4L114.6 498.6L119.9 497.9L115.1 500L119.9 499.6L114.4 502L119.9 501.5L113.4 504.3L119.9 503.6L112.3 506.8L119.9 505.8L112.2 509.1L119.9 508.3L112.5 511.5L120 510.9L110.5 515L120 513.8L111.8 517.3L120 516.8L111.8 520.3L120 520ZM120 520L130.7 525.8L121.5 516.6L130.6 521.4L123.1 513.4L131.8 518.6L124.6 510.5L133 516.2L126.1 507.9L134.2 514.1L127.6 505.5L134.2 510.7L129.1 503.4L135.2 509.2L130.6 501.6L136.5 508.5L132.1 500L137.1 507L133.6 498.7L137.3 504.8L135.1 497.6L137.8 503.6L136.5 496.8L138.3 502.2L138 496.3L139.1 500.6L139.5 496L140 499.7L140.9 496L141.2 499.1L142.3 496.3L142.2 499.5L143.8 496.8L144.3 495L142.3 496.3L142.6 493.7L140.9 496L140.6 493.6L139.5 496L138.2 492.8L138 496.3L135.9 493.1L136.5 496.8L133.2 493.4L135.1 497.6L131.2 494.7L133.6 498.7L127.8 495.4L132.1 500L126.9 497.7L130.6 501.6L123.7 499.3L129.1 503.4L121 501.4L127.6 505.5L118.3 503.8L126.1 507.9L116.4 506.6L124.6 510.5L114.2 509.6L123.1 513.4L111.7 512.8L121.5 516.6L109 516.3L120 520ZM120 520L129.6 533.1L123.2 517.3L131.9 531.2L126.4 515L133.8 528.6L129.5 513L135.3 524.6L132.7 511.4L137.4 524L135.8 510.1L139.4 522.5L139 509.2L141.4 520.1L142.1 508.6L143.5 519L145.2 508.4L146 517.4L148.2 508.5L148.4 517.2L151.3 509L151.1 517L154.3 509.9L154.5 516.2L157.4 511.1L157 517.5L160.4 512.6L160 518.8L163.4 514.5L163.4 520L166.4 516.8L167 521.7L169.3 519.4L170.7 517.7L166.4 516.8L168.1 514.3L163.4 514.5L165.1 511.5L160.4 512.6L161.9 509.1L157.4 511.1L158.8 506.4L154.3 509.9L155 505.5L151.3 509L151.4 503.1L148.2 508.5L147.6 503.3L145.2 508.4L143.3 501.7L142.1 508.6L139.1 501.9L139 509.2L135.1 502.8L135.8 510.1L130.1 502.8L132.7 511.4L126 504.6L129.5 513L121.3 506.3L126.4 515L116.1 508L123.2 517.3L113.6 511.8L120 520ZM120 520L124.6 535.2L123.9 518.8L127.2 535.2L127.8 518L130 531.7L131.7 517.6L132.9 530.5L135.6 517.6L135.1 532.4L139.5 518L138.4 531L143.3 518.8L142 530.2L147.1 520.1L144.9 531.8L150.9 521.7L149.4 531.2L154.7 523.8L152.8 533.2L158.4 526.2L157.4 534.2L162.2 529.1L161.2 536.9L165.9 532.3L164.9 540.2L169.6 536L169 543.5L173.3 540.1L173.3 547.2L176.9 544.5L178 551.1L180.6 549.4L182.6 547.9L176.9 544.5L179.2 542.7L173.3 540.1L175.7 537.8L169.6 536L172.5 532.9L165.9 532.3L169.3 528.2L162.2 529.1L165.6 524.2L158.4 526.2L161.6 520.7L154.7 523.8L157.7 517.1L150.9 521.7L153 515.4L147.1 520.1L148.5 513.3L143.3 518.8L144 510.8L139.5 518L139.1 509.8L135.6 517.6L134 509.1L131.7 517.6L128.7 508.2L127.8 518L123 507.9L123.9 518.8L117.8 509L120 520ZM119.5 532a9.5 9.5 0 1 0 -19 0a9.5 9.5 0 1 0 19 0ZM132.5 536a8.5 8.5 0 1 0 -17 0a8.5 8.5 0 1 0 17 0ZM141.5 528a7.5 7.5 0 1 0 -15 0a7.5 7.5 0 1 0 15 0ZM388.2 656.3L385.3 646.9L382.6 637.5L380.1 628.1L377.9 618.7L376 609.3L374.2 599.9L372.8 590.5L371.6 581.1L370.6 571.7L369.9 562.4L369.4 553L369.2 543.6L369.2 534.3L369.5 524.9L374.5 525.1L374.4 534.3L374.6 543.5L375.1 552.7L375.7 561.9L376.7 571.1L377.8 580.3L379.2 589.5L380.9 598.7L382.7 607.9L384.9 617L387.2 626.2L389.8 635.4L392.7 644.6L395.8 653.7ZM380.5 525a8.5 8.5 0 1 0 -17 0a8.5 8.5 0 1 0 17 0ZM372 525L374 512L367.6 523.9L367.6 511.7L363.2 523.3L361.5 512L358.8 523.1L355.6 512.5L354.5 523.4L349.8 515.3L350.1 524.2L344.4 516.5L345.8 525.4L339.4 519.6L341.5 527.1L333.9 521L337.3 529.2L330 526.1L333 531.8L324.8 528.7L328.8 534.8L321.3 534.1L324.6 538.3L316.6 538L320.4 542.3L313 543.5L316.3 546.7L309.1 549L312.1 551.6L305 554.6L308 557L302 561.4L303.9 562.8L306.5 564.5L308 557L312.1 559.8L312.1 551.6L316.5 554.9L316.3 546.7L320.7 550.4L320.4 542.3L326.7 548.1L324.6 538.3L331.3 545.2L328.8 534.8L334.4 541.3L333 531.8L339.4 540L337.3 529.2L343.1 538L341.5 527.1L347.5 537.7L345.8 525.4L351.9 538.5L350.1 524.2L354.8 537L354.5 523.4L358.9 539.9L358.8 523.1L361.4 538L363.2 523.3L364.7 539.9L367.6 523.9L367.7 545L372 525ZM372 525L379 517.1L369 522.3L375.5 514.1L366 519.9L371.1 512L363 517.9L366.8 510.2L360.1 516.1L362.1 509.3L357.1 514.8L359 506.9L354.2 513.7L355 505.9L351.3 513L350.8 505.7L348.4 512.7L346.7 506.6L345.5 512.6L342.9 507.8L342.7 513L339.3 509L339.8 513.6L335.9 510.2L337 514.6L332.7 512.2L334.1 515.9L330 515L331.3 517.6L327.1 517.5L328.5 519.6L324.4 520.3L325.7 521.9L327.8 524L328.5 519.6L331.2 522.7L331.3 517.6L334.1 521.3L334.1 515.9L336.7 520L337 514.6L340.2 520.8L339.8 513.6L342.5 520.2L342.7 513L345.1 520.8L345.5 512.6L347.2 520.9L348.4 512.7L349.4 522.4L351.3 513L351.4 523.5L354.2 513.7L353.3 526.3L357.1 514.8L355.4 525.7L360.1 516.1L357 529.3L363 517.9L359.2 530.1L366 519.9L360.4 534.5L369 522.3L363.5 534.7L372 525ZM372 525L381 521.7L370.6 521.7L379.8 518.3L369.2 518.6L376.2 515.3L367.8 515.8L375.2 512.3L366.5 513.2L372.6 509.8L365.1 510.8L370.7 507.4L363.7 508.8L369 505.1L362.4 506.9L367.7 502.9L361 505.4L364.7 501.6L359.7 504L363.1 499.9L358.3 503L360 499.5L357 502.1L358.3 498.2L355.7 501.6L355.7 498.4L354.4 501.2L353.5 498.8L353.1 501.2L351.7 499L351.8 501.3L349.9 499.9L350.5 501.8L351.5 503.8L351.8 501.3L352.8 504.3L353.1 501.2L353.9 505.5L354.4 501.2L354.6 505.9L355.7 501.6L355.1 506.7L357 502.1L355.7 507.4L358.3 503L356.3 508.6L359.7 504L356.3 511.1L361 505.4L356.4 513.5L362.4 506.9L356.8 515.4L363.7 508.8L358.1 516.4L365.1 510.8L359.6 517.6L366.5 513.2L359.7 520.8L367.8 515.8L359.4 524.7L369.2 518.6L360 527.9L370.6 521.7L361.1 530.7L372 525ZM372 525L381.4 525.3L371.8 521.8L380.6 522L371.7 518.8L380.3 519.1L371.5 516L378.8 516L371.3 513.4L379.6 513.9L371.2 511L378.8 511.4L371 508.7L376.7 508.7L370.9 506.7L376.3 506.7L370.7 504.9L376.6 505.1L370.5 503.2L375 503.1L370.4 501.7L375.3 501.9L370.2 500.5L374 500.4L370.1 499.4L373.6 499.3L369.9 498.5L372.9 498.3L369.7 497.8L371.8 497.4L369.6 497.3L371.1 496.6L369.4 497L368.2 498.6L369.6 497.3L367.4 499.2L369.7 497.8L366.9 499.8L369.9 498.5L367 500.3L370.1 499.4L365.9 501.9L370.2 500.5L366.1 502.8L370.4 501.7L366 504.2L370.5 503.2L365.4 506L370.7 504.9L364.1 508.3L370.9 506.7L364.5 510L371 508.7L364 512.3L371.2 511L363 515L371.3 513.4L362.5 517.7L371.5 516L362.6 520.3L371.7 518.8L363.1 523L371.8 521.8L362.3 526.4L372 525ZM372 525L384.4 531L373.3 521.3L384.4 526.8L374.7 517.9L384.4 522.8L376 514.7L385.1 519.8L377.3 511.8L386.5 517.7L378.7 509.2L386.7 514.8L380 506.8L386.3 511.3L381.3 504.7L387.8 510.6L382.6 502.9L388.4 509.2L383.9 501.4L388.6 507.4L385.2 500.1L388.9 506.1L386.4 499.1L389.1 504.9L387.7 498.3L389.3 503.1L389 497.8L389.7 502.4L390.2 497.6L390.5 501.1L391.5 497.7L391.6 500.3L392.7 498L393.1 496.2L391.5 497.7L391.3 495.4L390.2 497.6L389.2 494.5L389 497.8L386.9 494.7L387.7 498.3L384.7 495.4L386.4 499.1L382.3 496.3L385.2 500.1L380.7 497.9L383.9 501.4L377.9 499.3L382.6 502.9L375.4 501.1L381.3 504.7L373.9 503.4L380 506.8L372.2 505.9L378.7 509.2L369.8 508.6L377.3 511.8L368 511.5L376 514.7L365 514.7L374.7 517.9L364.6 518.2L373.3 521.3L362.8 521.9L372 525ZM372 525L381.5 537.2L375 522.3L383.5 534.7L377.9 520L385.1 531.9L380.9 518L387.1 530.7L383.8 516.3L388.5 526.7L386.7 515L390.3 524L389.6 514L392.3 524L392.5 513.3L394.3 522.6L395.4 513L396.5 521L398.2 513L398.5 521.4L401.1 513.3L401.2 520.3L403.9 514L404 520.1L406.7 515L406.7 520.7L409.5 516.3L409.2 522.1L412.3 517.9L412.9 522.4L415.1 519.9L415.8 524.3L417.8 522.2L419.1 520.7L415.1 519.9L416.4 517.9L412.3 517.9L413.8 515.2L409.5 516.3L410.8 513.1L406.7 515L407.9 510.4L403.9 514L404.4 509.2L401.1 513.3L400.9 507.7L398.2 513L397.3 507.8L395.4 513L393.3 507L392.5 513.3L389.2 506.8L389.6 514L384.8 507L386.7 515L381.5 509.1L383.8 516.3L377.1 510.2L380.9 518L372.2 511.5L377.9 520L368.1 513.9L375 522.3L365.6 517.5L372 525ZM372 525L376.8 543.5L376.2 523.8L379.5 539.9L380.3 523L382.1 539.7L384.5 522.7L385 538.4L388.6 522.7L387.7 538.7L392.7 523.2L391.6 536.6L396.7 524.2L394.9 537L400.8 525.6L399.2 536.5L404.8 527.4L402.5 538.4L408.8 529.6L407.3 539L412.8 532.3L411.3 541.3L416.8 535.4L415.8 543.7L420.7 538.9L420.3 546.7L424.7 542.9L424.9 550.2L428.6 547.3L429.3 554.5L432.5 552.1L433.5 559.3L436.3 557.4L438.3 556L432.5 552.1L434.7 550.3L428.6 547.3L431.7 544.4L424.7 542.9L427.6 539.8L420.7 538.9L424.5 534.5L416.8 535.4L420.3 530.6L412.8 532.3L416 527L408.8 529.6L412.1 522.7L404.8 527.4L407.6 519.5L400.8 525.6L402.5 518.1L396.7 524.2L397.5 516.4L392.7 523.2L392.4 513.5L388.6 522.7L386.8 511.9L384.5 522.7L381.3 512.1L380.3 523L375.3 511.7L376.2 523.8L370 513.6L372 525ZM371.5 537a9.5 9.5 0 1 0 -19 0a9.5 9.5 0 1 0 19 0ZM384.5 541a8.5 8.5 0 1 0 -17 0a8.5 8.5 0 1 0 17 0ZM393.5 533a7.5 7.5 0 1 0 -15 0a7.5 7.5 0 1 0 15 0Z"/><path fill="#0a3a27" d="M30 -30L2.4 3.3L33.6 -26.6L1.2 9.8L37.2 -23.1L5.7 11.2L40.8 -19.3L11.2 12.2L44.4 -15.4L17.7 12.8L48 -11.2L16.6 19.7L51.5 -6.9L20.8 22.8L55.1 -2.4L27.6 24.2L58.6 2.3L32 27.7L62.2 7.2L38.5 30.1L65.7 12.3L44.7 33.2L69.2 17.6L46.1 39.4L72.7 23.1L48.8 45L76.2 28.8L57 47.7L79.7 34.7L56.2 55.7L83.2 40.7L64.5 58.9L86.7 47L68.9 64.5L90.2 53.4L74.5 69.8L93.6 60.1L73.2 78.7L97.1 66.9L79.2 84.1L100.5 73.9L83 90.9L103.9 81.1L88.9 97L107.3 88.6L96.2 102.6L110.8 96.2L99.2 110.4L114.2 103.9L102.9 118.1L117.6 111.9L108.8 125.1L120.9 120.1L110.2 134.2L124.3 128.5L116.7 141.4L127.7 137.1L121.7 149.4L131 145.8L124.4 158.5L134.4 154.8L130.5 166.6L137.7 163.9L145.6 161.1L134.4 154.8L142.2 151.9L131 145.8L140 142.5L127.7 137.1L137 133.5L124.3 128.5L134.9 124.3L120.9 120.1L131.5 115.9L117.6 111.9L128.3 107.5L114.2 103.9L128.8 97.7L110.8 96.2L123.8 90.4L107.3 88.6L123.4 81.3L103.9 81.1L118.3 74.4L100.5 73.9L119.1 64.9L97.1 66.9L116.1 57.3L93.6 60.1L112.8 50.1L90.2 53.4L110.1 42.7L86.7 47L106.3 36L83.2 40.7L104.3 28.5L79.7 34.7L98 23.7L76.2 28.8L97.1 15.8L72.7 23.1L96.2 7.9L69.2 17.6L89.3 4L65.7 12.3L90.7 -5.4L62.2 7.2L87.3 -11.4L58.6 2.3L81 -15.1L55.1 -2.4L77.4 -20.6L51.5 -6.9L74.5 -26.7L48 -11.2L70.6 -31.8L44.4 -15.4L70.9 -40.9L40.8 -19.3L63.2 -42.3L37.2 -23.1L57.1 -44.7L33.6 -26.6L53.6 -50L30 -30ZM30 -30L-5.6 -10.4L31.8 -25.7L-5.4 -6L33.6 -21.2L2.2 -4.1L35.3 -16.5L5 -0.1L37.1 -11.6L7.3 4.4L38.9 -6.5L8.4 9.5L40.6 -1.2L15.6 12.9L42.4 4.4L15.3 19L44.1 10.2L18.6 24.3L45.9 16.2L20.9 30L47.6 22.4L26.8 35L49.3 28.8L29.6 41.2L51.1 35.4L31.2 47.9L52.8 42.3L30.5 55.4L54.5 49.3L36.8 61.4L56.2 56.6L38.2 68.8L57.9 64.1L42.5 75.8L59.6 71.8L46.2 83.1L61.3 79.7L49 90.9L63 87.8L48.6 99.6L64.7 96.2L51.6 107.8L66.4 104.8L55.9 116L68 113.5L57.7 124.9L69.7 122.5L60.5 133.9L71.4 131.7L62.8 143.1L73 141.2L65.5 152.5L74.7 150.8L69.5 161.9L76.4 160.7L83.8 159.6L74.7 150.8L83.3 149.5L73 141.2L81.9 139.8L71.4 131.7L82.1 130L69.7 122.5L80.3 120.8L68 113.5L79.3 111.6L66.4 104.8L78.1 102.7L64.7 96.2L79.8 93.4L63 87.8L76.3 85.3L61.3 79.7L75.1 77L59.6 71.8L77.6 68.2L57.9 64.1L76.8 60.1L56.2 56.6L74.6 52.6L54.5 49.3L75.8 44.5L52.8 42.3L70.6 38.1L51.1 35.4L70.9 30.6L49.3 28.8L70.2 23.5L47.6 22.4L70.2 16.5L45.9 16.2L67.6 10.2L44.1 10.2L66 4L42.4 4.4L66.9 -2.9L40.6 -1.2L70 -10.3L38.9 -6.5L69.8 -16.6L37.1 -11.6L67 -21.9L35.3 -16.5L63.8 -26.8L33.6 -21.2L60.8 -31.6L31.8 -25.7L65.5 -39.3L30 -30ZM30 -30L13.3 10.6L34.8 -28L16.3 12.9L39.5 -25.8L25 6.5L44.3 -23.4L28.4 9.2L49 -20.7L29.1 15.8L53.7 -17.9L34.1 16.6L58.4 -14.8L38.4 18.6L63.1 -11.6L45 18.3L67.8 -8.1L51.1 19.2L72.4 -4.4L55.1 22.5L77.1 -0.5L58.7 26.7L81.7 3.7L67 26.5L86.3 8L70.8 31L90.9 12.5L77.5 33.2L95.5 17.3L80.1 39.2L100.1 22.3L89.3 40L104.7 27.5L91.3 46.9L109.2 32.9L95.4 52.3L113.8 38.5L104.9 54.1L118.3 44.3L107.9 60.9L122.8 50.3L113.1 66.3L127.3 56.6L117.8 72.3L131.8 63L124.2 77.5L136.3 69.7L130.6 82.9L140.8 76.6L135.6 89.5L145.2 83.7L139.6 96.9L149.7 91L145.3 103.6L154.1 98.5L152.3 109.7L158.5 106.3L163.4 103.5L154.1 98.5L159.7 95.2L149.7 91L155.8 87.3L145.2 83.7L152.9 78.8L140.8 76.6L148.4 71.6L136.3 69.7L146.3 62.8L131.8 63L142 55.8L127.3 56.6L136.6 49.7L122.8 50.3L133.8 41.8L118.3 44.3L129.1 35.5L113.8 38.5L125.6 28.5L109.2 32.9L120.5 22.8L104.7 27.5L116.1 16.8L100.1 22.3L111.9 10.7L95.5 17.3L108.2 4.1L90.9 12.5L105.1 -2.9L86.3 8L99.9 -7.8L81.7 3.7L93.4 -10.9L77.1 -0.5L91.3 -19.3L72.4 -4.4L87 -25.2L67.8 -8.1L81.7 -29.6L63.1 -11.6L76.7 -34.4L58.4 -14.8L68.9 -34.1L53.7 -17.9L65.2 -41.1L49 -20.7L58.6 -42.4L44.3 -23.4L55.1 -51.1L39.5 -25.8L47.8 -50.4L34.8 -28L43.3 -57.9L30 -30ZM475 -35L449.8 -56.9L471.4 -31.6L442.9 -55.3L467.8 -28.1L441.7 -47.6L464.2 -24.4L439.8 -40.7L460.7 -20.5L433.8 -37.7L457.1 -16.4L430.8 -31.8L453.5 -12.1L423.5 -29.6L450 -7.6L424.1 -20.5L446.5 -3L419.5 -15.7L442.9 1.9L416 -9.9L439.4 6.9L410.3 -5.5L435.9 12.1L412.6 4.4L432.4 17.5L406.5 8.9L428.9 23.1L404.1 15.8L425.4 28.8L399.9 21.8L421.9 34.8L395.7 28L418.5 40.9L396.6 37.2L415 47.3L391.7 43.3L411.6 53.8L389.9 51.1L408.1 60.5L387 58.6L404.7 67.4L386.7 67.4L401.3 74.4L380.6 73.7L397.9 81.7L377.4 81.4L394.5 89.1L377.4 90.8L391.1 96.7L374.9 99.1L387.7 104.6L370 106.6L384.3 112.6L370.5 116.5L380.9 120.7L368 125.4L377.5 129.1L365.4 134.3L374.2 137.7L361 142.7L370.8 146.4L358.8 152.2L367.5 155.3L357.1 161.9L364.2 164.4L372.8 167.6L367.5 155.3L375.7 158.4L370.8 146.4L381.8 150.6L374.2 137.7L385.6 142.2L377.5 129.1L390.3 134.2L380.9 120.7L394.3 126.2L384.3 112.6L398.8 118.6L387.7 104.6L402.4 110.9L391.1 96.7L405.9 103.3L394.5 89.1L412.2 97.1L397.9 81.7L415.6 89.9L401.3 74.4L422.6 84.6L404.7 67.4L427.7 78.6L408.1 60.5L431.7 72.3L411.6 53.8L434.5 65.6L415 47.3L437.4 59.1L418.5 40.9L442.8 54.2L421.9 34.8L447.9 49.4L425.4 28.8L453.4 45.1L428.9 23.1L460.4 42L432.4 17.5L457.8 33.2L435.9 12.1L465.4 31L439.4 6.9L469.8 27L442.9 1.9L476.1 24.6L446.5 -3L481.9 22.3L450 -7.6L485.2 18.4L453.5 -12.1L488 14.4L457.1 -16.4L493.4 12.7L460.7 -20.5L496.6 9.6L464.2 -24.4L502.5 9.1L467.8 -28.1L504.9 5.9L471.4 -31.6L508.7 4.1L475 -35ZM475 -35L444.5 -42.3L473.2 -30.8L437.6 -39.2L471.5 -26.3L440.9 -32L469.7 -21.6L438 -27.1L467.9 -16.8L435.3 -21.8L466.2 -11.7L433.3 -16.2L464.4 -6.4L432.3 -10L462.7 -0.9L438.6 -1.6L460.9 4.8L435.4 4.1L459.2 10.7L434.5 10.7L457.5 16.8L433.1 17.3L455.7 23.1L433.8 24.7L454 29.6L430.4 31.2L452.3 36.3L432.4 39.1L450.6 43.3L430.3 46.3L448.9 50.4L426.1 53.3L447.2 57.8L426.5 61.4L445.5 65.3L427.2 69.8L443.8 73.1L428 78.3L442.1 81L423.7 86.1L440.4 89.2L424.1 94.9L438.7 97.6L425.2 104.1L437 106.2L424.1 113L435.4 115L422.4 122.1L433.7 124L421.7 131.5L432.1 133.2L422.1 141.3L430.4 142.6L419.9 150.9L428.7 152.2L420.6 161.1L427.1 162L433.9 163.2L428.7 152.2L437.9 153.9L430.4 142.6L439 144.2L432.1 133.2L443.2 135.3L433.7 124L444.4 126.1L435.4 115L448.5 117.6L437 106.2L450.1 108.9L438.7 97.6L453.2 100.7L440.4 89.2L458.5 93.2L442.1 81L459.1 84.9L443.8 73.1L461.8 77.2L445.5 65.3L465.5 70.1L447.2 57.8L466.4 62.4L448.9 50.4L468.5 55.3L450.6 43.3L472.5 48.9L452.3 36.3L474.6 42.2L454 29.6L476.7 35.8L455.7 23.1L485.1 31.4L457.5 16.8L481 23.6L459.2 10.7L489.8 19.9L460.9 4.8L493.7 15L462.7 -0.9L494.7 9.4L464.4 -6.4L491.5 2.7L466.2 -11.7L498.6 -0.4L467.9 -16.8L497 -6.2L469.7 -21.6L505.2 -8.3L471.5 -26.3L508.9 -11.6L473.2 -30.8L507 -16.9L475 -35ZM475 -35L463.1 -58.1L470.2 -33L456 -59.2L465.5 -30.8L451.6 -52.2L460.8 -28.4L445.5 -50.1L456.1 -25.8L439.7 -47.2L451.4 -23L432.9 -45.9L446.7 -20L429.5 -38.1L442 -16.8L425.4 -32.2L437.3 -13.4L418 -31.2L432.7 -9.8L413 -26.3L428.1 -5.9L409.5 -19.7L423.4 -1.9L406.7 -12.1L418.8 2.3L401.6 -7.4L414.2 6.8L396.3 -2.7L409.6 11.4L391.4 2.5L405.1 16.3L388.3 9.7L400.5 21.3L382 13.8L396 26.6L377.7 20.1L391.4 32.1L373.4 26.5L386.9 37.7L369.6 33.4L382.4 43.6L368.3 42.4L377.9 49.7L362.7 48.1L373.4 56L360.2 56.3L368.9 62.5L354.2 62.1L364.5 69.1L350.8 70L360 76L347.1 77.8L355.6 83.1L344.6 86.4L351.2 90.4L341.1 94.6L346.8 98L336.2 102.1L342.4 105.7L349.7 109.7L346.8 98L355.2 102.7L351.2 90.4L360.2 95.7L355.6 83.1L366.6 89.7L360 76L370.6 82.6L364.5 69.1L375.8 76.3L368.9 62.5L381.4 70.6L373.4 56L386.5 64.8L377.9 49.7L393.2 60.4L382.4 43.6L399.8 56.1L386.9 37.7L401.4 48.6L391.4 32.1L406.7 43.8L396 26.6L414.1 41.1L400.5 21.3L420.3 37.8L405.1 16.3L422.9 31.7L409.6 11.4L428.5 28.4L414.2 6.8L432.5 23.8L418.8 2.3L437.4 20.5L423.4 -1.9L445.3 20.3L428.1 -5.9L451.5 19L432.7 -9.8L456.3 16.6L437.3 -13.4L458 11L442 -16.8L462.5 8.6L446.7 -20L472.6 13.9L451.4 -23L474.8 9.4L456.1 -25.8L478.5 7.2L460.8 -28.4L484.8 9.3L465.5 -30.8L489.4 9.3L470.2 -33L492.4 6.9L475 -35ZM250 940L278.2 933.8L247.3 933.7L281.6 927.3L244.6 927.5L272 921.1L241.9 921.6L266.7 915.1L239.2 915.9L265.6 909.1L236.5 910.4L263.3 903.3L233.9 905.1L260.2 897.8L231.2 900L252.9 892.8L228.5 895L253 887.4L225.9 890.3L247.6 882.7L223.3 885.8L241.6 878.4L220.6 881.5L242.1 873.3L218 877.5L237.9 869.2L215.4 873.6L234.5 865.1L212.8 869.9L229.3 861.6L210.2 866.4L223.2 858.7L207.6 863.1L222 854.6L205 860.1L218.5 851.4L202.4 857.2L213.2 849.1L199.9 854.5L210.6 845.9L197.3 852.1L206.9 843.5L194.7 849.8L201.4 842.4L192.2 847.8L198.9 839.7L189.7 845.9L195 838.2L187.1 844.3L190.9 837.2L184.6 842.8L186.2 837.4L182.1 841.6L183.1 836.3L179.6 840.6L178.4 849.3L182.1 841.6L180.2 851.6L184.6 842.8L181.8 854.5L187.1 844.3L183.4 856.7L189.7 845.9L185.6 857.7L192.2 847.8L186 863.4L194.7 849.8L188.1 864.9L197.3 852.1L188.8 869.6L199.9 854.5L191.8 869.8L202.4 857.2L191.1 877.1L205 860.1L193.8 878.6L207.6 863.1L194.4 883.6L210.2 866.4L195.9 887.4L212.8 869.9L196.7 892.5L215.4 873.6L200.3 893.8L218 877.5L203.1 896.6L220.6 881.5L203.1 903.3L223.3 885.8L205.8 906.7L225.9 890.3L205.4 914.2L228.5 895L205.2 921.4L231.2 900L209.5 923.8L233.9 905.1L212.6 927.8L236.5 910.4L214.9 932.9L239.2 915.9L213.7 941.8L241.9 921.6L214.1 949.3L244.6 927.5L220 951.5L247.3 933.7L216.5 963.1L250 940ZM250 940L286.6 945.6L249.5 932.9L284 937.8L249 925.9L291.2 933.7L248.5 919.2L285.3 925.2L248 912.6L287.4 919.6L247.4 906.2L281.9 911.6L246.9 900L276.6 904L246.4 894L276.2 898.1L245.9 888.2L276.3 892.6L245.4 882.6L276.5 887.3L244.9 877.1L275.9 881.9L244.4 871.9L274.1 876.3L243.9 866.8L271.6 870.7L243.4 862L267.1 864.7L242.9 857.3L266.8 860.1L242.4 852.8L264.9 855.3L242 848.5L264 850.9L241.5 844.4L261 846.2L241 840.4L261.1 842.5L240.5 836.7L259 838.3L240 833.1L255.3 834L239.5 829.8L257.6 831.4L239 826.6L254.8 827.7L238.5 823.6L254.1 824.6L238.1 820.8L252.1 821.5L237.6 818.2L250.4 818.6L237.1 815.8L249.5 816.1L236.6 813.6L246 813.3L236.1 811.6L244.5 811L235.7 809.7L242 808.9L235.2 808L227.8 813.8L235.7 809.7L227.3 815.9L236.1 811.6L226.7 818.2L236.6 813.6L224.8 821.6L237.1 815.8L226.6 822.8L237.6 818.2L225.9 825.7L238.1 820.8L223.4 830L238.5 823.6L222.4 833.5L239 826.6L223.1 836.1L239.5 829.8L224.6 838.6L240 833.1L222.5 843.3L240.5 836.7L219.4 848.7L241 840.4L220.6 851.9L241.5 844.4L220.2 856.2L242 848.5L220 860.6L242.4 852.8L217.9 866.2L242.9 857.3L217.4 871.1L243.4 862L216.1 876.6L243.9 866.8L214.1 882.7L244.4 871.9L214.3 887.8L244.9 877.1L216.7 892L245.4 882.6L217.2 897.3L245.9 888.2L211.9 905.8L246.4 894L211.1 912.2L246.9 900L209.2 919.4L247.4 906.2L215.6 922.5L248 912.6L208.5 932.6L248.5 919.2L207.4 939.9L249 925.9L215.3 942.8L249.5 932.9L212.3 951.5L250 940ZM250 940L283.3 958.9L252.2 933.4L280.4 948.7L254.3 927L286.9 946.6L256.5 920.8L283.6 936.4L258.6 914.8L287.6 932.7L260.8 909.1L285.9 924.3L262.9 903.5L286.5 917.9L265.1 898.2L287.5 912.3L267.2 893.1L290.3 908.5L269.3 888.2L292.5 904.4L271.4 883.5L290.8 896.7L273.5 879L294.1 894.3L275.6 874.8L293.4 887.9L277.7 870.7L295.8 885L279.8 866.9L295.5 879.4L281.9 863.2L295.8 874.6L283.9 859.8L296.7 870.6L286 856.6L297.5 866.7L288.1 853.7L300.2 865.8L290.1 850.9L300.4 861.4L292.2 848.3L300.8 857.3L294.2 846L303.1 856.9L296.2 843.9L303.6 853.3L298.3 841.9L303.8 848.9L300.3 840.2L305.6 848.3L302.3 838.7L306.6 845.6L304.3 837.5L299.9 833.9L302.3 838.7L296.6 834.9L300.3 840.2L292.5 835.8L298.3 841.9L290.4 838.2L296.2 843.9L286.5 839.9L294.2 846L283.2 842.1L292.2 848.3L280.8 844.9L290.1 850.9L277.6 847.7L288.1 853.7L272.7 850.4L286 856.6L269.9 853.8L283.9 859.8L267.4 857.4L281.9 863.2L263.8 861.1L279.8 866.9L262.1 865.2L277.7 870.7L255.7 869.1L275.6 874.8L256.9 873.8L273.5 879L249.9 878.2L271.4 883.5L247.8 883.1L269.3 888.2L246.2 888.2L267.2 893.1L240.3 893.5L265.1 898.2L237 899L262.9 903.5L237.6 904.6L260.8 909.1L231.1 910.6L258.6 914.8L230.6 916.6L256.5 920.8L221.8 923.4L254.3 927L222.8 929.6L252.2 933.4L219.5 936.4L250 940ZM250 940L268.2 926.1L245.4 935.1L261.3 921.8L240.7 930.5L256.3 916.8L236.1 926.1L250.3 912.6L231.5 922L247 907.2L226.9 918.1L242.2 902.8L222.4 914.5L233.2 901.3L217.8 911.1L226.9 898.4L213.3 908L222.8 894.3L208.8 905.1L215.5 893L204.2 902.5L210.7 889.9L199.8 900.1L206 887L195.3 898L198.8 886.9L190.8 896.1L194.3 884.3L186.4 894.5L188.3 883.7L182 893.1L182.1 884.2L177.6 892L177 883.5L173.2 891.1L172.1 882.7L168.8 890.5L166.5 884L164.5 890.2L161.6 884.3L160.1 890L156.8 884.6L155.8 890.2L152 885.6L151.5 890.5L153.3 897.4L155.8 890.2L157.7 898.8L160.1 890L161.5 898.4L164.5 890.2L165.7 900.7L168.8 890.5L169.7 902.5L173.2 891.1L173.6 906.8L177.6 892L177.3 906.8L182 893.1L180.8 911.2L186.4 894.5L184.7 910.2L190.8 896.1L188 915.4L195.3 898L191.1 920.7L199.8 900.1L194.5 923.4L204.2 902.5L198.2 925.7L208.8 905.1L202.3 926.8L213.3 908L204.1 935.8L217.8 911.1L209.5 933.9L222.4 914.5L210.4 944.7L226.9 918.1L214.2 947.8L231.5 922L217.7 952.2L236.1 926.1L221.7 955.7L240.7 930.5L226.7 957.8L245.4 935.1L229.4 964.6L250 940Z"/><path fill="#052018" d="M36 944.2L49.3 908.5L61.5 872.8L72.7 837.1L82.8 801.4L91.9 765.6L99.9 729.9L106.9 694L112.9 658.2L117.8 622.3L121.6 586.4L124.4 550.4L126.2 514.4L126.9 478.4L126.5 442.3L141.5 441.7L143.2 478.2L143.9 514.7L143.5 551.3L142 587.9L139.4 624.5L135.8 661.2L131.1 698L125.3 734.7L118.5 771.5L110.5 808.3L101.5 845.2L91.4 882L80.2 918.9L68 955.8ZM159.5 442a25.5 25.5 0 1 0 -51 0a25.5 25.5 0 1 0 51 0ZM134 442L146.1 413.3L128.2 440.3L140.1 408.8L122.4 438.8L131.2 409.5L116.6 437.6L124.5 406.2L110.8 436.7L116.6 405.6L105 436L107.3 410.2L99.3 435.6L100.2 408.8L93.6 435.5L92.8 409L87.8 435.7L86 405.1L82.1 436.1L78.3 407.8L76.4 436.8L70.8 414.1L70.7 437.8L63.5 411.7L65.1 439.1L56.9 418.8L59.4 440.6L49.6 418.4L53.8 442.4L43.6 424.6L48.1 444.5L37.3 428.7L42.5 446.8L29.3 427.4L36.9 449.5L24.4 435L31.3 452.4L18.3 439.2L25.8 455.5L10.5 440.1L20.2 459L4.9 445.5L14.7 462.7L0.6 453.1L9.1 466.7L-6.7 455.8L3.6 470.9L-11.1 463L-1.9 475.5L-16.9 468.3L-7.4 480.3L-21 475.8L-12.9 485.4L-28 480.1L-18.3 490.7L-32.5 487.3L-23.8 496.3L-38.2 493.5L-29.2 502.2L-42.9 500.8L-34.7 508.4L-46.6 509.1L-40.1 514.9L-51.6 516.4L-45.5 521.6L-56.1 524.4L-50.9 528.6L-43.8 533.7L-45.5 521.6L-37.8 527.4L-40.1 514.9L-30.9 522L-34.7 508.4L-23.8 517.2L-29.2 502.2L-19.5 510.5L-23.8 496.3L-11.1 507.6L-18.3 490.7L-6.1 502L-12.9 485.4L-0 497.7L-7.4 480.3L8.1 495.9L-1.9 475.5L12.8 491.1L3.6 470.9L18.1 487.2L9.1 466.7L24.7 485.2L14.7 462.7L31.5 484L20.2 459L34.4 478L25.8 455.5L44.3 482L31.3 452.4L45.5 474.1L36.9 449.5L54.3 478.2L42.5 446.8L60.1 478.3L48.1 444.5L61.7 470.9L53.8 442.4L70.1 477.4L59.4 440.6L73.4 473.6L65.1 439.1L79.1 476L70.7 437.8L81.8 470.6L76.4 436.8L86.6 471.7L82.1 436.1L91.6 474.1L87.8 435.7L98.1 484.8L93.6 435.5L100.5 476.9L99.3 435.6L105.7 485.9L105 436L109.9 490.4L110.8 436.7L113.6 492.9L116.6 437.6L117.2 486.8L122.4 438.8L121.2 489.5L128.2 440.3L124.9 494.7L134 442ZM134 442L154.2 421.1L128.8 438.3L152.2 413.7L123.6 434.9L145.4 409.9L118.4 431.8L138.7 406.3L113.2 428.9L126.5 408.2L108.1 426.3L124.7 400.3L102.9 424L113.2 403.2L97.8 422L107.5 399.9L92.7 420.2L101.6 396.8L87.6 418.8L95.6 394L82.5 417.6L86.9 396.7L77.4 416.7L81.4 393L72.3 416L73.8 395.2L67.3 415.6L66.7 397L62.2 415.6L60.3 397.8L57.2 415.7L53.8 399.6L52.2 416.2L47.6 401.6L47.2 417L41.6 403L42.2 418L35.5 402.8L37.2 419.3L29.4 404.1L32.3 420.9L24.4 410.3L27.3 422.7L19 413.8L22.4 424.8L12.6 414L17.5 427.2L7.9 419.2L12.6 429.9L3 423.5L7.7 432.9L-1.7 428.1L2.8 436.1L-7 431.8L-2.1 439.6L-12 436.1L-6.9 443.4L-16.1 441.7L-11.7 447.5L-20.6 447L-16.6 451.8L-11 457.3L-11.7 447.5L-3.8 455.7L-6.9 443.4L-0.2 450.9L-2.1 439.6L6.2 449.4L2.8 436.1L12.5 448.3L7.7 432.9L16 444.1L12.6 429.9L22.7 444.8L17.5 427.2L28.5 444.7L22.4 424.8L32.6 442.6L27.3 422.7L37.9 442.9L32.3 420.9L40.8 439L37.2 419.3L46.3 441L42.2 418L50.1 439.4L47.2 417L56.1 444.9L52.2 416.2L59.1 441.9L57.2 415.7L63.5 444.3L62.2 415.6L68.2 450.4L67.3 415.6L71.7 450.9L72.3 416L75.4 454.1L77.4 416.7L78.7 451.3L82.5 417.6L82.2 453.9L87.6 418.8L85.6 459L92.7 420.2L89.2 459L97.8 422L92.9 459.8L102.9 424L96.2 464.1L108.1 426.3L100.3 464.3L113.2 428.9L103.2 470.5L118.4 431.8L104.6 481.7L123.6 434.9L107.9 485.4L128.8 438.3L112.6 485.4L134 442ZM134 442L159.5 428.8L129.9 436.7L151.9 423.8L125.8 431.6L148 418.1L121.7 426.9L146.4 411.8L117.7 422.5L141.3 406.8L113.6 418.3L132.2 404L109.6 414.5L129.2 398.6L105.5 411L123.4 394.9L101.5 407.7L117.2 391.8L97.5 404.8L111.3 388.9L93.5 402.2L105.9 385.9L89.6 399.8L98.6 385.1L85.6 397.8L94 382L81.6 396L87.1 382.2L77.7 394.6L82 380.4L73.8 393.4L76.9 378.7L69.8 392.6L71.2 378.9L65.9 392L65.3 380.5L62 391.8L60.6 379.1L58.2 391.8L55.3 381.1L54.3 392.2L50.4 382.9L50.4 392.8L45.8 386.1L46.6 393.8L41.2 387L42.7 395L37.1 390.1L38.9 396.5L32.8 392.2L35.1 398.4L29 395.6L31.3 400.5L36.3 407.6L35.1 398.4L40.3 406.6L38.9 396.5L44.6 406.7L42.7 395L47.8 405.4L46.6 393.8L51.9 406.8L50.4 392.8L55.6 407.9L54.3 392.2L59 409.4L58.2 391.8L61.6 408.5L62 391.8L65 412.5L65.9 392L67.7 414.6L69.8 392.6L70.2 415.6L73.8 393.4L72.6 419.7L77.7 394.6L74.9 422.2L81.6 396L77.7 421.7L85.6 397.8L80 424.6L89.6 399.8L83.1 424.8L93.5 402.2L84 433.3L97.5 404.8L85.9 437.6L101.5 407.7L89.7 437.5L105.5 411L91.3 443.3L109.6 414.5L93.6 447.7L113.6 418.3L95.9 452.3L117.7 422.5L101.2 451.9L121.7 426.9L100.6 462.5L125.8 431.6L104.3 465.9L129.9 436.7L106.4 472.2L134 442ZM134 442L163 437.2L131.6 435.5L160.6 430.5L129.2 429.3L155.8 424L126.8 423.4L152.8 417.9L124.5 417.8L144.2 412.1L122.1 412.5L141.7 406.7L119.8 407.5L140.1 401.4L117.4 402.8L137.8 396.4L115.1 398.5L131.6 392.1L112.7 394.4L130.6 387.4L110.4 390.7L126.6 383.4L108.1 387.3L120.1 380.4L105.8 384.1L118.4 376.6L103.5 381.3L113.7 373.9L101.2 378.8L109.4 371.6L98.9 376.6L106 369.2L96.6 374.7L102.7 367L94.4 373.2L98.6 365.8L92.1 371.9L94.8 364.7L89.9 370.9L90.9 364.5L87.6 370.3L87.7 363.8L85.4 369.9L84.2 364.5L83.2 369.9L81 365.3L81 370.2L83.3 377.3L83.2 369.9L84.8 377.8L85.4 369.9L86.4 381.1L87.6 370.3L87.5 380.1L89.9 370.9L88.4 383.3L92.1 371.9L89.3 384.8L94.4 373.2L89.9 387.5L96.6 374.7L91.2 388.6L98.9 376.6L90.6 394.3L101.2 378.8L92.4 395L103.5 381.3L94.3 396.4L105.8 384.1L93.4 402.6L108.1 387.3L96.2 403.5L110.4 390.7L95.4 409.8L112.7 394.4L97.3 412.8L115.1 398.5L97.3 418.7L117.4 402.8L96.3 425.6L119.8 407.5L98 430L122.1 412.5L101.4 433.1L124.5 417.8L100.1 441.2L126.8 423.4L102.2 446.2L129.2 429.3L105.3 450.8L131.6 435.5L108.2 456L134 442ZM134 442L162.1 443.8L133.3 434.9L163.3 437.4L132.5 428.1L161.3 430.4L131.8 421.5L156.8 422.9L131.1 415.4L153.2 416.1L130.3 409.5L154.8 411L129.6 403.9L147.5 403.8L128.9 398.7L146.4 398.6L128.1 393.8L147.1 394.2L127.4 389.2L145.5 389.4L126.7 384.9L141.4 384.4L126 380.9L141.8 380.8L125.3 377.3L141 377.1L124.6 373.9L137 373.2L123.9 370.9L135.4 369.9L123.2 368.2L132.9 366.9L122.5 365.8L131.3 364.3L121.8 363.7L131.1 362L121.1 361.9L127.7 359.9L120.4 360.5L126.7 357.9L119.7 359.4L124.2 356.3L119 358.5L115.9 364.7L119.7 359.4L115.3 365.3L120.4 360.5L113.4 368.2L121.1 361.9L113.6 369L121.8 363.7L113.2 371L122.5 365.8L113 373.3L123.2 368.2L110.5 377.6L123.9 370.9L111.5 379.6L124.6 373.9L111.9 382.5L125.3 377.3L110.7 386.8L126 380.9L111.8 389.9L126.7 384.9L109.1 395.7L127.4 389.2L109.6 400L128.1 393.8L110 404.5L128.9 398.7L106.8 411.5L129.6 403.9L106.1 417.4L130.3 409.5L110.7 420.5L131.1 415.4L107 428.7L131.8 421.5L108.4 434.4L132.5 428.1L103.3 444L133.3 434.9L103.9 450.7L134 442ZM134 442L159.5 451L135.4 435.1L159.1 443.5L136.8 428.6L164.9 440.6L138.2 422.3L160.6 431.1L139.5 416.4L162.8 426.5L140.9 410.8L162.2 420.2L142.3 405.5L163.3 415.5L143.6 400.6L163.3 410.2L145 396L164.1 406L146.4 391.7L161.5 399.3L147.7 387.7L164.3 397.5L149 384L162.6 392.1L150.4 380.7L163.5 389.5L151.7 377.6L163 385.7L153 374.9L163 382.8L154.4 372.6L163.5 381.1L155.7 370.5L163.2 378.7L157 368.8L162.9 376.5L158.3 367.4L163 375.7L159.6 366.3L162.5 373.6L160.9 365.5L162.3 370.9L162.2 365.1L160.1 361.5L160.9 365.5L157 361.6L159.6 366.3L153.2 362.2L158.3 367.4L150.2 363.8L157 368.8L148 366.1L155.7 370.5L146.8 368.8L154.4 372.6L141.9 371L153 374.9L140.4 374.1L151.7 377.6L137.3 377.3L150.4 380.7L134.1 380.9L149 384L131.9 384.9L147.7 387.7L130.1 389L146.4 391.7L125.3 393.7L145 396L125.6 398.3L143.6 400.6L123.1 403.4L142.3 405.5L117.7 409.3L140.9 410.8L119.4 414.4L139.5 416.4L116.3 420.6L138.2 422.3L110 427.7L136.8 428.6L113.2 433.3L135.4 435.1L104.7 441.5L134 442ZM134 442L163.2 458.7L136.4 435.5L163.3 451.1L138.7 429.2L167.9 447.9L141.1 423.3L169.8 442.6L143.4 417.6L166 432L145.8 412.3L169.2 428.6L148.1 407.2L170.7 423.8L150.4 402.5L171.4 418.6L152.7 398L171.6 413L155 393.8L171.9 407.8L157.3 389.9L174.7 406.1L159.6 386.4L176.5 403.5L161.9 383.1L174.7 396.2L164.2 380.1L176.2 393.8L166.4 377.4L178.6 393.7L168.7 375L179.1 390.8L171 372.9L179.5 387.7L173.2 371.1L179.3 382.6L175.4 369.6L180.8 383.3L177.7 368.4L181.6 382.2L179.9 367.4L182.3 380.2L182.1 366.8L183.3 377.4L184.3 366.5L184.9 374.1L186.5 366.4L186.1 374.6L188.7 366.7L188.6 362.1L186.5 366.4L185.4 360.4L184.3 366.5L181.6 359.3L182.1 366.8L178 359.6L179.9 367.4L175 361.2L177.7 368.4L170.9 361.8L175.4 369.6L165.6 362L173.2 371.1L163.7 365.3L171 372.9L158.5 366.7L168.7 375L155.4 369.6L166.4 377.4L152.8 372.8L164.2 380.1L147.1 375.4L161.9 383.1L146.2 379.6L159.6 386.4L142.4 383.3L157.3 389.9L137.4 387.2L155 393.8L135.7 391.8L152.7 398L132.4 396.4L150.4 402.5L125.5 401.2L148.1 407.2L120.7 406.5L145.8 412.3L116 412.1L143.4 417.6L118.2 418L141.1 423.3L112.3 424.1L138.7 429.2L109.8 430.5L136.4 435.5L103.8 437.4L134 442ZM134 442L162.7 476.4L138.3 436.8L162.1 465.4L142.7 431.9L163.3 457.3L147 427.3L169.3 458.5L151.3 423.1L169.6 448.9L155.5 419.1L174.3 449L159.8 415.4L176.4 443.8L164.1 412.1L180.2 443.5L168.3 409L181.7 436.8L172.5 406.2L184.4 434L176.8 403.8L186.4 428.1L181 401.7L189.4 427.5L185.2 399.8L191.8 422.6L189.3 398.3L194.7 423.7L193.5 397.1L197.4 419.8L197.7 396.1L200.4 415.3L201.8 395.5L203.4 414.2L205.9 395.2L206.5 413.5L210 395.2L209.4 414L214.1 395.5L213.6 410.4L218.2 396.1L216.5 411.9L222.3 397L220.4 411.2L226.4 398.2L225.4 409.3L230.4 399.8L228.6 411.3L234.5 401.6L233.8 410.6L238.5 403.7L238.2 411.9L242.5 406.2L245.1 401.1L238.5 403.7L240.8 398.3L234.5 401.6L237 394L230.4 399.8L232.4 391.9L226.4 398.2L227.7 389.8L222.3 397L223.1 386.4L218.2 396.1L218.1 386.8L214.1 395.5L212.8 383.2L210 395.2L207.8 384.5L205.9 395.2L202.3 383.6L201.8 395.5L195.6 380.4L197.7 396.1L190.1 381.7L193.5 397.1L185.3 384.1L189.3 398.3L179.8 385.7L185.2 399.8L171.1 383.8L181 401.7L166.1 387L176.8 403.8L159.3 388.8L172.5 406.2L156.5 394.1L168.3 409L148.1 395.4L164.1 412.1L143.7 399.8L159.8 415.4L138.6 404.1L155.5 419.1L132.2 407.8L151.3 423.1L124.3 411.4L147 427.3L120.5 417L142.7 431.9L114.4 422.1L138.3 436.8L110.8 428.2L134 442ZM134 442L152 489.8L139.5 438.9L156 488.2L145 436.1L158.6 479.7L150.5 433.6L163.1 481.9L155.9 431.4L166.1 474.5L161.4 429.4L169.8 472.6L166.8 427.7L173.4 469.6L172.3 426.3L177.1 469L177.7 425.2L181 462.8L183.1 424.3L185.2 457.6L188.5 423.8L189.4 455.3L193.8 423.4L193.4 455.5L199.2 423.4L198 452.7L204.5 423.7L200.4 459.2L209.8 424.2L205.8 454.6L215.2 425L209.5 456.2L220.5 426.1L216.4 450L225.8 427.4L219.8 453.4L231 429.1L223.4 456.2L236.3 431L229.4 454.9L241.5 433.1L235.2 454.6L246.8 435.6L240.4 456L252 438.3L247 455.8L257.2 441.3L252.2 458L262.4 444.6L257.8 460.3L267.6 448.2L262.7 463.6L272.7 452L268.4 466.5L277.9 456.2L272.9 471L283 460.6L280.5 472.7L288.1 465.2L286.1 476.8L293.2 470.2L291.9 481.1L298.3 475.4L302.6 471L293.2 470.2L298.1 464.8L288.1 465.2L293.2 459.1L283 460.6L288.8 453.1L277.9 456.2L283.1 448.9L272.7 452L279.5 441.6L267.6 448.2L273.4 438.3L262.4 444.6L269.1 431.9L257.2 441.3L263.3 428.3L252 438.3L257.7 424.3L246.8 435.6L251.8 421.3L241.5 433.1L246.5 415.7L236.3 431L239.6 416.2L231 429.1L234 410.6L225.8 427.4L227.5 409.9L220.5 426.1L221.2 405.6L215.2 425L214.5 403.3L209.8 424.2L208 405L204.5 423.7L201.3 403.6L199.2 423.4L194.7 403.9L193.8 423.4L187.4 402.1L188.5 423.8L180.8 403L183.1 424.3L172.8 401.1L177.7 425.2L163.5 397.9L172.3 426.3L158.3 403L166.8 427.7L151.2 404.7L161.4 429.4L143.1 405.4L155.9 431.4L136.7 408.8L150.5 433.6L126.5 408.2L145 436.1L119.1 411.2L139.5 438.9L115.6 417.9L134 442ZM134 442L140.8 492.2L139.8 440.5L144.5 493.2L145.7 439.4L148.4 486.8L151.5 438.5L152.6 482L157.3 438L155.7 486.7L163.1 437.8L161.9 473.6L168.9 437.8L166.2 473L174.6 438.2L168.6 479.6L180.4 438.8L174.4 474.9L186.1 439.8L180.4 470.8L191.8 441.1L183.5 475.2L197.5 442.7L186.7 478.9L203.2 444.6L193.7 475.2L208.9 446.7L199.8 474.6L214.5 449.2L206.3 473.9L220.1 452L212 475.2L225.8 455.1L214.1 482L231.4 458.5L221.6 481.7L237 462.2L225.6 486.4L242.5 466.2L235.2 484.9L248.1 470.6L240.5 489.1L253.7 475.2L247.2 492L259.2 480.1L252 497.3L264.7 485.3L259.4 500.6L270.2 490.8L264.9 505.9L275.7 496.7L270.7 511.4L281.2 502.8L277.2 516.6L286.6 509.3L284.1 522L292.1 516L290.4 528.2L297.5 523L294.7 536.1L302.9 530.4L307.8 526.7L297.5 523L303.5 518.2L292.1 516L298.5 510.6L286.6 509.3L293.8 502.9L281.2 502.8L287.9 496.5L275.7 496.7L283.3 489.1L270.2 490.8L277.6 482.9L264.7 485.3L273.4 475.4L259.2 480.1L269 468L253.7 475.2L262.8 463L248.1 470.6L257.8 456.4L242.5 466.2L250.6 453.4L237 462.2L244.3 449.2L231.4 458.5L239.6 442.2L225.8 455.1L233.3 437.9L220.1 452L227.2 433.2L214.5 449.2L220.5 430.3L208.9 446.7L214.3 425.3L203.2 444.6L207.6 421.4L197.5 442.7L200.7 417.2L191.8 441.1L193.2 418.6L186.1 439.8L186 415.4L180.4 438.8L178.4 411L174.6 438.2L171.3 413.9L168.9 437.8L163.9 413.8L163.1 437.8L155.9 411.8L157.3 438L148.7 413.4L151.5 438.5L138.7 408.3L145.7 439.4L130.3 408.6L139.8 440.5L124.3 413.7L134 442ZM133.5 454a9.5 9.5 0 1 0 -19 0a9.5 9.5 0 1 0 19 0ZM146.5 458a8.5 8.5 0 1 0 -17 0a8.5 8.5 0 1 0 17 0ZM155.5 450a7.5 7.5 0 1 0 -15 0a7.5 7.5 0 1 0 15 0ZM434.1 966.5L420.2 924L407.4 881.5L395.9 839.1L385.5 796.7L376.4 754.3L368.4 712L361.7 669.7L356.1 627.4L351.8 585.2L348.6 543L346.7 500.9L345.9 458.8L346.4 416.7L348 374.7L364 375.3L363.9 416.8L365.1 458.4L367.4 499.8L370.9 541.3L375.5 582.7L381.3 624L388.3 665.3L396.5 706.6L405.8 747.8L416.3 789L427.9 830.2L440.7 871.3L454.7 912.4L469.9 953.5ZM383.2 375a27.2 27.2 0 1 0 -54.4 0a27.2 27.2 0 1 0 54.4 0ZM356 375L367.6 342L350.1 373.7L358.2 343.7L344.3 372.6L352.6 337.5L338.4 371.8L342.1 343.7L332.6 371.3L334.7 342.6L326.7 371L326.5 344.9L320.9 371.1L319.3 343.7L315.1 371.4L311.9 343.8L309.3 372L304.5 341.6L303.6 372.9L297 347.7L297.8 374L290 352L292.1 375.5L282.9 353.6L286.4 377.2L275 351.7L280.6 379.2L269.6 361.2L274.9 381.4L262 361.3L269.3 384L256 366.7L263.6 386.8L249 369.4L257.9 389.9L243.6 375.7L252.3 393.3L236.6 378.7L246.6 397L231.2 384.7L241 400.9L225 389.4L235.4 405.1L218.6 394L229.8 409.6L214 401.1L224.2 414.4L209.7 408.7L218.7 419.5L204.5 415.1L213.1 424.8L196.9 419.1L207.6 430.4L192.9 427.2L202.1 436.3L188.5 434.9L196.6 442.5L181.7 440.5L191.1 448.9L177.6 448.8L185.6 455.7L172.4 456.4L180.1 462.7L167.3 464.2L174.7 469.9L163.6 473.3L169.2 477.5L176.9 482.7L174.7 469.9L184.6 476.9L180.1 462.7L189 469.1L185.6 455.7L197.2 464.4L191.1 448.9L201.4 457.1L196.6 442.5L209.7 453.3L202.1 436.3L216.1 448.3L207.6 430.4L223.4 444.6L213.1 424.8L229.3 439.9L218.7 419.5L234.1 434.6L224.2 414.4L238.9 429.5L229.8 409.6L244.7 425.8L235.4 405.1L252.4 424.7L241 400.9L258.3 421.9L246.6 397L262 416.8L252.3 393.3L271.9 420.3L257.9 389.9L275.6 416L263.6 386.8L282.1 416.2L269.3 384L285.2 411.3L274.9 381.4L290.7 410.7L280.6 379.2L294.9 408L286.4 377.2L301.5 411L292.1 375.5L306.2 410.3L297.8 374L311.7 412.4L303.6 372.9L316.2 412.6L309.3 372L322.2 419.1L315.1 371.4L326.7 421.2L320.9 371.1L329 413.5L326.7 371L333.8 418L332.6 371.3L337.6 416.7L338.4 371.8L342.2 425.8L344.3 372.6L346.2 432.8L350.1 373.7L349.9 423.7L356 375ZM356 375L380.1 352.9L350.8 371L370.9 350.3L345.6 367.4L370 342.3L340.5 363.9L359.8 341.2L335.3 360.8L351.8 339L330.2 357.9L346.5 334.5L325 355.3L338.4 333.2L319.9 353L332.5 329.9L314.8 350.9L325.7 327.8L309.7 349.1L318.6 326.5L304.6 347.6L312.3 324.3L299.6 346.3L304.4 325.3L294.5 345.4L297.2 326.1L289.5 344.7L290.6 326L284.4 344.2L284.2 326.2L279.4 344L278.2 324.6L274.4 344.1L271.7 326.5L269.4 344.5L265.5 325.7L264.5 345.1L259.3 329L259.5 346L253.2 330.2L254.6 347.2L247.1 331.5L249.6 348.7L242.1 338L244.7 350.4L236.7 341L239.8 352.4L231.2 343.8L234.9 354.6L225.7 346.4L230 357.2L220.3 349.7L225.1 360L215.2 353.4L220.3 363L210.8 358.6L215.4 366.4L205.3 361.9L210.6 370L201.9 368.5L205.8 373.9L196.4 372.2L201 378L207 384.2L205.8 373.9L213.8 382.6L210.6 370L217.5 377.9L215.4 366.4L225 378.1L220.3 363L229.9 375.7L225.1 360L235.8 375L230 357.2L239.8 372.2L234.9 354.6L243.8 369.4L239.8 352.4L250.9 372.6L244.7 350.4L254.3 369.6L249.6 348.7L258 367.4L254.6 347.2L263.9 370.8L259.5 346L268.1 370.7L264.5 345.1L272.3 371.3L269.4 344.5L275.8 369.9L274.4 344.1L279.9 370.8L279.4 344L284.5 376.2L284.4 344.2L288.1 376.8L289.5 344.7L291.6 375.6L294.5 345.4L295.4 380.8L299.6 346.3L298.9 386.1L304.6 347.6L302.3 388.6L309.7 349.1L305.9 388.7L314.8 350.9L309.4 390.7L319.9 353L312.9 393.4L325 355.3L316.7 395.1L330.2 357.9L320.3 398.2L335.3 360.8L322.9 405L340.5 363.9L327.7 404.6L345.6 367.4L328.5 416.7L350.8 371L332 420.9L356 375ZM356 375L379.8 359.2L351.4 370.2L376.9 352.9L346.9 365.6L371.4 347.8L342.4 361.3L362.7 344.7L337.8 357.3L363.2 336.9L333.3 353.6L355.3 333.8L328.8 350.1L347.4 331.3L324.3 346.9L342.4 327.1L319.9 344L333.3 326.4L315.4 341.4L327.3 323.7L311 339L322.6 320.1L306.5 336.9L317.2 317.1L302.1 335.1L310.5 316L297.7 333.6L302.4 317.9L293.3 332.3L298 314.3L288.9 331.3L292.5 312.6L284.5 330.6L286 313.3L280.1 330.2L280.3 313L275.8 330L274.4 313.6L271.4 330.1L268.3 317.8L267.1 330.5L263 318.9L262.8 331.2L257.7 319.9L258.5 332.1L252.4 320.7L254.2 333.4L247.8 325L249.9 334.9L242.6 326.3L245.7 336.6L238.1 329.7L241.4 338.7L234 333.7L237.2 341L229.6 337.1L232.9 343.6L225.2 340.4L228.7 346.4L234.7 353.9L232.9 343.6L238.7 351.3L237.2 341L244.3 351.4L241.4 338.7L247.6 348.7L245.7 336.6L252.4 348.6L249.9 334.9L257.9 350.7L254.2 333.4L261.8 350.5L258.5 332.1L264.8 348.5L262.8 331.2L268.6 349L267.1 330.5L272.8 351.8L271.4 330.1L276.7 354.5L275.8 330L279.8 355.1L280.1 330.2L283.2 358.7L284.5 330.6L286.1 359.2L288.9 331.3L289 362.2L293.3 332.3L292 362.8L297.7 333.6L295 363.3L302.1 335.1L297.8 366.5L306.5 336.9L300.6 369.9L311 339L303.3 373.4L315.4 341.4L305.3 379.7L319.9 344L309.7 377.5L324.3 346.9L313.3 379.1L328.8 350.1L313.7 389.9L333.3 353.6L318.5 389.2L337.8 357.3L320.8 395.1L342.4 361.3L325.4 396.4L346.9 365.6L324.4 409.2L351.4 370.2L330.7 408.1L356 375ZM356 375L387.8 369.2L353.4 368.5L381.3 362.5L350.7 362.3L375.6 356.1L348.1 356.5L376.6 349.8L345.5 350.9L369.1 344.2L342.9 345.6L364.9 338.7L340.3 340.6L365.2 333.1L337.7 336L360 328.2L335.1 331.6L355.7 323.6L332.6 327.6L348.9 319.8L330 323.8L348 315.1L327.5 320.3L342.8 311.7L324.9 317.2L339.8 307.9L322.4 314.3L333.8 305.6L319.8 311.8L331.2 302.2L317.3 309.5L327 299.8L314.8 307.6L321.6 298.7L312.3 305.9L318.1 296.6L309.8 304.6L314 295.2L307.3 303.5L310.1 294.2L304.9 302.8L305.8 294.3L302.4 302.4L301.7 295.1L299.9 302.2L297.9 297.1L297.5 302.4L294.7 297.7L295 302.9L297.9 310.4L297.5 302.4L299.6 310.1L299.9 302.2L301.7 312.4L302.4 302.4L303.3 315.4L304.9 302.8L304.4 317.5L307.3 303.5L305.4 319.8L309.8 304.6L306.9 318.4L312.3 305.9L307.4 323L314.8 307.6L307.8 326.7L317.3 309.5L309.1 328.4L319.8 311.8L310.9 329.6L322.4 314.3L312.8 331.2L324.9 317.2L311 339.4L327.5 320.3L312.2 342.8L330 323.8L314.1 345.6L332.6 327.6L316.6 348.2L335.1 331.6L315.5 355.5L337.7 336L316.7 360.3L340.3 340.6L318.4 364.9L342.9 345.6L320.4 369.5L345.5 350.9L323.5 373.4L348.1 356.5L325.1 379.2L350.7 362.3L326.1 386L353.4 368.5L327.8 392.3L356 375ZM356 375L382.4 373.9L354.6 368L385.1 367.8L353.2 361.3L379.5 360.3L351.8 354.9L375.5 353.5L350.4 348.8L373.8 347.3L349 343L372.3 341.5L347.6 337.5L370.1 335.9L346.3 332.3L369.9 330.8L344.9 327.4L363.1 325.1L343.5 322.8L361.4 320.4L342.2 318.5L359.3 315.9L340.8 314.5L356.2 311.7L339.5 310.8L356.5 307.8L338.1 307.4L351 304.1L336.8 304.2L348.3 300.8L335.4 301.4L347.7 297.6L334.1 298.9L345.7 294.6L332.8 296.7L343.1 292L331.4 294.7L339.5 290L330.1 293.1L336.1 288.3L328.8 291.8L334.2 286.2L327.5 290.7L330.7 285.3L326.2 290L327.4 285.3L324.9 289.5L324.7 297.2L326.2 290L324.3 299.7L327.5 290.7L323.8 301.7L328.8 291.8L323.3 303.3L330.1 293.1L324.3 302.8L331.4 294.7L323.9 305.5L332.8 296.7L323.6 308.2L334.1 298.9L324.4 310L335.4 301.4L322.5 315L336.8 304.2L325.1 315.7L338.1 307.4L321.9 322.3L339.5 310.8L323.2 325L340.8 314.5L323.2 329.3L342.2 318.5L324.3 333L343.5 322.8L321.7 339.9L344.9 327.4L323.8 343.5L346.3 332.3L322 350.3L347.6 337.5L322 356.1L349 343L323.6 361L350.4 348.8L321.7 368.7L351.8 354.9L325.4 372.8L353.2 361.3L326.6 379L354.6 368L323.1 388.7L356 375ZM356 375L383.8 382.4L356.7 367.8L386.3 376.6L357.5 361L384.4 368.8L358.2 354.4L381.5 360.7L358.9 348.2L386 357L359.6 342.2L383.3 349.6L360.3 336.6L385.8 345.5L361.1 331.3L382.6 338.4L361.8 326.2L384.4 334.5L362.5 321.5L380.5 327.6L363.2 317L379.8 322.8L363.9 312.9L380.8 319.4L364.6 309.1L381.3 316.1L365.3 305.5L381 312.6L366 302.3L379.8 308.7L366.7 299.4L377.6 304.4L367.4 296.7L378 302.3L368.1 294.4L376.5 299.1L368.7 292.4L376.8 297.8L369.4 290.7L377.2 297.1L370.1 289.3L375.5 294.5L370.8 288.1L374.9 293.9L371.5 287.3L366.4 285.2L370.8 288.1L365 286.9L370.1 289.3L361.8 288.6L369.4 290.7L361.4 290.7L368.7 292.4L359.3 293L368.1 294.4L356.2 295.7L367.4 296.7L355.9 298.4L366.7 299.4L350.9 302L366 302.3L351.2 305.1L365.3 305.5L348.5 309.1L364.6 309.1L344.9 313.5L363.9 312.9L347.4 316.8L363.2 317L340.8 322.6L362.5 321.5L344.4 326.2L361.8 326.2L339.2 332.3L361.1 331.3L337 337.9L360.3 336.6L332.9 344.4L359.6 342.2L335.3 349.3L358.9 348.2L329.1 357L358.2 354.4L329.4 363.1L357.5 361L328.9 369.7L356.7 367.8L329.7 376.3L356 375ZM356 375L383.8 396.5L359.2 369L385.7 390.2L362.4 363.2L387.8 384.5L365.6 357.8L392.4 382.2L368.8 352.6L391.6 373.6L372 347.7L394.8 370.4L375.2 343.2L393.6 361.4L378.3 338.9L396 357.7L381.5 334.9L400.2 357.5L384.6 331.3L402.5 354.7L387.8 327.9L402 347.2L390.9 324.8L402.9 342L394 322L405.1 340.1L397.1 319.5L407.1 338L400.2 317.3L408.7 335.3L403.3 315.4L410.5 333.9L406.4 313.8L411.8 330.1L409.4 312.5L413.7 329.7L412.5 311.5L415.3 328.2L415.5 310.8L417.1 326.2L418.5 310.4L419.2 324.3L421.6 310.2L421.6 322.3L424.6 310.4L424.4 320.2L427.6 310.9L426.6 320.9L430.6 311.6L430.2 319.2L433.6 312.7L434.9 307.2L430.6 311.6L431.3 305.7L427.6 310.9L427.6 303.7L424.6 310.4L423.7 302.7L421.6 310.2L419.4 301.4L418.5 310.4L415.3 301.7L415.5 310.8L410.5 301.1L412.5 311.5L405.5 301.2L409.4 312.5L401.5 303.1L406.4 313.8L396.1 303.8L403.3 315.4L391.8 306L400.2 317.3L387 308.1L397.1 319.5L382.7 310.9L394 322L377.3 313.4L390.9 324.8L371.7 316.3L387.8 327.9L370 321L384.6 331.3L365.6 324.9L381.5 334.9L356.9 327.8L378.3 338.9L357.2 333.6L375.2 343.2L347.8 337.3L372 347.7L343.4 342.5L368.8 352.6L343.1 348.6L365.6 357.8L335.2 353.8L362.4 363.2L334 360.2L359.2 369L324 365.9L356 375ZM356 375L380.4 400.3L360.1 369.6L382.8 394L364.3 364.5L389.4 395.1L368.4 359.8L389.3 385.4L372.5 355.3L392.5 381.7L376.6 351.1L397.9 383.1L380.7 347.2L399.3 376.7L384.8 343.7L401.7 372.7L388.8 340.4L403.5 367.6L392.9 337.4L406.1 364.7L396.9 334.8L407.1 356.5L401 332.4L411 359.6L405 330.3L412.8 353.2L409 328.6L415.6 354.3L413 327.1L417.9 348.9L416.9 326L420.5 349.8L420.9 325.1L423.4 342.3L424.8 324.6L425.7 346L428.8 324.3L429.5 339.9L432.7 324.4L432.2 340.7L436.6 324.7L435.7 339.6L440.5 325.4L438.5 340.7L444.4 326.3L442.6 339.3L448.3 327.6L446.2 339.9L452.2 329.1L450.4 339.9L456 331L455.3 339.6L459.9 333.2L462 328.7L456 331L458.1 325.6L452.2 329.1L454.3 321.8L448.3 327.6L450.1 318.6L444.4 326.3L445.4 317L440.5 325.4L440.6 316L436.6 324.7L435.7 313.7L432.7 324.4L430.5 312.4L428.8 324.3L425.5 313L424.8 324.6L419.6 311.3L420.9 325.1L414.8 313.2L416.9 326L409.7 314.5L413 327.1L404.1 315.4L409 328.6L397.2 315.2L405 330.3L390.6 316.3L401 332.4L386.8 320.3L396.9 334.8L380.3 322.3L392.9 337.4L373.1 324.3L388.8 340.4L369.7 329.2L384.8 343.7L362.5 332L380.7 347.2L356.3 335.8L376.6 351.1L352 340.8L372.5 355.3L347.9 346L368.4 359.8L338.5 349.7L364.3 364.5L332.8 355.1L360.1 369.6L331.6 361.9L356 375ZM356 375L376.7 424.1L361.5 371.6L381 423.1L366.9 368.5L384.1 418.1L372.3 365.6L386.9 410.6L377.8 363L390.9 410.2L383.2 360.7L393.8 401.8L388.6 358.6L397.9 403.2L394 356.8L401.1 393.4L399.3 355.3L405 394.1L404.7 354L408.7 393.6L410 353.1L412.2 395.6L415.4 352.3L416.2 391.3L420.7 351.9L419.8 391.7L426 351.7L423.8 389.5L431.3 351.8L427.6 388.9L436.6 352.1L432.7 384.5L441.8 352.8L437.1 383.6L447.1 353.6L442.1 381.8L452.3 354.8L447.5 379.7L457.5 356.2L450.6 383.6L462.8 357.9L456.1 382.5L468 359.9L462.7 380.5L473.1 362.1L467.6 381.9L478.3 364.6L472.9 383.1L483.5 367.4L476.8 386.9L488.6 370.4L482.6 388.1L493.8 373.7L489.4 388.8L498.9 377.2L493.6 393L504 381.1L499.7 395.4L509.1 385.2L506.1 397.8L514.2 389.6L511.5 401.7L519.2 394.2L516.2 406.6L524.3 399.1L528.5 394.4L519.2 394.2L523.9 388.6L514.2 389.6L519.7 382.4L509.1 385.2L515.3 376.6L504 381.1L510.5 371.2L498.9 377.2L504.6 367.7L493.8 373.7L500 362.1L488.6 370.4L493.7 359.8L483.5 367.4L488.7 354.9L478.3 364.6L483.8 349.3L473.1 362.1L477.9 346.4L468 359.9L471.8 344.1L462.8 357.9L465.9 340.4L457.5 356.2L459.7 338.2L452.3 354.8L453.4 335.5L447.1 353.6L446.9 331.6L441.8 352.8L440.2 329.2L436.6 352.1L433.9 332.4L431.3 351.8L426.5 328L426 351.7L419.1 326L420.7 351.9L412.5 327.8L415.4 352.3L405.6 328.6L410 353.1L398.8 329.9L404.7 354L391.2 329.9L399.3 355.3L383.5 330.4L394 356.8L375.9 331.7L388.6 358.6L371.2 337L383.2 360.7L358.7 333.2L377.8 363L355.8 340.6L372.3 365.6L346.6 341.7L366.9 368.5L341.9 347.2L361.5 371.6L331.2 347.9L356 375ZM356 375L364 421.5L361.8 373.4L367.9 419.6L367.6 372L371.9 416.2L373.3 370.9L375.7 416.3L379.1 370.2L380.2 410.1L384.8 369.7L383.8 412.5L390.5 369.5L387.2 414.4L396.2 369.6L391.9 411L401.9 370L395.2 413.4L407.6 370.6L399.7 412.1L413.2 371.6L406 406.7L418.9 372.9L410.8 406.3L424.5 374.4L414.6 408.8L430.1 376.2L419.2 409.8L435.7 378.4L425.9 407.7L441.3 380.8L430.7 409.4L446.8 383.5L436.1 410.8L452.4 386.5L442.4 411.2L457.9 389.7L448.2 413.1L463.5 393.3L454.4 414.9L469 397.2L460.1 417.8L474.5 401.3L465.9 420.9L480 405.7L470.7 425.6L485.4 410.5L479.1 426.9L490.9 415.5L485.3 431L496.3 420.8L488.8 437.8L501.8 426.4L496.3 441.4L507.2 432.3L502 447L512.6 438.5L507.7 452.8L517.9 444.9L514.5 458.2L523.3 451.7L521.2 464L528.7 458.7L534.8 453.9L523.3 451.7L529.6 446.5L517.9 444.9L524.4 439.3L512.6 438.5L519 432.5L507.2 432.3L514 425.6L501.8 426.4L510.3 417.5L496.3 420.8L505.5 410.7L490.9 415.5L499 405.9L485.4 410.5L494.1 399.4L480 405.7L489.1 393.1L474.5 401.3L483.4 387.9L469 397.2L477 383.9L463.5 393.3L472.7 376.4L457.9 389.7L466 373.2L452.4 386.5L460.2 368L446.8 383.5L454 363.9L441.3 380.8L447.1 361.5L435.7 378.4L441 356.4L430.1 376.2L433.7 356.3L424.5 374.4L427.3 351.3L418.9 372.9L420.3 348L413.2 371.6L413.1 346L407.6 370.6L405.9 346.6L401.9 370L398.7 346L396.2 369.6L391.4 345.7L390.5 369.5L383.9 344.9L384.8 369.7L376.2 344.3L379.1 370.2L367.6 342.1L373.3 370.9L359.4 342L367.6 372L350.7 341.9L361.8 373.4L344 345.4L356 375ZM355.5 387a9.5 9.5 0 1 0 -19 0a9.5 9.5 0 1 0 19 0ZM368.5 391a8.5 8.5 0 1 0 -17 0a8.5 8.5 0 1 0 17 0ZM377.5 383a7.5 7.5 0 1 0 -15 0a7.5 7.5 0 1 0 15 0Z"/></svg>