<svg xmlns="http://www.w3.org/2000/svg" viewBox="0 0 1600 900"><path fill="#0e4a33" opacity=".9" d="M642.3 638.4L646 630L649.3 621.6L652.4 613.1L655.2 604.7L657.7 596.3L659.9 587.8L661.8 579.4L663.5 570.9L664.8 562.5L665.9 554L666.8 545.5L667.3 537.1L667.5 528.6L667.5 520.1L672.5 519.9L672.8 528.6L672.7 537.2L672.4 545.9L671.8 554.6L670.9 563.3L669.7 571.9L668.2 580.6L666.4 589.3L664.3 598L662 606.7L659.3 615.4L656.4 624.2L653.2 632.9L649.7 641.6ZM678.5 520a8.5 8.5 0 1 0 -17 0a8.5 8.5 0 1 0 17 0ZM670 520L671.8 507.3L665.6 518.9L665.8 506.3L661.3 518.3L659.2 508.6L657 518.2L653.6 508.7L652.7 518.5L648.1 510.7L648.4 519.3L642.5 510.7L644.2 520.5L637.4 513.6L639.9 522.2L633.1 517.9L635.7 524.3L627.6 519.6L631.5 526.9L623.2 523.6L627.4 529.9L619.3 528.4L623.2 533.4L615.3 533.2L619.1 537.3L611.9 538.7L615 541.7L608.2 544.2L610.9 546.5L604.1 549.7L606.8 551.8L600.8 556.2L602.8 557.6L605.4 559.3L606.8 551.8L610.2 554.2L610.9 546.5L614.6 549.4L615 541.7L619.8 545.7L619.1 537.3L624.4 542.2L623.2 533.4L629.7 539.9L627.4 529.9L633.6 537L631.5 526.9L638.2 535.5L635.7 524.3L642.1 533.9L639.9 522.2L646.4 533.7L644.2 520.5L649.9 532.8L648.4 519.3L653.2 532.4L652.7 518.5L657.5 536.1L657 518.2L660.4 537.3L661.3 518.3L663.1 538.1L665.6 518.9L665.8 539.2L670 520ZM670 520L676.5 512.1L666.9 517.3L672.5 509.3L663.8 514.9L667.9 507.4L660.7 512.9L665.1 504.2L657.7 511.2L660.1 503.4L654.6 509.8L656.4 501.5L651.6 508.8L651.6 501.8L648.6 508.2L647.8 500.7L645.6 507.8L643.7 501.3L642.6 507.9L639.7 503.6L639.6 508.3L636.1 504.5L636.7 509L632.5 505.4L633.7 510.1L629.4 508L630.8 511.5L626.1 509.9L627.9 513.3L623.5 513.1L625 515.4L620.9 516.3L622.1 517.8L624.3 520.1L625 515.4L627.8 518.5L627.9 513.3L630.6 516.8L630.8 511.5L633.5 515.7L633.7 510.1L636.7 515.6L636.7 509L640 516.7L639.6 508.3L642.4 516.8L642.6 507.9L644.4 516L645.6 507.8L646.8 517.2L648.6 508.2L648.9 518L651.6 508.8L651 519.3L654.6 509.8L652.7 523.5L657.7 511.2L655 523.3L660.7 512.9L656.6 526.9L663.8 514.9L658.7 529L666.9 517.3L661.1 530.7L670 520ZM670 520L679.3 516.8L668.6 516.3L679 513.1L667.2 512.8L675.3 509.6L665.8 509.7L674.1 506.3L664.5 506.7L671.5 503.4L663.1 504.1L669.6 500.7L661.7 501.7L669 498L660.4 499.7L666.4 495.8L659 497.8L663.3 494.2L657.7 496.3L661.9 492.2L656.4 495L658.7 491.4L655 494L656.6 490.4L653.7 493.3L654.5 489.5L652.4 492.8L652 489.7L651.1 492.6L649.9 490.5L649.8 492.7L648 490.9L648.5 493L649.7 495.4L649.8 492.7L650.8 496L651.1 492.6L651.7 497.5L652.4 492.8L652.2 497.9L653.7 493.3L652.6 498.9L655 494L653.2 499.7L656.4 495L653.6 501.1L657.7 496.3L653.6 503.6L659 497.8L654.5 504.8L660.4 499.7L654.5 507.6L661.7 501.7L655.4 509.4L663.1 504.1L655.9 512.2L664.5 506.7L655.3 516.3L665.8 509.7L657.1 518.3L667.2 512.8L657.5 521.9L668.6 516.3L657.3 526.4L670 520ZM670 520L678.5 520.3L670 516.8L680 517.9L670 513.8L679.2 514.8L670 510.9L677.3 511.4L669.9 508.3L676.7 508.7L669.9 505.8L677.3 506.6L669.9 503.6L677.1 504.5L669.9 501.5L675.3 501.8L669.9 499.6L676 500.4L669.9 497.9L675.3 498.6L669.8 496.4L674.4 496.9L669.8 495.1L673.7 495.5L669.8 493.9L672.8 494.2L669.8 493L672.3 493.2L669.8 492.2L672.5 492.7L669.8 491.6L671.5 491.9L669.8 491.3L667.8 492.2L669.8 491.6L667.5 492.6L669.8 492.2L666.6 493.6L669.8 493L666.3 494.5L669.8 493.9L666.1 495.5L669.8 495.1L665.8 496.8L669.8 496.4L664.6 498.6L669.9 497.9L665.1 500L669.9 499.6L664.4 502L669.9 501.5L663.4 504.3L669.9 503.6L662.3 506.8L669.9 505.8L662.2 509.1L669.9 508.3L662.5 511.5L670 510.9L660.5 515L670 513.8L661.8 517.3L670 516.8L661.8 520.3L670 520ZM670 520L680.7 525.8L671.5 516.6L680.6 521.4L673.1 513.4L681.8 518.6L674.6 510.5L683 516.2L676.1 507.9L684.2 514.1L677.6 505.5L684.2 510.7L679.1 503.4L685.2 509.2L680.6 501.6L686.5 508.5L682.1 500L687.1 507L683.6 498.7L687.3 504.8L685.1 497.6L687.8 503.6L686.5 496.8L688.3 502.2L688 496.3L689.1 500.6L689.5 496L690 499.7L690.9 496L691.2 499.1L692.3 496.3L692.2 499.5L693.8 496.8L694.3 495L692.3 496.3L692.6 493.7L690.9 496L690.6 493.6L689.5 496L688.2 492.8L688 496.3L685.9 493.1L686.5 496.8L683.2 493.4L685.1 497.6L681.2 494.7L683.6 498.7L677.8 495.4L682.1 500L676.9 497.7L680.6 501.6L673.7 499.3L679.1 503.4L671 501.4L677.6 505.5L668.3 503.8L676.1 507.9L666.4 506.6L674.6 510.5L664.2 509.6L673.1 513.4L661.7 512.8L671.5 516.6L659 516.3L670 520ZM670 520L679.6 533.1L673.2 517.3L681.9 531.2L676.4 515L683.8 528.6L679.5 513L685.3 524.6L682.7 511.4L687.4 524L685.8 510.1L689.4 522.5L689 509.2L691.4 520.1L692.1 508.6L693.5 519L695.2 508.4L696 517.4L698.2 508.5L698.4 517.2L701.3 509L701.1 517L704.3 509.9L704.5 516.2L707.4 511.1L707 517.5L710.4 512.6L710 518.8L713.4 514.5L713.4 520L716.4 516.8L717 521.7L719.3 519.4L720.7 517.7L716.4 516.8L718.1 514.3L713.4 514.5L715.1 511.5L710.4 512.6L711.9 509.1L707.4 511.1L708.8 506.4L704.3 509.9L705 505.5L701.3 509L701.4 503.1L698.2 508.5L697.6 503.3L695.2 508.4L693.3 501.7L692.1 508.6L689.1 501.9L689 509.2L685.1 502.8L685.8 510.1L680.1 502.8L682.7 511.4L676 504.6L679.5 513L671.3 506.3L676.4 515L666.1 508L673.2 517.3L663.6 511.8L670 520ZM670 520L674.6 535.2L673.9 518.8L677.2 535.2L677.8 518L680 531.7L681.7 517.6L682.9 530.5L685.6 517.6L685.1 532.4L689.5 518L688.4 531L693.3 518.8L692 530.2L697.1 520.1L694.9 531.8L700.9 521.7L699.4 531.2L704.7 523.8L702.8 533.2L708.4 526.2L707.4 534.2L712.2 529.1L711.2 536.9L715.9 532.3L714.9 540.2L719.6 536L719 543.5L723.3 540.1L723.3 547.2L726.9 544.5L728 551.1L730.6 549.4L732.6 547.9L726.9 544.5L729.2 542.7L723.3 540.1L725.7 537.8L719.6 536L722.5 532.9L715.9 532.3L719.3 528.2L712.2 529.1L715.6 524.2L708.4 526.2L711.6 520.7L704.7 523.8L707.7 517.1L700.9 521.7L703 515.4L697.1 520.1L698.5 513.3L693.3 518.8L694 510.8L689.5 518L689.1 509.8L685.6 517.6L684 509.1L681.7 517.6L678.7 508.2L677.8 518L673 507.9L673.9 518.8L667.8 509L670 520ZM669.5 532a9.5 9.5 0 1 0 -19 0a9.5 9.5 0 1 0 19 0ZM682.5 536a8.5 8.5 0 1 0 -17 0a8.5 8.5 0 1 0 17 0ZM691.5 528a7.5 7.5 0 1 0 -15 0a7.5 7.5 0 1 0 15 0ZM938.2 656.3L935.3 646.9L932.6 637.5L930.1 628.1L927.9 618.7L926 609.3L924.2 599.9L922.8 590.5L921.6 581.1L920.6 571.7L919.9 562.4L919.4 553L919.2 543.6L919.2 534.3L919.5 524.9L924.5 525.1L924.4 534.3L924.6 543.5L925.1 552.7L925.7 561.9L926.7 571.1L927.8 580.3L929.2 589.5L930.9 598.7L932.7 607.9L934.9 617L937.2 626.2L939.8 635.4L942.7 644.6L945.8 653.7ZM930.5 525a8.5 8.5 0 1 0 -17 0a8.5 8.5 0 1 0 17 0ZM922 525L924 512L917.6 523.9L917.6 511.7L913.2 523.3L911.5 512L908.8 523.1L905.6 512.5L904.5 523.4L899.8 515.3L900.1 524.2L894.4 516.5L895.8 525.4L889.4 519.6L891.5 527.1L883.9 521L887.3 529.2L880 526.1L883 531.8L874.8 528.7L878.8 534.8L871.3 534.1L874.6 538.3L866.6 538L870.4 542.3L863 543.5L866.3 546.7L859.1 549L862.1 551.6L855 554.6L858 557L852 561.4L853.9 562.8L856.5 564.5L858 557L862.1 559.8L862.1 551.6L866.5 554.9L866.3 546.7L870.7 550.4L870.4 542.3L876.7 548.1L874.6 538.3L881.3 545.2L878.8 534.8L884.4 541.3L883 531.8L889.4 540L887.3 529.2L893.1 538L891.5 527.1L897.5 537.7L895.8 525.4L901.9 538.5L900.1 524.2L904.8 537L904.5 523.4L908.9 539.9L908.8 523.1L911.4 538L913.2 523.3L914.7 539.9L917.6 523.9L917.7 545L922 525ZM922 525L929 517.1L919 522.3L925.5 514.1L916 519.9L921.1 512L913 517.9L916.8 510.2L910.1 516.1L912.1 509.3L907.1 514.8L909 506.9L904.2 513.7L905 505.9L901.3 513L900.8 505.7L898.4 512.7L896.7 506.6L895.5 512.6L892.9 507.8L892.7 513L889.3 509L889.8 513.6L885.9 510.2L887 514.6L882.7 512.2L884.1 515.9L880 515L881.3 517.6L877.1 517.5L878.5 519.6L874.4 520.3L875.7 521.9L877.8 524L878.5 519.6L881.2 522.7L881.3 517.6L884.1 521.3L884.1 515.9L886.7 520L887 514.6L890.2 520.8L889.8 513.6L892.5 520.2L892.7 513L895.1 520.8L895.5 512.6L897.2 520.9L898.4 512.7L899.4 522.4L901.3 513L901.4 523.5L904.2 513.7L903.3 526.3L907.1 514.8L905.4 525.7L910.1 516.1L907 529.3L913 517.9L909.2 530.1L916 519.9L910.4 534.5L919 522.3L913.5 534.7L922 525ZM922 525L931 521.7L920.6 521.7L929.8 518.3L919.2 518.6L926.2 515.3L917.8 515.8L925.2 512.3L916.5 513.2L922.6 509.8L915.1 510.8L920.7 507.4L913.7 508.8L919 505.1L912.4 506.9L917.7 502.9L911 505.4L914.7 501.6L909.7 504L913.1 499.9L908.3 503L910 499.5L907 502.1L908.3 498.2L905.7 501.6L905.7 498.4L904.4 501.2L903.5 498.8L903.1 501.2L901.7 499L901.8 501.3L899.9 499.9L900.5 501.8L901.5 503.8L901.8 501.3L902.8 504.3L903.1 501.2L903.9 505.5L904.4 501.2L904.6 505.9L905.7 501.6L905.1 506.7L907 502.1L905.7 507.4L908.3 503L906.3 508.6L909.7 504L906.3 511.1L911 505.4L906.4 513.5L912.4 506.9L906.8 515.4L913.7 508.8L908.1 516.4L915.1 510.8L909.6 517.6L916.5 513.2L909.7 520.8L917.8 515.8L909.4 524.7L919.2 518.6L910 527.9L920.6 521.7L911.1 530.7L922 525ZM922 525L931.4 525.3L921.8 521.8L930.6 522L921.7 518.8L930.3 519.1L921.5 516L928.8 516L921.3 513.4L929.6 513.9L921.2 511L928.8 511.4L921 508.7L926.7 508.7L920.9 506.7L926.3 506.7L920.7 504.9L926.6 505.1L920.5 503.2L925 503.1L920.4 501.7L925.3 501.9L920.2 500.5L924 500.4L920.1 499.4L923.6 499.3L919.9 498.5L922.9 498.3L919.7 497.8L921.8 497.4L919.6 497.3L921.1 496.6L919.4 497L918.2 498.6L919.6 497.3L917.4 499.2L919.7 497.8L916.9 499.8L919.9 498.5L917 500.3L920.1 499.4L915.9 501.9L920.2 500.5L916.1 502.8L920.4 501.7L916 504.2L920.5 503.2L915.4 506L920.7 504.9L914.1 508.3L920.9 506.7L914.5 510L921 508.7L914 512.3L921.2 511L913 515L921.3 513.4L912.5 517.7L921.5 516L912.6 520.3L921.7 518.8L913.1 523L921.8 521.8L912.3 526.4L922 525ZM922 525L934.4 531L923.3 521.3L934.4 526.8L924.7 517.9L934.4 522.8L926 514.7L935.1 519.8L927.3 511.8L936.5 517.7L928.7 509.2L936.7 514.8L930 506.8L936.3 511.3L931.3 504.7L937.8 510.6L932.6 502.9L938.4 509.2L933.9 501.4L938.6 507.4L935.2 500.1L938.9 506.1L936.4 499.1L939.1 504.9L937.7 498.3L939.3 503.1L939 497.8L939.7 502.4L940.2 497.6L940.5 501.1L941.5 497.7L941.6 500.3L942.7 498L943.1 496.2L941.5 497.7L941.3 495.4L940.2 497.6L939.2 494.5L939 497.8L936.9 494.7L937.7 498.3L934.7 495.4L936.4 499.1L932.3 496.3L935.2 500.1L930.7 497.9L933.9 501.4L927.9 499.3L932.6 502.9L925.4 501.1L931.3 504.7L923.9 503.4L930 506.8L922.2 505.9L928.7 509.2L919.8 508.6L927.3 511.8L918 511.5L926 514.7L915 514.7L924.7 517.9L914.6 518.2L923.3 521.3L912.8 521.9L922 525ZM922 525L931.5 537.2L925 522.3L933.5 534.7L927.9 520L935.1 531.9L930.9 518L937.1 530.7L933.8 516.3L938.5 526.7L936.7 515L940.3 524L939.6 514L942.3 524L942.5 513.3L944.3 522.6L945.4 513L946.5 521L948.2 513L948.5 521.4L951.1 513.3L951.2 520.3L953.9 514L954 520.1L956.7 515L956.7 520.7L959.5 516.3L959.2 522.1L962.3 517.9L962.9 522.4L965.1 519.9L965.8 524.3L967.8 522.2L969.1 520.7L965.1 519.9L966.4 517.9L962.3 517.9L963.8 515.2L959.5 516.3L960.8 513.1L956.7 515L957.9 510.4L953.9 514L954.4 509.2L951.1 513.3L950.9 507.7L948.2 513L947.3 507.8L945.4 513L943.3 507L942.5 513.3L939.2 506.8L939.6 514L934.8 507L936.7 515L931.5 509.1L933.8 516.3L927.1 510.2L930.9 518L922.2 511.5L927.9 520L918.1 513.9L925 522.3L915.6 517.5L922 525ZM922 525L926.8 543.5L926.2 523.8L929.5 539.9L930.3 523L932.1 539.7L934.5 522.7L935 538.4L938.6 522.7L937.7 538.7L942.7 523.2L941.6 536.6L946.7 524.2L944.9 537L950.8 525.6L949.2 536.5L954.8 527.4L952.5 538.4L958.8 529.6L957.3 539L962.8 532.3L961.3 541.3L966.8 535.4L965.8 543.7L970.7 538.9L970.3 546.7L974.7 542.9L974.9 550.2L978.6 547.3L979.3 554.5L982.5 552.1L983.5 559.3L986.3 557.4L988.3 556L982.5 552.1L984.7 550.3L978.6 547.3L981.7 544.4L974.7 542.9L977.6 539.8L970.7 538.9L974.5 534.5L966.8 535.4L970.3 530.6L962.8 532.3L966 527L958.8 529.6L962.1 522.7L954.8 527.4L957.6 519.5L950.8 525.6L952.5 518.1L946.7 524.2L947.5 516.4L942.7 523.2L942.4 513.5L938.6 522.7L936.8 511.9L934.5 522.7L931.3 512.1L930.3 523L925.3 511.7L926.2 523.8L920 513.6L922 525ZM921.5 537a9.5 9.5 0 1 0 -19 0a9.5 9.5 0 1 0 19 0ZM934.5 541a8.5 8.5 0 1 0 -17 0a8.5 8.5 0 1 0 17 0ZM943.5 533a7.5 7.5 0 1 0 -15 0a7.5 7.5 0 1 0 15 0Z"/><path fill="#0a3a27" d="M30 -30L2.4 3.3L33.6 -26.6L1.2 9.8L37.2 -23.1L5.7 11.2L40.8 -19.3L11.2 12.2L44.4 -15.4L17.7 12.8L48 -11.2L16.6 19.7L51.5 -6.9L20.8 22.8L55.1 -2.4L27.6 24.2L58.6 2.3L32 27.7L62.2 7.2L38.5 30.1L65.7 12.3L44.7 33.2L69.2 17.6L46.1 39.4L72.7 23.1L48.8 45L76.2 28.8L57 47.7L79.7 34.7L56.2 55.7L83.2 40.7L64.5 58.9L86.7 47L68.9 64.5L90.2 53.4L74.5 69.8L93.6 60.1L73.2 78.7L97.1 66.9L79.2 84.1L100.5 73.9L83 90.9L103.9 81.1L88.9 97L107.3 88.6L96.2 102.6L110.8 96.2L99.2 110.4L114.2 103.9L102.9 118.1L117.6 111.9L108.8 125.1L120.9 120.1L110.2 134.2L124.3 128.5L116.7 141.4L127.7 137.1L121.7 149.4L131 145.8L124.4 158.5L134.4 154.8L130.5 166.6L137.7 163.9L145.6 161.1L134.4 154.8L142.2 151.9L131 145.8L140 142.5L127.7 137.1L137 133.5L124.3 128.5L134.9 124.3L120.9 120.1L131.5 115.9L117.6 111.9L128.3 107.5L114.2 103.9L128.8 97.7L110.8 96.2L123.8 90.4L107.3 88.6L123.4 81.3L103.9 81.1L118.3 74.4L100.5 73.9L119.1 64.9L97.1 66.9L116.1 57.3L93.6 60.1L112.8 50.1L90.2 53.4L110.1 42.7L86.7 47L106.3 36L83.2 40.7L104.3 28.5L79.7 34.7L98 23.7L76.2 28.8L97.1 15.8L72.7 23.1L96.2 7.9L69.2 17.6L89.3 4L65.7 12.3L90.7 -5.4L62.2 7.2L87.3 -11.4L58.6 2.3L81 -15.1L55.1 -2.4L77.4 -20.6L51.5 -6.9L74.5 -26.7L48 -11.2L70.6 -31.8L44.4 -15.4L70.9 -40.9L40.8 -19.3L63.2 -42.3L37.2 -23.1L57.1 -44.7L33.6 -26.6L53.6 -50L30 -30ZM30 -30L-5.6 -10.4L31.8 -25.7L-5.4 -6L33.6 -21.2L2.2 -4.1L35.3 -16.5L5 -0.1L37.1 -11.6L7.3 4.4L38.9 -6.5L8.4 9.5L40.6 -1.2L15.6 12.9L42.4 4.4L15.3 19L44.1 10.2L18.6 24.3L45.9 16.2L20.9 30L47.6 22.4L26.8 35L49.3 28.8L29.6 41.2L51.1 35.4L31.2 47.9L52.8 42.3L30.5 55.4L54.5 49.3L36.8 61.4L56.2 56.6L38.2 68.8L57.9 64.1L42.5 75.8L59.6 71.8L46.2 83.1L61.3 79.7L49 90.9L63 87.8L48.6 99.6L64.7 96.2L51.6 107.8L66.4 104.8L55.9 116L68 113.5L57.7 124.9L69.7 122.5L60.5 133.9L71.4 131.7L62.8 143.1L73 141.2L65.5 152.5L74.7 150.8L69.5 161.9L76.4 160.7L83.8 159.6L74.7 150.8L83.3 149.5L73 141.2L81.9 139.8L71.4 131.7L82.1 130L69.7 122.5L80.3 120.8L68 113.5L79.3 111.6L66.4 104.8L78.1 102.7L64.7 96.2L79.8 93.4L63 87.8L76.3 85.3L61.3 79.7L75.1 77L59.6 71.8L77.6 68.2L57.9 64.1L76.8 60.1L56.2 56.6L74.6 52.6L54.5 49.3L75.8 44.5L52.8 42.3L70.6 38.1L51.1 35.4L70.9 30.6L49.3 28.8L70.2 23.5L47.6 22.4L70.2 16.5L45.9 16.2L67.6 10.2L44.1 10.2L66 4L42.4 4.4L66.9 -2.9L40.6 -1.2L70 -10.3L38.9 -6.5L69.8 -16.6L37.1 -11.6L67 -21.9L35.3 -16.5L63.8 -26.8L33.6 -21.2L60.8 -31.6L31.8 -25.7L65.5 -39.3L30 -30ZM30 -30L13.3 10.6L34.8 -28L16.3 12.9L39.5 -25.8L25 6.5L44.3 -23.4L28.4 9.2L49 -20.7L29.1 15.8L53.7 -17.9L34.1 16.6L58.4 -14.8L38.4 18.6L63.1 -11.6L45 18.3L67.8 -8.1L51.1 19.2L72.4 -4.4L55.1 22.5L77.1 -0.5L58.7 26.7L81.7 3.7L67 26.5L86.3 8L70.8 31L90.9 12.5L77.5 33.2L95.5 17.3L80.1 39.2L100.1 22.3L89.3 40L104.7 27.5L91.3 46.9L109.2 32.9L95.4 52.3L113.8 38.5L104.9 54.1L118.3 44.3L107.9 60.9L122.8 50.3L113.1 66.3L127.3 56.6L117.8 72.3L131.8 63L124.2 77.5L136.3 69.7L130.6 82.9L140.8 76.6L135.6 89.5L145.2 83.7L139.6 96.9L149.7 91L145.3 103.6L154.1 98.5L152.3 109.7L158.5 106.3L163.4 103.5L154.1 98.5L159.7 95.2L149.7 91L155.8 87.3L145.2 83.7L152.9 78.8L140.8 76.6L148.4 71.6L136.3 69.7L146.3 62.8L131.8 63L142 55.8L127.3 56.6L136.6 49.7L122.8 50.3L133.8 41.8L118.3 44.3L129.1 35.5L113.8 38.5L125.6 28.5L109.2 32.9L120.5 22.8L104.7 27.5L116.1 16.8L100.1 22.3L111.9 10.7L95.5 17.3L108.2 4.1L90.9 12.5L105.1 -2.9L86.3 8L99.9 -7.8L81.7 3.7L93.4 -10.9L77.1 -0.5L91.3 -19.3L72.4 -4.4L87 -25.2L67.8 -8.1L81.7 -29.6L63.1 -11.6L76.7 -34.4L58.4 -14.8L68.9 -34.1L53.7 -17.9L65.2 -41.1L49 -20.7L58.6 -42.4L44.3 -23.4L55.1 -51.1L39.5 -25.8L47.8 -50.4L34.8 -28L43.3 -57.9L30 -30ZM1575 -35L1549.8 -56.9L1571.4 -31.6L1542.9 -55.3L1567.8 -28.1L1541.7 -47.6L1564.2 -24.4L1539.8 -40.7L1560.7 -20.5L1533.8 -37.7L1557.1 -16.4L1530.8 -31.8L1553.5 -12.1L1523.5 -29.6L1550 -7.6L1524.1 -20.5L1546.5 -3L1519.5 -15.7L1542.9 1.9L1516 -9.9L1539.4 6.9L1510.3 -5.5L1535.9 12.1L1512.6 4.4L1532.4 17.5L1506.5 8.9L1528.9 23.1L1504.1 15.8L1525.4 28.8L1499.9 21.8L1521.9 34.8L1495.7 28L1518.5 40.9L1496.6 37.2L1515 47.3L1491.7 43.3L1511.6 53.8L1489.9 51.1L1508.1 60.5L1487 58.6L1504.7 67.4L1486.7 67.4L1501.3 74.4L1480.6 73.7L1497.9 81.7L1477.4 81.4L1494.5 89.1L1477.4 90.8L1491.1 96.7L1474.9 99.1L1487.7 104.6L1470 106.6L1484.3 112.6L1470.5 116.5L1480.9 120.7L1468 125.4L1477.5 129.1L1465.4 134.3L1474.2 137.7L1461 142.7L1470.8 146.4L1458.8 152.2L1467.5 155.3L1457.1 161.9L1464.2 164.4L1472.8 167.6L1467.5 155.3L1475.7 158.4L1470.8 146.4L1481.8 150.6L1474.2 137.7L1485.6 142.2L1477.5 129.1L1490.3 134.2L1480.9 120.7L1494.3 126.2L1484.3 112.6L1498.8 118.6L1487.7 104.6L1502.4 110.9L1491.1 96.7L1505.9 103.3L1494.5 89.1L1512.2 97.1L1497.9 81.7L1515.6 89.9L1501.3 74.4L1522.6 84.6L1504.7 67.4L1527.7 78.6L1508.1 60.5L1531.7 72.3L1511.6 53.8L1534.5 65.6L1515 47.3L1537.4 59.1L1518.5 40.9L1542.8 54.2L1521.9 34.8L1547.9 49.4L1525.4 28.8L1553.4 45.1L1528.9 23.1L1560.4 42L1532.4 17.5L1557.8 33.2L1535.9 12.1L1565.4 31L1539.4 6.9L1569.8 27L1542.9 1.9L1576.1 24.6L1546.5 -3L1581.9 22.3L1550 -7.6L1585.2 18.4L1553.5 -12.1L1588 14.4L1557.1 -16.4L1593.4 12.7L1560.7 -20.5L1596.6 9.6L1564.2 -24.4L1602.5 9.1L1567.8 -28.1L1604.9 5.9L1571.4 -31.6L1608.7 4.1L1575 -35ZM1575 -35L1544.5 -42.3L1573.2 -30.8L1537.6 -39.2L1571.5 -26.3L1540.9 -32L1569.7 -21.6L1538 -27.1L1567.9 -16.8L1535.3 -21.8L1566.2 -11.7L1533.3 -16.2L1564.4 -6.4L1532.3 -10L1562.7 -0.9L1538.6 -1.6L1560.9 4.8L1535.4 4.1L1559.2 10.7L1534.5 10.7L1557.5 16.8L1533.1 17.3L1555.7 23.1L1533.8 24.7L1554 29.6L1530.4 31.2L1552.3 36.3L1532.4 39.1L1550.6 43.3L1530.3 46.3L1548.9 50.4L1526.1 53.3L1547.2 57.8L1526.5 61.4L1545.5 65.3L1527.2 69.8L1543.8 73.1L1528 78.3L1542.1 81L1523.7 86.1L1540.4 89.2L1524.1 94.9L1538.7 97.6L1525.2 104.1L1537 106.2L1524.1 113L1535.4 115L1522.4 122.1L1533.7 124L1521.7 131.5L1532.1 133.2L1522.1 141.3L1530.4 142.6L1519.9 150.9L1528.7 152.2L1520.6 161.1L1527.1 162L1533.9 163.2L1528.7 152.2L1537.9 153.9L1530.4 142.6L1539 144.2L1532.1 133.2L1543.2 135.3L1533.7 124L1544.4 126.1L1535.4 115L1548.5 117.6L1537 106.2L1550.1 108.9L1538.7 97.6L1553.2 100.7L1540.4 89.2L1558.5 93.2L1542.1 81L1559.1 84.9L1543.8 73.1L1561.8 77.2L1545.5 65.3L1565.5 70.1L1547.2 57.8L1566.4 62.4L1548.9 50.4L1568.5 55.3L1550.6 43.3L1572.5 48.9L1552.3 36.3L1574.6 42.2L1554 29.6L1576.7 35.8L1555.7 23.1L1585.1 31.4L1557.5 16.8L1581 23.6L1559.2 10.7L1589.8 19.9L1560.9 4.8L1593.7 15L1562.7 -0.9L1594.7 9.4L1564.4 -6.4L1591.5 2.7L1566.2 -11.7L1598.6 -0.4L1567.9 -16.8L1597 -6.2L1569.7 -21.6L1605.2 -8.3L1571.5 -26.3L1608.9 -11.6L1573.2 -30.8L1607 -16.9L1575 -35ZM1575 -35L1563.1 -58.1L1570.2 -33L1556 -59.2L1565.5 -30.8L1551.6 -52.2L1560.8 -28.4L1545.5 -50.1L1556.1 -25.8L1539.7 -47.2L1551.4 -23L1532.9 -45.9L1546.7 -20L1529.5 -38.1L1542 -16.8L1525.4 -32.2L1537.3 -13.4L1518 -31.2L1532.7 -9.8L1513 -26.3L1528.1 -5.9L1509.5 -19.7L1523.4 -1.9L1506.7 -12.1L1518.8 2.3L1501.6 -7.4L1514.2 6.8L1496.3 -2.7L1509.6 11.4L1491.4 2.5L1505.1 16.3L1488.3 9.7L1500.5 21.3L1482 13.8L1496 26.6L1477.7 20.1L1491.4 32.1L1473.4 26.5L1486.9 37.7L1469.6 33.4L1482.4 43.6L1468.3 42.4L1477.9 49.7L1462.7 48.1L1473.4 56L1460.2 56.3L1468.9 62.5L1454.2 62.1L1464.5 69.1L1450.8 70L1460 76L1447.1 77.8L1455.6 83.1L1444.6 86.4L1451.2 90.4L1441.1 94.6L1446.8 98L1436.2 102.1L1442.4 105.7L1449.7 109.7L1446.8 98L1455.2 102.7L1451.2 90.4L1460.2 95.7L1455.6 83.1L1466.6 89.7L1460 76L1470.6 82.6L1464.5 69.1L1475.8 76.3L1468.9 62.5L1481.4 70.6L1473.4 56L1486.5 64.8L1477.9 49.7L1493.2 60.4L1482.4 43.6L1499.8 56.1L1486.9 37.7L1501.4 48.6L1491.4 32.1L1506.7 43.8L1496 26.6L1514.1 41.1L1500.5 21.3L1520.3 37.8L1505.1 16.3L1522.9 31.7L1509.6 11.4L1528.5 28.4L1514.2 6.8L1532.5 23.8L1518.8 2.3L1537.4 20.5L1523.4 -1.9L1545.3 20.3L1528.1 -5.9L1551.5 19L1532.7 -9.8L1556.3 16.6L1537.3 -13.4L1558 11L1542 -16.8L1562.5 8.6L1546.7 -20L1572.6 13.9L1551.4 -23L1574.8 9.4L1556.1 -25.8L1578.5 7.2L1560.8 -28.4L1584.8 9.3L1565.5 -30.8L1589.4 9.3L1570.2 -33L1592.4 6.9L1575 -35ZM800 940L828.2 933.8L797.3 933.7L831.6 927.3L794.6 927.5L822 921.1L791.9 921.6L816.7 915.1L789.2 915.9L815.6 909.1L786.5 910.4L813.3 903.3L783.9 905.1L810.2 897.8L781.2 900L802.9 892.8L778.5 895L803 887.4L775.9 890.3L797.6 882.7L773.3 885.8L791.6 878.4L770.6 881.5L792.1 873.3L768 877.5L787.9 869.2L765.4 873.6L784.5 865.1L762.8 869.9L779.3 861.6L760.2 866.4L773.2 858.7L757.6 863.1L772 854.6L755 860.1L768.5 851.4L752.4 857.2L763.2 849.1L749.9 854.5L760.6 845.9L747.3 852.1L756.9 843.5L744.7 849.8L751.4 842.4L742.2 847.8L748.9 839.7L739.7 845.9L745 838.2L737.1 844.3L740.9 837.2L734.6 842.8L736.2 837.4L732.1 841.6L733.1 836.3L729.6 840.6L728.4 849.3L732.1 841.6L730.2 851.6L734.6 842.8L731.8 854.5L737.1 844.3L733.4 856.7L739.7 845.9L735.6 857.7L742.2 847.8L736 863.4L744.7 849.8L738.1 864.9L747.3 852.1L738.8 869.6L749.9 854.5L741.8 869.8L752.4 857.2L741.1 877.1L755 860.1L743.8 878.6L757.6 863.1L744.4 883.6L760.2 866.4L745.9 887.4L762.8 869.9L746.7 892.5L765.4 873.6L750.3 893.8L768 877.5L753.1 896.6L770.6 881.5L753.1 903.3L773.3 885.8L755.8 906.7L775.9 890.3L755.4 914.2L778.5 895L755.2 921.4L781.2 900L759.5 923.8L783.9 905.1L762.6 927.8L786.5 910.4L764.9 932.9L789.2 915.9L763.7 941.8L791.9 921.6L764.1 949.3L794.6 927.5L770 951.5L797.3 933.7L766.5 963.1L800 940ZM800 940L836.6 945.6L799.5 932.9L834 937.8L799 925.9L841.2 933.7L798.5 919.2L835.3 925.2L798 912.6L837.4 919.6L797.4 906.2L831.9 911.6L796.9 900L826.6 904L796.4 894L826.2 898.1L795.9 888.2L826.3 892.6L795.4 882.6L826.5 887.3L794.9 877.1L825.9 881.9L794.4 871.9L824.1 876.3L793.9 866.8L821.6 870.7L793.4 862L817.1 864.7L792.9 857.3L816.8 860.1L792.4 852.8L814.9 855.3L792 848.5L814 850.9L791.5 844.4L811 846.2L791 840.4L811.1 842.5L790.5 836.7L809 838.3L790 833.1L805.3 834L789.5 829.8L807.6 831.4L789 826.6L804.8 827.7L788.5 823.6L804.1 824.6L788.1 820.8L802.1 821.5L787.6 818.2L800.4 818.6L787.1 815.8L799.5 816.1L786.6 813.6L796 813.3L786.1 811.6L794.5 811L785.7 809.7L792 808.9L785.2 808L777.8 813.8L785.7 809.7L777.3 815.9L786.1 811.6L776.7 818.2L786.6 813.6L774.8 821.6L787.1 815.8L776.6 822.8L787.6 818.2L775.9 825.7L788.1 820.8L773.4 830L788.5 823.6L772.4 833.5L789 826.6L773.1 836.1L789.5 829.8L774.6 838.6L790 833.1L772.5 843.3L790.5 836.7L769.4 848.7L791 840.4L770.6 851.9L791.5 844.4L770.2 856.2L792 848.5L770 860.6L792.4 852.8L767.9 866.2L792.9 857.3L767.4 871.1L793.4 862L766.1 876.6L793.9 866.8L764.1 882.7L794.4 871.9L764.3 887.8L794.9 877.1L766.7 892L795.4 882.6L767.2 897.3L795.9 888.2L761.9 905.8L796.4 894L761.1 912.2L796.9 900L759.2 919.4L797.4 906.2L765.6 922.5L798 912.6L758.5 932.6L798.5 919.2L757.4 939.9L799 925.9L765.3 942.8L799.5 932.9L762.3 951.5L800 940ZM800 940L833.3 958.9L802.2 933.4L830.4 948.7L804.3 927L836.9 946.6L806.5 920.8L833.6 936.4L808.6 914.8L837.6 932.7L810.8 909.1L835.9 924.3L812.9 903.5L836.5 917.9L815.1 898.2L837.5 912.3L817.2 893.1L840.3 908.5L819.3 888.2L842.5 904.4L821.4 883.5L840.8 896.7L823.5 879L844.1 894.3L825.6 874.8L843.4 887.9L827.7 870.7L845.8 885L829.8 866.9L845.5 879.4L831.9 863.2L845.8 874.6L833.9 859.8L846.7 870.6L836 856.6L847.5 866.7L838.1 853.7L850.2 865.8L840.1 850.9L850.4 861.4L842.2 848.3L850.8 857.3L844.2 846L853.1 856.9L846.2 843.9L853.6 853.3L848.3 841.9L853.8 848.9L850.3 840.2L855.6 848.3L852.3 838.7L856.6 845.6L854.3 837.5L849.9 833.9L852.3 838.7L846.6 834.9L850.3 840.2L842.5 835.8L848.3 841.9L840.4 838.2L846.2 843.9L836.5 839.9L844.2 846L833.2 842.1L842.2 848.3L830.8 844.9L840.1 850.9L827.6 847.7L838.1 853.7L822.7 850.4L836 856.6L819.9 853.8L833.9 859.8L817.4 857.4L831.9 863.2L813.8 861.1L829.8 866.9L812.1 865.2L827.7 870.7L805.7 869.1L825.6 874.8L806.9 873.8L823.5 879L799.9 878.2L821.4 883.5L797.8 883.1L819.3 888.2L796.2 888.2L817.2 893.1L790.3 893.5L815.1 898.2L787 899L812.9 903.5L787.6 904.6L810.8 909.1L781.1 910.6L808.6 914.8L780.6 916.6L806.5 920.8L771.8 923.4L804.3 927L772.8 929.6L802.2 933.4L769.5 936.4L800 940ZM800 940L818.2 926.1L795.4 935.1L811.3 921.8L790.7 930.5L806.3 916.8L786.1 926.1L800.3 912.6L781.5 922L797 907.2L776.9 918.1L792.2 902.8L772.4 914.5L783.2 901.3L767.8 911.1L776.9 898.4L763.3 908L772.8 894.3L758.8 905.1L765.5 893L754.2 902.5L760.7 889.9L749.8 900.1L756 887L745.3 898L748.8 886.9L740.8 896.1L744.3 884.3L736.4 894.5L738.3 883.7L732 893.1L732.1 884.2L727.6 892L727 883.5L723.2 891.1L722.1 882.7L718.8 890.5L716.5 884L714.5 890.2L711.6 884.3L710.1 890L706.8 884.6L705.8 890.2L702 885.6L701.5 890.5L703.3 897.4L705.8 890.2L707.7 898.8L710.1 890L711.5 898.4L714.5 890.2L715.7 900.7L718.8 890.5L719.7 902.5L723.2 891.1L723.6 906.8L727.6 892L727.3 906.8L732 893.1L730.8 911.2L736.4 894.5L734.7 910.2L740.8 896.1L738 915.4L745.3 898L741.1 920.7L749.8 900.1L744.5 923.4L754.2 902.5L748.2 925.7L758.8 905.1L752.3 926.8L763.3 908L754.1 935.8L767.8 911.1L759.5 933.9L772.4 914.5L760.4 944.7L776.9 918.1L764.2 947.8L781.5 922L767.7 952.2L786.1 926.1L771.7 955.7L790.7 930.5L776.7 957.8L795.4 935.1L779.4 964.6L800 940ZM352 945L385.4 944.9L350.5 938.1L382.6 937.8L349 931.5L377.6 930.5L347.5 925.1L378.5 924.5L346 918.9L369.8 917.1L344.5 912.9L369.1 911.3L343 907.2L365.1 905.2L341.6 901.7L364.3 899.7L340.1 896.4L364.9 894.6L338.6 891.3L362 889.3L337.2 886.5L355.6 883.9L335.7 881.8L354 879.2L334.2 877.4L350.4 874.5L332.8 873.3L350.8 870.4L331.4 869.3L347.1 866.2L329.9 865.6L343.5 862.3L328.5 862.1L341.6 858.7L327 858.8L341 855.2L325.6 855.7L336.7 852.1L324.2 852.9L334.9 849.1L322.8 850.3L332.1 846.4L321.4 847.9L329 844L320 845.7L326.6 841.8L318.6 843.8L323.6 840L317.2 842.1L320.8 838.5L315.8 840.6L312.1 847.4L317.2 842.1L312.7 849.4L318.6 843.8L313 851.9L320 845.7L313.6 854.2L321.4 847.9L312.4 859L322.8 850.3L313.8 860.6L324.2 852.9L314.7 863.1L325.6 855.7L315.6 866L327 858.8L315.4 870.2L328.5 862.1L313.3 876.3L329.9 865.6L315.7 878.5L331.4 869.3L314.6 884L332.8 873.3L317 886.7L334.2 877.4L315.2 893.2L335.7 881.8L316.6 897.2L337.2 886.5L315.3 903.7L338.6 891.3L316.8 908.1L340.1 896.4L318.1 913L341.6 901.7L319.2 918.3L343 907.2L317.4 925.9L344.5 912.9L316 933.4L346 918.9L317.4 939.1L347.5 925.1L319.4 944.7L349 931.5L321 950.7L350.5 938.1L316.6 961.1L352 945ZM352 945L381.5 959.6L354 938.2L377.6 948.8L356.1 931.6L382 944.8L358.1 925.4L383.3 938.7L360.1 919.3L383.5 931.9L362.1 913.6L385.9 927.2L364.1 908.1L386.1 921L366 902.9L383.8 912.6L368 898L388 910.7L370 893.4L385.9 902.9L372 889L387 898.4L373.9 884.9L389.8 896.2L375.9 881L387.9 889.1L377.8 877.5L389.4 886L379.7 874.2L390.8 883L381.7 871.1L390.7 878.5L383.6 868.4L391.6 875.3L385.5 865.9L393.2 873.7L387.4 863.7L393.7 870.4L389.3 861.7L394.6 868L391.2 860L395.4 865.6L393 858.6L388.6 855.6L391.2 860L385.4 856.9L389.3 861.7L382.2 858.6L387.4 863.7L378.6 860.6L385.5 865.9L376.5 863.3L383.6 868.4L372.7 865.9L381.7 871.1L370.1 869.1L379.7 874.2L365.3 872.2L377.8 877.5L363.2 876L375.9 881L360.9 880L373.9 884.9L356.7 884.2L372 889L355.3 888.7L370 893.4L353.1 893.4L368 898L348.6 898.5L366 902.9L347 903.7L364.1 908.1L344.7 909.3L362.1 913.6L341.2 915.1L360.1 919.3L335.6 921.4L358.1 925.4L330.2 928.1L356.1 931.6L332.4 934.2L354 938.2L324.7 941.7L352 945ZM352 945L370.5 935.1L348.2 939.2L368.2 928.7L344.3 933.6L361.7 923.4L340.5 928.4L357.6 917.9L336.7 923.4L354 912.5L333 918.7L347.3 908.4L329.2 914.3L342.2 904L325.5 910.2L338.6 899.4L321.7 906.3L331 896.8L318 902.8L327 893L314.3 899.5L323.2 889.2L310.6 896.5L318.5 886.2L306.9 893.8L313.7 883.6L303.3 891.3L307 882.9L299.6 889.2L302.9 880.6L296 887.3L297.6 879.9L292.4 885.7L293.4 878.3L288.8 884.4L288.8 877.6L285.2 883.4L283.7 878.4L281.6 882.7L279.5 878.4L278.1 882.2L278.7 889.5L281.6 882.7L281.8 890.3L285.2 883.4L284.9 893.1L288.8 884.4L287.7 896.1L292.4 885.7L290.7 897L296 887.3L293.1 901.6L299.6 889.2L296.4 901.5L303.3 891.3L298.7 906.1L306.9 893.8L301.6 908.7L310.6 896.5L303.9 913.2L314.3 899.5L306.8 916.4L318 902.8L309.9 919.5L321.7 906.3L310.2 928.1L325.5 910.2L314.7 929.2L329.2 914.3L315.9 936.4L333 918.7L318.5 941.5L336.7 923.4L319.8 948.8L340.5 928.4L322.2 954.5L344.3 933.6L325.8 959L348.2 939.2L330.8 962L352 945ZM1248 945L1282.2 960.4L1249.5 938.1L1277.1 949.4L1251 931.5L1284.2 947.2L1252.5 925.1L1279.7 937.1L1254 918.9L1279.7 930.3L1255.5 912.9L1279.9 923.9L1257 907.2L1281.6 918.9L1258.4 901.7L1284.5 915L1259.9 896.4L1285.1 909.6L1261.4 891.3L1284.8 903.7L1262.8 886.5L1284.9 898.5L1264.3 881.8L1282.7 891.5L1265.8 877.4L1283.5 887.1L1267.2 873.3L1283.8 882.6L1268.6 869.3L1284.7 878.8L1270.1 865.6L1286.7 876.4L1271.5 862.1L1287.3 872.9L1273 858.8L1284.5 866.1L1274.4 855.7L1287.5 865.5L1275.8 852.9L1287.5 862.1L1277.2 850.3L1286.6 857.7L1278.6 847.9L1287.3 855.5L1280 845.7L1287.7 853L1281.4 843.8L1287.1 849.1L1282.8 842.1L1288 847.7L1284.2 840.6L1278 838L1282.8 842.1L1275.5 839.7L1281.4 843.8L1272.6 841.6L1280 845.7L1272 844.2L1278.6 847.9L1267.7 846.3L1277.2 850.3L1265.7 849.1L1275.8 852.9L1261.6 852L1274.4 855.7L1261.8 855.3L1273 858.8L1257.6 858.7L1271.5 862.1L1257 862.3L1270.1 865.6L1251.2 866.3L1268.6 869.3L1248.9 870.4L1267.2 873.3L1250 874.5L1265.8 877.4L1246 879.2L1264.3 881.8L1244.5 883.9L1262.8 886.5L1238.8 889.2L1261.4 891.3L1236.2 894.5L1259.9 896.4L1237.6 899.5L1258.4 901.7L1228.5 906.1L1257 907.2L1225.6 912.1L1255.5 912.9L1227.1 917.6L1254 918.9L1223.4 924.2L1252.5 925.1L1222.6 930.5L1251 931.5L1217.8 937.7L1249.5 938.1L1217.1 944.4L1248 945ZM1248 945L1273.8 941.5L1246 938.2L1273 934.8L1243.9 931.6L1265.6 927.7L1241.9 925.4L1263.3 921.3L1239.9 919.3L1263.3 915.4L1237.9 913.6L1256.6 909.3L1235.9 908.1L1252.6 903.7L1234 902.9L1254.3 898.6L1232 898L1247.1 893.4L1230 893.4L1245.3 888.7L1228 889L1241.7 884.2L1226.1 884.9L1238.4 880L1224.1 881L1235.6 876.1L1222.2 877.5L1233.2 872.4L1220.3 874.2L1228.6 869.3L1218.3 871.1L1226.8 866L1216.4 868.4L1222.4 863.7L1214.5 865.9L1219.5 861.3L1212.6 863.7L1216.7 859.1L1210.7 861.7L1213.7 857.4L1208.8 860L1210.8 856L1207 858.6L1204.9 864.7L1208.8 860L1205.4 868.2L1210.7 861.7L1206.3 870.5L1212.6 863.7L1207.3 872.8L1214.5 865.9L1207.5 876.7L1216.4 868.4L1208.4 879.7L1218.3 871.1L1210 882L1220.3 874.2L1209.9 886.7L1222.2 877.5L1210.3 891.1L1224.1 881L1211.7 894.6L1226.1 884.9L1211.6 899.9L1228 889L1212.8 904.1L1230 893.4L1212.3 910.4L1232 898L1216.1 912.7L1234 902.9L1214.9 920L1235.9 908.1L1214 927.2L1237.9 913.6L1217.3 931.1L1239.9 919.3L1215.9 939.3L1241.9 925.4L1221.8 941.7L1243.9 931.6L1218.5 951.8L1246 938.2L1222.6 956.4L1248 945ZM1248 945L1272.3 966.1L1251.8 939.2L1273.2 957.6L1255.7 933.6L1276.3 952.5L1259.5 928.4L1277.6 944.9L1263.3 923.4L1280.3 939.6L1267 918.7L1285.1 938.2L1270.8 914.3L1286.8 931.9L1274.5 910.2L1289.2 927.2L1278.3 906.3L1290.4 920L1282 902.8L1293.4 916.8L1285.7 899.5L1297.3 916.2L1289.4 896.5L1298.4 908.9L1293.1 893.8L1301.5 906.9L1296.7 891.3L1304.3 904.3L1300.4 889.2L1306.7 900.5L1304 887.3L1309.5 897.9L1307.6 885.7L1312.4 896.5L1311.2 884.4L1315.2 893.5L1314.8 883.4L1318.2 890L1318.4 882.7L1321.4 888.6L1321.9 882.2L1320.4 878.3L1318.4 882.7L1315.9 877.7L1314.8 883.4L1311.4 877.8L1311.2 884.4L1307.2 879L1307.6 885.7L1301.9 879.2L1304 887.3L1297.5 880.9L1300.4 889.2L1293.5 883.4L1296.7 891.3L1288 884.9L1293.1 893.8L1282.9 887.1L1289.4 896.5L1278.5 890.2L1285.7 899.5L1271.8 892.3L1282 902.8L1265.4 895.2L1278.3 906.3L1260.5 899L1274.5 910.2L1256.7 903.6L1270.8 914.3L1250.4 907.6L1267 918.7L1247.2 912.9L1263.3 923.4L1241.5 917.7L1259.5 928.4L1234.5 922.5L1255.7 933.6L1234.8 929.3L1251.8 939.2L1227.7 934.7L1248 945Z"/><path fill="#052018" d="M36 944.2L49.3 908.5L61.5 872.8L72.7 837.1L82.8 801.4L91.9 765.6L99.9 729.9L106.9 694L112.9 658.2L117.8 622.3L121.6 586.4L124.4 550.4L126.2 514.4L126.9 478.4L126.5 442.3L141.5 441.7L143.2 478.2L143.9 514.7L143.5 551.3L142 587.9L139.4 624.5L135.8 661.2L131.1 698L125.3 734.7L118.5 771.5L110.5 808.3L101.5 845.2L91.4 882L80.2 918.9L68 955.8ZM159.5 442a25.5 25.5 0 1 0 -51 0a25.5 25.5 0 1 0 51 0ZM134 442L146.1 413.3L128.2 440.3L140.1 408.8L122.4 438.8L131.2 409.5L116.6 437.6L124.5 406.2L110.8 436.7L116.6 405.6L105 436L107.3 410.2L99.3 435.6L100.2 408.8L93.6 435.5L92.8 409L87.8 435.7L86 405.1L82.1 436.1L78.3 407.8L76.4 436.8L70.8 414.1L70.7 437.8L63.5 411.7L65.1 439.1L56.9 418.8L59.4 440.6L49.6 418.4L53.8 442.4L43.6 424.6L48.1 444.5L37.3 428.7L42.5 446.8L29.3 427.4L36.9 449.5L24.4 435L31.3 452.4L18.3 439.2L25.8 455.5L10.5 440.1L20.2 459L4.9 445.5L14.7 462.7L0.6 453.1L9.1 466.7L-6.7 455.8L3.6 470.9L-11.1 463L-1.9 475.5L-16.9 468.3L-7.4 480.3L-21 475.8L-12.9 485.4L-28 480.1L-18.3 490.7L-32.5 487.3L-23.8 496.3L-38.2 493.5L-29.2 502.2L-42.9 500.8L-34.7 508.4L-46.6 509.1L-40.1 514.9L-51.6 516.4L-45.5 521.6L-56.1 524.4L-50.9 528.6L-43.8 533.7L-45.5 521.6L-37.8 527.4L-40.1 514.9L-30.9 522L-34.7 508.4L-23.8 517.2L-29.2 502.2L-19.5 510.5L-23.8 496.3L-11.1 507.6L-18.3 490.7L-6.1 502L-12.9 485.4L-0 497.7L-7.4 480.3L8.1 495.9L-1.9 475.5L12.8 491.1L3.6 470.9L18.1 487.2L9.1 466.7L24.7 485.2L14.7 462.7L31.5 484L20.2 459L34.4 478L25.8 455.5L44.3 482L31.3 452.4L45.5 474.1L36.9 449.5L54.3 478.2L42.5 446.8L60.1 478.3L48.1 444.5L61.7 470.9L53.8 442.4L70.1 477.4L59.4 440.6L73.4 473.6L65.1 439.1L79.1 476L70.7 437.8L81.8 470.6L76.4 436.8L86.6 471.7L82.1 436.1L91.6 474.1L87.8 435.7L98.1 484.8L93.6 435.5L100.5 476.9L99.3 435.6L105.7 485.9L105 436L109.9 490.4L110.8 436.7L113.6 492.9L116.6 437.6L117.2 486.8L122.4 438.8L121.2 489.5L128.2 440.3L124.9 494.7L134 442ZM134 442L154.2 421.1L128.8 438.3L152.2 413.7L123.6 434.9L145.4 409.9L118.4 431.8L138.7 406.3L113.2 428.9L126.5 408.2L108.1 426.3L124.7 400.3L102.9 424L113.2 403.2L97.8 422L107.5 399.9L92.7 420.2L101.6 396.8L87.6 418.8L95.6 394L82.5 417.6L86.9 396.7L77.4 416.7L81.4 393L72.3 416L73.8 395.2L67.3 415.6L66.7 397L62.2 415.6L60.3 397.8L57.2 415.7L53.8 399.6L52.2 416.2L47.6 401.6L47.2 417L41.6 403L42.2 418L35.5 402.8L37.2 419.3L29.4 404.1L32.3 420.9L24.4 410.3L27.3 422.7L19 413.8L22.4 424.8L12.6 414L17.5 427.2L7.9 419.2L12.6 429.9L3 423.5L7.7 432.9L-1.7 428.1L2.8 436.1L-7 431.8L-2.1 439.6L-12 436.1L-6.9 443.4L-16.1 441.7L-11.7 447.5L-20.6 447L-16.6 451.8L-11 457.3L-11.7 447.5L-3.8 455.7L-6.9 443.4L-0.2 450.9L-2.1 439.6L6.2 449.4L2.8 436.1L12.5 448.3L7.7 432.9L16 444.1L12.6 429.9L22.7 444.8L17.5 427.2L28.5 444.7L22.4 424.8L32.6 442.6L27.3 422.7L37.9 442.9L32.3 420.9L40.8 439L37.2 419.3L46.3 441L42.2 418L50.1 439.4L47.2 417L56.1 444.9L52.2 416.2L59.1 441.9L57.2 415.7L63.5 444.3L62.2 415.6L68.2 450.4L67.3 415.6L71.7 450.9L72.3 416L75.4 454.1L77.4 416.7L78.7 451.3L82.5 417.6L82.2 453.9L87.6 418.8L85.6 459L92.7 420.2L89.2 459L97.8 422L92.9 459.8L102.9 424L96.2 464.1L108.1 426.3L100.3 464.3L113.2 428.9L103.2 470.5L118.4 431.8L104.6 481.7L123.6 434.9L107.9 485.4L128.8 438.3L112.6 485.4L134 442ZM134 442L159.5 428.8L129.9 436.7L151.9 423.8L125.8 431.6L148 418.1L121.7 426.9L146.4 411.8L117.7 422.5L141.3 406.8L113.6 418.3L132.2 404L109.6 414.5L129.2 398.6L105.5 411L123.4 394.9L101.5 407.7L117.2 391.8L97.5 404.8L111.3 388.9L93.5 402.2L105.9 385.9L89.6 399.8L98.6 385.1L85.6 397.8L94 382L81.6 396L87.1 382.2L77.7 394.6L82 380.4L73.8 393.4L76.9 378.7L69.8 392.6L71.2 378.9L65.9 392L65.3 380.5L62 391.8L60.6 379.1L58.2 391.8L55.3 381.1L54.3 392.2L50.4 382.9L50.4 392.8L45.8 386.1L46.6 393.8L41.2 387L42.7 395L37.1 390.1L38.9 396.5L32.8 392.2L35.1 398.4L29 395.6L31.3 400.5L36.3 407.6L35.1 398.4L40.3 406.6L38.9 396.5L44.6 406.7L42.7 395L47.8 405.4L46.6 393.8L51.9 406.8L50.4 392.8L55.6 407.9L54.3 392.2L59 409.4L58.2 391.8L61.6 408.5L62 391.8L65 412.5L65.9 392L67.7 414.6L69.8 392.6L70.2 415.6L73.8 393.4L72.6 419.7L77.7 394.6L74.9 422.2L81.6 396L77.7 421.7L85.6 397.8L80 424.6L89.6 399.8L83.1 424.8L93.5 402.2L84 433.3L97.5 404.8L85.9 437.6L101.5 407.7L89.7 437.5L105.5 411L91.3 443.3L109.6 414.5L93.6 447.7L113.6 418.3L95.9 452.3L117.7 422.5L101.2 451.9L121.7 426.9L100.6 462.5L125.8 431.6L104.3 465.9L129.9 436.7L106.4 472.2L134 442ZM134 442L163 437.2L131.6 435.5L160.6 430.5L129.2 429.3L155.8 424L126.8 423.4L152.8 417.9L124.5 417.8L144.2 412.1L122.1 412.5L141.7 406.7L119.8 407.5L140.1 401.4L117.4 402.8L137.8 396.4L115.1 398.5L131.6 392.1L112.7 394.4L130.6 387.4L110.4 390.7L126.6 383.4L108.1 387.3L120.1 380.4L105.8 384.1L118.4 376.6L103.5 381.3L113.7 373.9L101.2 378.8L109.4 371.6L98.9 376.6L106 369.2L96.6 374.7L102.7 367L94.4 373.2L98.6 365.8L92.1 371.9L94.8 364.7L89.9 370.9L90.9 364.5L87.6 370.3L87.7 363.8L85.4 369.9L84.2 364.5L83.2 369.9L81 365.3L81 370.2L83.3 377.3L83.2 369.9L84.8 377.8L85.4 369.9L86.4 381.1L87.6 370.3L87.5 380.1L89.9 370.9L88.4 383.3L92.1 371.9L89.3 384.8L94.4 373.2L89.9 387.5L96.6 374.7L91.2 388.6L98.9 376.6L90.6 394.3L101.2 378.8L92.4 395L103.5 381.3L94.3 396.4L105.8 384.1L93.4 402.6L108.1 387.3L96.2 403.5L110.4 390.7L95.4 409.8L112.7 394.4L97.3 412.8L115.1 398.5L97.3 418.7L117.4 402.8L96.3 425.6L119.8 407.5L98 430L122.1 412.5L101.4 433.1L124.5 417.8L100.1 441.2L126.8 423.4L102.2 446.2L129.2 429.3L105.3 450.8L131.6 435.5L108.2 456L134 442ZM134 442L162.1 443.8L133.3 434.9L163.3 437.4L132.5 428.1L161.3 430.4L131.8 421.5L156.8 422.9L131.1 415.4L153.2 416.1L130.3 409.5L154.8 411L129.6 403.9L147.5 403.8L128.9 398.7L146.4 398.6L128.1 393.8L147.1 394.2L127.4 389.2L145.5 389.4L126.7 384.9L141.4 384.4L126 380.9L141.8 380.8L125.3 377.3L141 377.1L124.6 373.9L137 373.2L123.9 370.9L135.4 369.9L123.2 368.2L132.9 366.9L122.5 365.8L131.3 364.3L121.8 363.7L131.1 362L121.1 361.9L127.7 359.9L120.4 360.5L126.7 357.9L119.7 359.4L124.2 356.3L119 358.5L115.9 364.7L119.7 359.4L115.3 365.3L120.4 360.5L113.4 368.2L121.1 361.9L113.6 369L121.8 363.7L113.2 371L122.5 365.8L113 373.3L123.2 368.2L110.5 377.6L123.9 370.9L111.5 379.6L124.6 373.9L111.9 382.5L125.3 377.3L110.7 386.8L126 380.9L111.8 389.9L126.7 384.9L109.1 395.7L127.4 389.2L109.6 400L128.1 393.8L110 404.5L128.9 398.7L106.8 411.5L129.6 403.9L106.1 417.4L130.3 409.5L110.7 420.5L131.1 415.4L107 428.7L131.8 421.5L108.4 434.4L132.5 428.1L103.3 444L133.3 434.9L103.9 450.7L134 442ZM134 442L159.5 451L135.4 435.1L159.1 443.5L136.8 428.6L164.9 440.6L138.2 422.3L160.6 431.1L139.5 416.4L162.8 426.5L140.9 410.8L162.2 420.2L142.3 405.5L163.3 415.5L143.6 400.6L163.3 410.2L145 396L164.1 406L146.4 391.7L161.5 399.3L147.7 387.7L164.3 397.5L149 384L162.6 392.1L150.4 380.7L163.5 389.5L151.7 377.6L163 385.7L153 374.9L163 382.8L154.4 372.6L163.5 381.1L155.7 370.5L163.2 378.7L157 368.8L162.9 376.5L158.3 367.4L163 375.7L159.6 366.3L162.5 373.6L160.9 365.5L162.3 370.9L162.2 365.1L160.1 361.5L160.9 365.5L157 361.6L159.6 366.3L153.2 362.2L158.3 367.4L150.2 363.8L157 368.8L148 366.1L155.7 370.5L146.8 368.8L154.4 372.6L141.9 371L153 374.9L140.4 374.1L151.7 377.6L137.3 377.3L150.4 380.7L134.1 380.9L149 384L131.9 384.9L147.7 387.7L130.1 389L146.4 391.7L125.3 393.7L145 396L125.6 398.3L143.6 400.6L123.1 403.4L142.3 405.5L117.7 409.3L140.9 410.8L119.4 414.4L139.5 416.4L116.3 420.6L138.2 422.3L110 427.7L136.8 428.6L113.2 433.3L135.4 435.1L104.7 441.5L134 442ZM134 442L163.2 458.7L136.4 435.5L163.3 451.1L138.7 429.2L167.9 447.9L141.1 423.3L169.8 442.6L143.4 417.6L166 432L145.8 412.3L169.2 428.6L148.1 407.2L170.7 423.8L150.4 402.5L171.4 418.6L152.7 398L171.6 413L155 393.8L171.9 407.8L157.3 389.9L174.7 406.1L159.6 386.4L176.5 403.5L161.9 383.1L174.7 396.2L164.2 380.1L176.2 393.8L166.4 377.4L178.6 393.7L168.7 375L179.1 390.8L171 372.9L179.5 387.7L173.2 371.1L179.3 382.6L175.4 369.6L180.8 383.3L177.7 368.4L181.6 382.2L179.9 367.4L182.3 380.2L182.1 366.8L183.3 377.4L184.3 366.5L184.9 374.1L186.5 366.4L186.1 374.6L188.7 366.7L188.6 362.1L186.5 366.4L185.4 360.4L184.3 366.5L181.6 359.3L182.1 366.8L178 359.6L179.9 367.4L175 361.2L177.7 368.4L170.9 361.8L175.4 369.6L165.6 362L173.2 371.1L163.7 365.3L171 372.9L158.5 366.7L168.7 375L155.4 369.6L166.4 377.4L152.8 372.8L164.2 380.1L147.1 375.4L161.9 383.1L146.2 379.6L159.6 386.4L142.4 383.3L157.3 389.9L137.4 387.2L155 393.8L135.7 391.8L152.7 398L132.4 396.4L150.4 402.5L125.5 401.2L148.1 407.2L120.7 406.5L145.8 412.3L116 412.1L143.4 417.6L118.2 418L141.1 423.3L112.3 424.1L138.7 429.2L109.8 430.5L136.4 435.5L103.8 437.4L134 442ZM134 442L162.7 476.4L138.3 436.8L162.1 465.4L142.7 431.9L163.3 457.3L147 427.3L169.3 458.5L151.3 423.1L169.6 448.9L155.5 419.1L174.3 449L159.8 415.4L176.4 443.8L164.1 412.1L180.2 443.5L168.3 409L181.7 436.8L172.5 406.2L184.4 434L176.8 403.8L186.4 428.1L181 401.7L189.4 427.5L185.2 399.8L191.8 422.6L189.3 398.3L194.7 423.7L193.5 397.1L197.4 419.8L197.7 396.1L200.4 415.3L201.8 395.5L203.4 414.2L205.9 395.2L206.5 413.5L210 395.2L209.4 414L214.1 395.5L213.6 410.4L218.2 396.1L216.5 411.9L222.3 397L220.4 411.2L226.4 398.2L225.4 409.3L230.4 399.8L228.6 411.3L234.5 401.6L233.8 410.6L238.5 403.7L238.2 411.9L242.5 406.2L245.1 401.1L238.5 403.7L240.8 398.3L234.5 401.6L237 394L230.4 399.8L232.4 391.9L226.4 398.2L227.7 389.8L222.3 397L223.1 386.4L218.2 396.1L218.1 386.8L214.1 395.5L212.8 383.2L210 395.2L207.8 384.5L205.9 395.2L202.3 383.6L201.8 395.5L195.6 380.4L197.7 396.1L190.1 381.7L193.5 397.1L185.3 384.1L189.3 398.3L179.8 385.7L185.2 399.8L171.1 383.8L181 401.7L166.1 387L176.8 403.8L159.3 388.8L172.5 406.2L156.5 394.1L168.3 409L148.1 395.4L164.1 412.1L143.7 399.8L159.8 415.4L138.6 404.1L155.5 419.1L132.2 407.8L151.3 423.1L124.3 411.4L147 427.3L120.5 417L142.7 431.9L114.4 422.1L138.3 436.8L110.8 428.2L134 442ZM134 442L152 489.8L139.5 438.9L156 488.2L145 436.1L158.6 479.7L150.5 433.6L163.1 481.9L155.9 431.4L166.1 474.5L161.4 429.4L169.8 472.6L166.8 427.7L173.4 469.6L172.3 426.3L177.1 469L177.7 425.2L181 462.8L183.1 424.3L185.2 457.6L188.5 423.8L189.4 455.3L193.8 423.4L193.4 455.5L199.2 423.4L198 452.7L204.5 423.7L200.4 459.2L209.8 424.2L205.8 454.6L215.2 425L209.5 456.2L220.5 426.1L216.4 450L225.8 427.4L219.8 453.4L231 429.1L223.4 456.2L236.3 431L229.4 454.9L241.5 433.1L235.2 454.6L246.8 435.6L240.4 456L252 438.3L247 455.8L257.2 441.3L252.2 458L262.4 444.6L257.8 460.3L267.6 448.2L262.7 463.6L272.7 452L268.4 466.5L277.9 456.2L272.9 471L283 460.6L280.5 472.7L288.1 465.2L286.1 476.8L293.2 470.2L291.9 481.1L298.3 475.4L302.6 471L293.2 470.2L298.1 464.8L288.1 465.2L293.2 459.1L283 460.6L288.8 453.1L277.9 456.2L283.1 448.9L272.7 452L279.5 441.6L267.6 448.2L273.4 438.3L262.4 444.6L269.1 431.9L257.2 441.3L263.3 428.3L252 438.3L257.7 424.3L246.8 435.6L251.8 421.3L241.5 433.1L246.5 415.7L236.3 431L239.6 416.2L231 429.1L234 410.6L225.8 427.4L227.5 409.9L220.5 426.1L221.2 405.6L215.2 425L214.5 403.3L209.8 424.2L208 405L204.5 423.7L201.3 403.6L199.2 423.4L194.7 403.9L193.8 423.4L187.4 402.1L188.5 423.8L180.8 403L183.1 424.3L172.8 401.1L177.7 425.2L163.5 397.9L172.3 426.3L158.3 403L166.8 427.7L151.2 404.7L161.4 429.4L143.1 405.4L155.9 431.4L136.7 408.8L150.5 433.6L126.5 408.2L145 436.1L119.1 411.2L139.5 438.9L115.6 417.9L134 442ZM134 442L140.8 492.2L139.8 440.5L144.5 493.2L145.7 439.4L148.4 486.8L151.5 438.5L152.6 482L157.3 438L155.7 486.7L163.1 437.8L161.9 473.6L168.9 437.8L166.2 473L174.6 438.2L168.6 479.6L180.4 438.8L174.4 474.9L186.1 439.8L180.4 470.8L191.8 441.1L183.5 475.2L197.5 442.7L186.7 478.9L203.2 444.6L193.7 475.2L208.9 446.7L199.8 474.6L214.5 449.2L206.3 473.9L220.1 452L212 475.2L225.8 455.1L214.1 482L231.4 458.5L221.6 481.7L237 462.2L225.6 486.4L242.5 466.2L235.2 484.9L248.1 470.6L240.5 489.1L253.7 475.2L247.2 492L259.2 480.1L252 497.3L264.7 485.3L259.4 500.6L270.2 490.8L264.9 505.9L275.7 496.7L270.7 511.4L281.2 502.8L277.2 516.6L286.6 509.3L284.1 522L292.1 516L290.4 528.2L297.5 523L294.7 536.1L302.9 530.4L307.8 526.7L297.5 523L303.5 518.2L292.1 516L298.5 510.6L286.6 509.3L293.8 502.9L281.2 502.8L287.9 496.5L275.7 496.7L283.3 489.1L270.2 490.8L277.6 482.9L264.7 485.3L273.4 475.4L259.2 480.1L269 468L253.7 475.2L262.8 463L248.1 470.6L257.8 456.4L242.5 466.2L250.6 453.4L237 462.2L244.3 449.2L231.4 458.5L239.6 442.2L225.8 455.1L233.3 437.9L220.1 452L227.2 433.2L214.5 449.2L220.5 430.3L208.9 446.7L214.3 425.3L203.2 444.6L207.6 421.4L197.5 442.7L200.7 417.2L191.8 441.1L193.2 418.6L186.1 439.8L186 415.4L180.4 438.8L178.4 411L174.6 438.2L171.3 413.9L168.9 437.8L163.9 413.8L163.1 437.8L155.9 411.8L157.3 438L148.7 413.4L151.5 438.5L138.7 408.3L145.7 439.4L130.3 408.6L139.8 440.5L124.3 413.7L134 442ZM133.5 454a9.5 9.5 0 1 0 -19 0a9.5 9.5 0 1 0 19 0ZM146.5 458a8.5 8.5 0 1 0 -17 0a8.5 8.5 0 1 0 17 0ZM155.5 450a7.5 7.5 0 1 0 -15 0a7.5 7.5 0 1 0 15 0ZM1534.1 966.5L1520.2 924L1507.4 881.5L1495.9 839.1L1485.5 796.7L1476.4 754.3L1468.4 712L1461.7 669.7L1456.1 627.4L1451.8 585.2L1448.6 543L1446.7 500.9L1445.9 458.8L1446.4 416.7L1448 374.7L1464 375.3L1463.9 416.8L1465.1 458.4L1467.4 499.8L1470.9 541.3L1475.5 582.7L1481.3 624L1488.3 665.3L1496.5 706.6L1505.8 747.8L1516.3 789L1527.9 830.2L1540.7 871.3L1554.7 912.4L1569.9 953.5ZM1483.2 375a27.2 27.2 0 1 0 -54.4 0a27.2 27.2 0 1 0 54.4 0ZM1456 375L1467.6 342L1450.1 373.7L1458.2 343.7L1444.3 372.6L1452.6 337.5L1438.4 371.8L1442.1 343.7L1432.6 371.3L1434.7 342.6L1426.7 371L1426.5 344.9L1420.9 371.1L1419.3 343.7L1415.1 371.4L1411.9 343.8L1409.3 372L1404.5 341.6L1403.6 372.9L1397 347.7L1397.8 374L1390 352L1392.1 375.5L1382.9 353.6L1386.4 377.2L1375 351.7L1380.6 379.2L1369.6 361.2L1374.9 381.4L1362 361.3L1369.3 384L1356 366.7L1363.6 386.8L1349 369.4L1357.9 389.9L1343.6 375.7L1352.3 393.3L1336.6 378.7L1346.6 397L1331.2 384.7L1341 400.9L1325 389.4L1335.4 405.1L1318.6 394L1329.8 409.6L1314 401.1L1324.2 414.4L1309.7 408.7L1318.7 419.5L1304.5 415.1L1313.1 424.8L1296.9 419.1L1307.6 430.4L1292.9 427.2L1302.1 436.3L1288.5 434.9L1296.6 442.5L1281.7 440.5L1291.1 448.9L1277.6 448.8L1285.6 455.7L1272.4 456.4L1280.1 462.7L1267.3 464.2L1274.7 469.9L1263.6 473.3L1269.2 477.5L1276.9 482.7L1274.7 469.9L1284.6 476.9L1280.1 462.7L1289 469.1L1285.6 455.7L1297.2 464.4L1291.1 448.9L1301.4 457.1L1296.6 442.5L1309.7 453.3L1302.1 436.3L1316.1 448.3L1307.6 430.4L1323.4 444.6L1313.1 424.8L1329.3 439.9L1318.7 419.5L1334.1 434.6L1324.2 414.4L1338.9 429.5L1329.8 409.6L1344.7 425.8L1335.4 405.1L1352.4 424.7L1341 400.9L1358.3 421.9L1346.6 397L1362 416.8L1352.3 393.3L1371.9 420.3L1357.9 389.9L1375.6 416L1363.6 386.8L1382.1 416.2L1369.3 384L1385.2 411.3L1374.9 381.4L1390.7 410.7L1380.6 379.2L1394.9 408L1386.4 377.2L1401.5 411L1392.1 375.5L1406.2 410.3L1397.8 374L1411.7 412.4L1403.6 372.9L1416.2 412.6L1409.3 372L1422.2 419.1L1415.1 371.4L1426.7 421.2L1420.9 371.1L1429 413.5L1426.7 371L1433.8 418L1432.6 371.3L1437.6 416.7L1438.4 371.8L1442.2 425.8L1444.3 372.6L1446.2 432.8L1450.1 373.7L1449.9 423.7L1456 375ZM1456 375L1480.1 352.9L1450.8 371L1470.9 350.3L1445.6 367.4L1470 342.3L1440.5 363.9L1459.8 341.2L1435.3 360.8L1451.8 339L1430.2 357.9L1446.5 334.5L1425 355.3L1438.4 333.2L1419.9 353L1432.5 329.9L1414.8 350.9L1425.7 327.8L1409.7 349.1L1418.6 326.5L1404.6 347.6L1412.3 324.3L1399.6 346.3L1404.4 325.3L1394.5 345.4L1397.2 326.1L1389.5 344.7L1390.6 326L1384.4 344.2L1384.2 326.2L1379.4 344L1378.2 324.6L1374.4 344.1L1371.7 326.5L1369.4 344.5L1365.5 325.7L1364.5 345.1L1359.3 329L1359.5 346L1353.2 330.2L1354.6 347.2L1347.1 331.5L1349.6 348.7L1342.1 338L1344.7 350.4L1336.7 341L1339.8 352.4L1331.2 343.8L1334.9 354.6L1325.7 346.4L1330 357.2L1320.3 349.7L1325.1 360L1315.2 353.4L1320.3 363L1310.8 358.6L1315.4 366.4L1305.3 361.9L1310.6 370L1301.9 368.5L1305.8 373.9L1296.4 372.2L1301 378L1307 384.2L1305.8 373.9L1313.8 382.6L1310.6 370L1317.5 377.9L1315.4 366.4L1325 378.1L1320.3 363L1329.9 375.7L1325.1 360L1335.8 375L1330 357.2L1339.8 372.2L1334.9 354.6L1343.8 369.4L1339.8 352.4L1350.9 372.6L1344.7 350.4L1354.3 369.6L1349.6 348.7L1358 367.4L1354.6 347.2L1363.9 370.8L1359.5 346L1368.1 370.7L1364.5 345.1L1372.3 371.3L1369.4 344.5L1375.8 369.9L1374.4 344.1L1379.9 370.8L1379.4 344L1384.5 376.2L1384.4 344.2L1388.1 376.8L1389.5 344.7L1391.6 375.6L1394.5 345.4L1395.4 380.8L1399.6 346.3L1398.9 386.1L1404.6 347.6L1402.3 388.6L1409.7 349.1L1405.9 388.7L1414.8 350.9L1409.4 390.7L1419.9 353L1412.9 393.4L1425 355.3L1416.7 395.1L1430.2 357.9L1420.3 398.2L1435.3 360.8L1422.9 405L1440.5 363.9L1427.7 404.6L1445.6 367.4L1428.5 416.7L1450.8 371L1432 420.9L1456 375ZM1456 375L1479.8 359.2L1451.4 370.2L1476.9 352.9L1446.9 365.6L1471.4 347.8L1442.4 361.3L1462.7 344.7L1437.8 357.3L1463.2 336.9L1433.3 353.6L1455.3 333.8L1428.8 350.1L1447.4 331.3L1424.3 346.9L1442.4 327.1L1419.9 344L1433.3 326.4L1415.4 341.4L1427.3 323.7L1411 339L1422.6 320.1L1406.5 336.9L1417.2 317.1L1402.1 335.1L1410.5 316L1397.7 333.6L1402.4 317.9L1393.3 332.3L1398 314.3L1388.9 331.3L1392.5 312.6L1384.5 330.6L1386 313.3L1380.1 330.2L1380.3 313L1375.8 330L1374.4 313.6L1371.4 330.1L1368.3 317.8L1367.1 330.5L1363 318.9L1362.8 331.2L1357.7 319.9L1358.5 332.1L1352.4 320.7L1354.2 333.4L1347.8 325L1349.9 334.9L1342.6 326.3L1345.7 336.6L1338.1 329.7L1341.4 338.7L1334 333.7L1337.2 341L1329.6 337.1L1332.9 343.6L1325.2 340.4L1328.7 346.4L1334.7 353.9L1332.9 343.6L1338.7 351.3L1337.2 341L1344.3 351.4L1341.4 338.7L1347.6 348.7L1345.7 336.6L1352.4 348.6L1349.9 334.9L1357.9 350.7L1354.2 333.4L1361.8 350.5L1358.5 332.1L1364.8 348.5L1362.8 331.2L1368.6 349L1367.1 330.5L1372.8 351.8L1371.4 330.1L1376.7 354.5L1375.8 330L1379.8 355.1L1380.1 330.2L1383.2 358.7L1384.5 330.6L1386.1 359.2L1388.9 331.3L1389 362.2L1393.3 332.3L1392 362.8L1397.7 333.6L1395 363.3L1402.1 335.1L1397.8 366.5L1406.5 336.9L1400.6 369.9L1411 339L1403.3 373.4L1415.4 341.4L1405.3 379.7L1419.9 344L1409.7 377.5L1424.3 346.9L1413.3 379.1L1428.8 350.1L1413.7 389.9L1433.3 353.6L1418.5 389.2L1437.8 357.3L1420.8 395.1L1442.4 361.3L1425.4 396.4L1446.9 365.6L1424.4 409.2L1451.4 370.2L1430.7 408.1L1456 375ZM1456 375L1487.8 369.2L1453.4 368.5L1481.3 362.5L1450.7 362.3L1475.6 356.1L1448.1 356.5L1476.6 349.8L1445.5 350.9L1469.1 344.2L1442.9 345.6L1464.9 338.7L1440.3 340.6L1465.2 333.1L1437.7 336L1460 328.2L1435.1 331.6L1455.7 323.6L1432.6 327.6L1448.9 319.8L1430 323.8L1448 315.1L1427.5 320.3L1442.8 311.7L1424.9 317.2L1439.8 307.9L1422.4 314.3L1433.8 305.6L1419.8 311.8L1431.2 302.2L1417.3 309.5L1427 299.8L1414.8 307.6L1421.6 298.7L1412.3 305.9L1418.1 296.6L1409.8 304.6L1414 295.2L1407.3 303.5L1410.1 294.2L1404.9 302.8L1405.8 294.3L1402.4 302.4L1401.7 295.1L1399.9 302.2L1397.9 297.1L1397.5 302.4L1394.7 297.7L1395 302.9L1397.9 310.4L1397.5 302.4L1399.6 310.1L1399.9 302.2L1401.7 312.4L1402.4 302.4L1403.3 315.4L1404.9 302.8L1404.4 317.5L1407.3 303.5L1405.4 319.8L1409.8 304.6L1406.9 318.4L1412.3 305.9L1407.4 323L1414.8 307.6L1407.8 326.7L1417.3 309.5L1409.1 328.4L1419.8 311.8L1410.9 329.6L1422.4 314.3L1412.8 331.2L1424.9 317.2L1411 339.4L1427.5 320.3L1412.2 342.8L1430 323.8L1414.1 345.6L1432.6 327.6L1416.6 348.2L1435.1 331.6L1415.5 355.5L1437.7 336L1416.7 360.3L1440.3 340.6L1418.4 364.9L1442.9 345.6L1420.4 369.5L1445.5 350.9L1423.5 373.4L1448.1 356.5L1425.1 379.2L1450.7 362.3L1426.1 386L1453.4 368.5L1427.8 392.3L1456 375ZM1456 375L1482.4 373.9L1454.6 368L1485.1 367.8L1453.2 361.3L1479.5 360.3L1451.8 354.9L1475.5 353.5L1450.4 348.8L1473.8 347.3L1449 343L1472.3 341.5L1447.6 337.5L1470.1 335.9L1446.3 332.3L1469.9 330.8L1444.9 327.4L1463.1 325.1L1443.5 322.8L1461.4 320.4L1442.2 318.5L1459.3 315.9L1440.8 314.5L1456.2 311.7L1439.5 310.8L1456.5 307.8L1438.1 307.4L1451 304.1L1436.8 304.2L1448.3 300.8L1435.4 301.4L1447.7 297.6L1434.1 298.9L1445.7 294.6L1432.8 296.7L1443.1 292L1431.4 294.7L1439.5 290L1430.1 293.1L1436.1 288.3L1428.8 291.8L1434.2 286.2L1427.5 290.7L1430.7 285.3L1426.2 290L1427.4 285.3L1424.9 289.5L1424.7 297.2L1426.2 290L1424.3 299.7L1427.5 290.7L1423.8 301.7L1428.8 291.8L1423.3 303.3L1430.1 293.1L1424.3 302.8L1431.4 294.7L1423.9 305.5L1432.8 296.7L1423.6 308.2L1434.1 298.9L1424.4 310L1435.4 301.4L1422.5 315L1436.8 304.2L1425.1 315.7L1438.1 307.4L1421.9 322.3L1439.5 310.8L1423.2 325L1440.8 314.5L1423.2 329.3L1442.2 318.5L1424.3 333L1443.5 322.8L1421.7 339.9L1444.9 327.4L1423.8 343.5L1446.3 332.3L1422 350.3L1447.6 337.5L1422 356.1L1449 343L1423.6 361L1450.4 348.8L1421.7 368.7L1451.8 354.9L1425.4 372.8L1453.2 361.3L1426.6 379L1454.6 368L1423.1 388.7L1456 375ZM1456 375L1483.8 382.4L1456.7 367.8L1486.3 376.6L1457.5 361L1484.4 368.8L1458.2 354.4L1481.5 360.7L1458.9 348.2L1486 357L1459.6 342.2L1483.3 349.6L1460.3 336.6L1485.8 345.5L1461.1 331.3L1482.6 338.4L1461.8 326.2L1484.4 334.5L1462.5 321.5L1480.5 327.6L1463.2 317L1479.8 322.8L1463.9 312.9L1480.8 319.4L1464.6 309.1L1481.3 316.1L1465.3 305.5L1481 312.6L1466 302.3L1479.8 308.7L1466.7 299.4L1477.6 304.4L1467.4 296.7L1478 302.3L1468.1 294.4L1476.5 299.1L1468.7 292.4L1476.8 297.8L1469.4 290.7L1477.2 297.1L1470.1 289.3L1475.5 294.5L1470.8 288.1L1474.9 293.9L1471.5 287.3L1466.4 285.2L1470.8 288.1L1465 286.9L1470.1 289.3L1461.8 288.6L1469.4 290.7L1461.4 290.7L1468.7 292.4L1459.3 293L1468.1 294.4L1456.2 295.7L1467.4 296.7L1455.9 298.4L1466.7 299.4L1450.9 302L1466 302.3L1451.2 305.1L1465.3 305.5L1448.5 309.1L1464.6 309.1L1444.9 313.5L1463.9 312.9L1447.4 316.8L1463.2 317L1440.8 322.6L1462.5 321.5L1444.4 326.2L1461.8 326.2L1439.2 332.3L1461.1 331.3L1437 337.9L1460.3 336.6L1432.9 344.4L1459.6 342.2L1435.3 349.3L1458.9 348.2L1429.1 357L1458.2 354.4L1429.4 363.1L1457.5 361L1428.9 369.7L1456.7 367.8L1429.7 376.3L1456 375ZM1456 375L1483.8 396.5L1459.2 369L1485.7 390.2L1462.4 363.2L1487.8 384.5L1465.6 357.8L1492.4 382.2L1468.8 352.6L1491.6 373.6L1472 347.7L1494.8 370.4L1475.2 343.2L1493.6 361.4L1478.3 338.9L1496 357.7L1481.5 334.9L1500.2 357.5L1484.6 331.3L1502.5 354.7L1487.8 327.9L1502 347.2L1490.9 324.8L1502.9 342L1494 322L1505.1 340.1L1497.1 319.5L1507.1 338L1500.2 317.3L1508.7 335.3L1503.3 315.4L1510.5 333.9L1506.4 313.8L1511.8 330.1L1509.4 312.5L1513.7 329.7L1512.5 311.5L1515.3 328.2L1515.5 310.8L1517.1 326.2L1518.5 310.4L1519.2 324.3L1521.6 310.2L1521.6 322.3L1524.6 310.4L1524.4 320.2L1527.6 310.9L1526.6 320.9L1530.6 311.6L1530.2 319.2L1533.6 312.7L1534.9 307.2L1530.6 311.6L1531.3 305.7L1527.6 310.9L1527.6 303.7L1524.6 310.4L1523.7 302.7L1521.6 310.2L1519.4 301.4L1518.5 310.4L1515.3 301.7L1515.5 310.8L1510.5 301.1L1512.5 311.5L1505.5 301.2L1509.4 312.5L1501.5 303.1L1506.4 313.8L1496.1 303.8L1503.3 315.4L1491.8 306L1500.2 317.3L1487 308.1L1497.1 319.5L1482.7 310.9L1494 322L1477.3 313.4L1490.9 324.8L1471.7 316.3L1487.8 327.9L1470 321L1484.6 331.3L1465.6 324.9L1481.5 334.9L1456.9 327.8L1478.3 338.9L1457.2 333.6L1475.2 343.2L1447.8 337.3L1472 347.7L1443.4 342.5L1468.8 352.6L1443.1 348.6L1465.6 357.8L1435.2 353.8L1462.4 363.2L1434 360.2L1459.2 369L1424 365.9L1456 375ZM1456 375L1480.4 400.3L1460.1 369.6L1482.8 394L1464.3 364.5L1489.4 395.1L1468.4 359.8L1489.3 385.4L1472.5 355.3L1492.5 381.7L1476.6 351.1L1497.9 383.1L1480.7 347.2L1499.3 376.7L1484.8 343.7L1501.7 372.7L1488.8 340.4L1503.5 367.6L1492.9 337.4L1506.1 364.7L1496.9 334.8L1507.1 356.5L1501 332.4L1511 359.6L1505 330.3L1512.8 353.2L1509 328.6L1515.6 354.3L1513 327.1L1517.9 348.9L1516.9 326L1520.5 349.8L1520.9 325.1L1523.4 342.3L1524.8 324.6L1525.7 346L1528.8 324.3L1529.5 339.9L1532.7 324.4L1532.2 340.7L1536.6 324.7L1535.7 339.6L1540.5 325.4L1538.5 340.7L1544.4 326.3L1542.6 339.3L1548.3 327.6L1546.2 339.9L1552.2 329.1L1550.4 339.9L1556 331L1555.3 339.6L1559.9 333.2L1562 328.7L1556 331L1558.1 325.6L1552.2 329.1L1554.3 321.8L1548.3 327.6L1550.1 318.6L1544.4 326.3L1545.4 317L1540.5 325.4L1540.6 316L1536.6 324.7L1535.7 313.7L1532.7 324.4L1530.5 312.4L1528.8 324.3L1525.5 313L1524.8 324.6L1519.6 311.3L1520.9 325.1L1514.8 313.2L1516.9 326L1509.7 314.5L1513 327.1L1504.1 315.4L1509 328.6L1497.2 315.2L1505 330.3L1490.6 316.3L1501 332.4L1486.8 320.3L1496.9 334.8L1480.3 322.3L1492.9 337.4L1473.1 324.3L1488.8 340.4L1469.7 329.2L1484.8 343.7L1462.5 332L1480.7 347.2L1456.3 335.8L1476.6 351.1L1452 340.8L1472.5 355.3L1447.9 346L1468.4 359.8L1438.5 349.7L1464.3 364.5L1432.8 355.1L1460.1 369.6L1431.6 361.9L1456 375ZM1456 375L1476.7 424.1L1461.5 371.6L1481 423.1L1466.9 368.5L1484.1 418.1L1472.3 365.6L1486.9 410.6L1477.8 363L1490.9 410.2L1483.2 360.7L1493.8 401.8L1488.6 358.6L1497.9 403.2L1494 356.8L1501.1 393.4L1499.3 355.3L1505 394.1L1504.7 354L1508.7 393.6L1510 353.1L1512.2 395.6L1515.4 352.3L1516.2 391.3L1520.7 351.9L1519.8 391.7L1526 351.7L1523.8 389.5L1531.3 351.8L1527.6 388.9L1536.6 352.1L1532.7 384.5L1541.8 352.8L1537.1 383.6L1547.1 353.6L1542.1 381.8L1552.3 354.8L1547.5 379.7L1557.5 356.2L1550.6 383.6L1562.8 357.9L1556.1 382.5L1568 359.9L1562.7 380.5L1573.1 362.1L1567.6 381.9L1578.3 364.6L1572.9 383.1L1583.5 367.4L1576.8 386.9L1588.6 370.4L1582.6 388.1L1593.8 373.7L1589.4 388.8L1598.9 377.2L1593.6 393L1604 381.1L1599.7 395.4L1609.1 385.2L1606.1 397.8L1614.2 389.6L1611.5 401.7L1619.2 394.2L1616.2 406.6L1624.3 399.1L1628.5 394.4L1619.2 394.2L1623.9 388.6L1614.2 389.6L1619.7 382.4L1609.1 385.2L1615.3 376.6L1604 381.1L1610.5 371.2L1598.9 377.2L1604.6 367.7L1593.8 373.7L1600 362.1L1588.6 370.4L1593.7 359.8L1583.5 367.4L1588.7 354.9L1578.3 364.6L1583.8 349.3L1573.1 362.1L1577.9 346.4L1568 359.9L1571.8 344.1L1562.8 357.9L1565.9 340.4L1557.5 356.2L1559.7 338.2L1552.3 354.8L1553.4 335.5L1547.1 353.6L1546.9 331.6L1541.8 352.8L1540.2 329.2L1536.6 352.1L1533.9 332.4L1531.3 351.8L1526.5 328L1526 351.7L1519.1 326L1520.7 351.9L1512.5 327.8L1515.4 352.3L1505.6 328.6L1510 353.1L1498.8 329.9L1504.7 354L1491.2 329.9L1499.3 355.3L1483.5 330.4L1494 356.8L1475.9 331.7L1488.6 358.6L1471.2 337L1483.2 360.7L1458.7 333.2L1477.8 363L1455.8 340.6L1472.3 365.6L1446.6 341.7L1466.9 368.5L1441.9 347.2L1461.5 371.6L1431.2 347.9L1456 375ZM1456 375L1464 421.5L1461.8 373.4L1467.9 419.6L1467.6 372L1471.9 416.2L1473.3 370.9L1475.7 416.3L1479.1 370.2L1480.2 410.1L1484.8 369.7L1483.8 412.5L1490.5 369.5L1487.2 414.4L1496.2 369.6L1491.9 411L1501.9 370L1495.2 413.4L1507.6 370.6L1499.7 412.1L1513.2 371.6L1506 406.7L1518.9 372.9L1510.8 406.3L1524.5 374.4L1514.6 408.8L1530.1 376.2L1519.2 409.8L1535.7 378.4L1525.9 407.7L1541.3 380.8L1530.7 409.4L1546.8 383.5L1536.1 410.8L1552.4 386.5L1542.4 411.2L1557.9 389.7L1548.2 413.1L1563.5 393.3L1554.4 414.9L1569 397.2L1560.1 417.8L1574.5 401.3L1565.9 420.9L1580 405.7L1570.7 425.6L1585.4 410.5L1579.1 426.9L1590.9 415.5L1585.3 431L1596.3 420.8L1588.8 437.8L1601.8 426.4L1596.3 441.4L1607.2 432.3L1602 447L1612.6 438.5L1607.7 452.8L1617.9 444.9L1614.5 458.2L1623.3 451.7L1621.2 464L1628.7 458.7L1634.8 453.9L1623.3 451.7L1629.6 446.5L1617.9 444.9L1624.4 439.3L1612.6 438.5L1619 432.5L1607.2 432.3L1614 425.6L1601.8 426.4L1610.3 417.5L1596.3 420.8L1605.5 410.7L1590.9 415.5L1599 405.9L1585.4 410.5L1594.1 399.4L1580 405.7L1589.1 393.1L1574.5 401.3L1583.4 387.9L1569 397.2L1577 383.9L1563.5 393.3L1572.7 376.4L1557.9 389.7L1566 373.2L1552.4 386.5L1560.2 368L1546.8 383.5L1554 363.9L1541.3 380.8L1547.1 361.5L1535.7 378.4L1541 356.4L1530.1 376.2L1533.7 356.3L1524.5 374.4L1527.3 351.3L1518.9 372.9L1520.3 348L1513.2 371.6L1513.1 346L1507.6 370.6L1505.9 346.6L1501.9 370L1498.7 346L1496.2 369.6L1491.4 345.7L1490.5 369.5L1483.9 344.9L1484.8 369.7L1476.2 344.3L1479.1 370.2L1467.6 342.1L1473.3 370.9L1459.4 342L1467.6 372L1450.7 341.9L1461.8 373.4L1444 345.4L1456 375ZM1455.5 387a9.5 9.5 0 1 0 -19 0a9.5 9.5 0 1 0 19 0ZM1468.5 391a8.5 8.5 0 1 0 -17 0a8.5 8.5 0 1 0 17 0ZM1477.5 383a7.5 7.5 0 1 0 -15 0a7.5 7.5 0 1 0 15 0Z"/></svg>