<svg xmlns="http://www.w3.org/2000/svg" viewBox="0 0 500 900"><path d="M106 130 Q113 118.8 120 130 Q127 118.8 134 130" fill="none" stroke="#ffffff" stroke-opacity=".85" stroke-width="2.5" stroke-linecap="round"/><path d="M155 155 Q160 147 165 155 Q170 147 175 155" fill="none" stroke="#ffffff" stroke-opacity=".85" stroke-width="2.5" stroke-linecap="round"/><path d="M318 105 Q324 95.4 330 105 Q336 95.4 342 105" fill="none" stroke="#ffffff" stroke-opacity=".85" stroke-width="2.5" stroke-linecap="round"/><path d="M0 481 Q42 469 84 481 T168 481 T252 481 T336 481 T420 481 T504 481 L500 505 Q450 517 400 505 T300 505 T200 505 T100 505 T0 505 Z" fill="#ffffff" opacity=".8"/><path d="M0 461 Q60 451 120 461 T240 461 T360 461 T480 461 L500 461 L500 467 Q440 475 380 467 T260 467 T140 467 T20 467 L0 467 Z" fill="#ffffff" opacity=".4"/><g transform="rotate(-7 210 714)"><rect x="150" y="682" width="120" height="64" rx="8" fill="#38bdf8"/><rect x="150" y="694" width="120" height="10" fill="#ffffff" opacity=".85"/><rect x="150" y="716" width="120" height="10" fill="#ffffff" opacity=".85"/></g><ellipse cx="164" cy="678" rx="95" ry="16" fill="#a16207" opacity=".28"/><g transform="rotate(-14 118 560)"><rect x="115" y="554" width="6" height="130" rx="3" fill="#8a5a2b"/><path d="M118 560 L22 560 A96 96 0 0 1 34.9 512 Z" fill="#f43f5e"/><path d="M118 560 L34.9 512 A96 96 0 0 1 70 476.9 Z" fill="#fff7ed"/><path d="M118 560 L70 476.9 A96 96 0 0 1 118 464 Z" fill="#fb923c"/><path d="M118 560 L118 464 A96 96 0 0 1 166 476.9 Z" fill="#fff7ed"/><path d="M118 560 L166 476.9 A96 96 0 0 1 201.1 512 Z" fill="#f43f5e"/><path d="M118 560 L201.1 512 A96 96 0 0 1 214 560 Z" fill="#fff7ed"/><path d="M22 560 A96 96 0 0 1 214 560" fill="none" stroke="#ffffff" stroke-opacity=".35" stroke-width="2"/><circle cx="118" cy="464" r="6" fill="#8a5a2b"/></g><ellipse cx="380" cy="764" rx="58" ry="13" fill="#a16207" opacity=".3"/><circle cx="372" cy="700" r="52" fill="#fff7ed"/><path d="M372 648 Q455.2 700 372 752 Q400.6 700 372 648 Z" fill="#f43f5e"/><path d="M372 648 Q400.6 700 372 752 Q343.4 700 372 648 Z" fill="#0ea5e9"/><path d="M372 648 Q343.4 700 372 752 Q288.8 700 372 648 Z" fill="#fbbf24"/><circle cx="372" cy="700" r="52" fill="none" stroke="#0f172a" stroke-opacity=".14" stroke-width="2"/><ellipse cx="353.8" cy="676.6" rx="15.6" ry="9.4" fill="#ffffff" opacity=".7" transform="rotate(-28 353.8 676.6)"/><ellipse cx="250" cy="828.5" rx="38" ry="9" fill="#a16207" opacity=".25"/><path d="M246 776 L254.1 794.8 L274.5 796.7 L259.1 810.3 L263.6 830.3 L246 819.8 L228.4 830.3 L232.9 810.3 L217.5 796.7 L237.9 794.8 Z" fill="#fb923c" stroke="#fb923c" stroke-width="12" stroke-linejoin="round"/><circle cx="238" cy="800" r="2.4" fill="#c2570b"/><circle cx="255" cy="804" r="2.4" fill="#c2570b"/><circle cx="246" cy="816" r="2.4" fill="#c2570b"/></svg>