<svg xmlns="http://www.w3.org/2000/svg" viewBox="0 0 500 900"><defs><linearGradient id="cielo" x1="0" y1="0" x2="0" y2="1"><stop offset="0" stop-color="#c3e9ff"/><stop offset="1" stop-color="#8fd6f8"/></linearGradient><linearGradient id="mar" x1="0" y1="0" x2="0" y2="1"><stop offset="0" stop-color="#0a5c95"/><stop offset=".22" stop-color="#0e7cb4"/><stop offset=".55" stop-color="#1ea6cf"/><stop offset=".85" stop-color="#55cfdd"/><stop offset="1" stop-color="#8ce8e4"/></linearGradient><linearGradient id="arena" x1="0" y1="0" x2="0" y2="1"><stop offset="0" stop-color="#e9d3a0"/><stop offset="1" stop-color="#d3ad72"/></linearGradient></defs><rect width="500" height="420" fill="url(#cielo)"/><circle cx="390" cy="90" r="62" fill="#fff5c4" opacity=".4"/><circle cx="390" cy="90" r="33" fill="#fffadd"/><g fill="#ffffff" opacity="0.92"><circle cx="64.2" cy="95" r="18.7"/><circle cx="88" cy="81.4" r="27.2"/><circle cx="115.2" cy="83.1" r="24.5"/><circle cx="142.4" cy="95" r="17"/><ellipse cx="105" cy="99.1" rx="57.8" ry="17"/></g><g fill="#ffffff" opacity="0.8"><circle cx="271.2" cy="160" r="13.2"/><circle cx="288" cy="150.4" r="19.2"/><circle cx="307.2" cy="151.6" r="17.3"/><circle cx="326.4" cy="160" r="12"/><ellipse cx="300" cy="162.9" rx="40.8" ry="12"/></g><g fill="#ffffff" opacity="0.7"><circle cx="431" cy="60" r="11"/><circle cx="445" cy="52" r="16"/><circle cx="461" cy="53" r="14.4"/><circle cx="477" cy="60" r="10"/><ellipse cx="455" cy="62.4" rx="34" ry="10"/></g><path d="M137 150 Q143.5 139.6 150 150 Q156.5 139.6 163 150" fill="none" stroke="#ffffff" stroke-opacity=".9" stroke-width="2.4" stroke-linecap="round"/><path d="M187 175 Q191.5 167.8 196 175 Q200.5 167.8 205 175" fill="none" stroke="#ffffff" stroke-opacity=".9" stroke-width="2.4" stroke-linecap="round"/><path d="M50 210 Q55 202 60 210 Q65 202 70 210" fill="none" stroke="#ffffff" stroke-opacity=".9" stroke-width="2.4" stroke-linecap="round"/><rect y="418" width="500" height="190" fill="url(#mar)"/><rect x="349.1" y="484" width="17.8" height="1.6" rx="0.8" fill="#ffffff" opacity="0.2"/><rect x="409.5" y="425.5" width="5.6" height="1.6" rx="0.8" fill="#ffffff" opacity="0.3"/><rect x="94.2" y="510.5" width="20" height="1.6" rx="0.8" fill="#ffffff" opacity="0.3"/><rect x="455.6" y="425.8" width="7.8" height="1.6" rx="0.8" fill="#ffffff" opacity="0.2"/><rect x="385.2" y="514.5" width="17.5" height="1.6" rx="0.8" fill="#ffffff" opacity="0.4"/><rect x="10" y="542.6" width="24.7" height="1.6" rx="0.8" fill="#ffffff" opacity="0.4"/><rect x="305.3" y="437.3" width="6.4" height="1.6" rx="0.8" fill="#ffffff" opacity="0.4"/><rect x="261.9" y="492.5" width="5.9" height="1.6" rx="0.8" fill="#ffffff" opacity="0.3"/><rect x="372.7" y="441.7" width="12.8" height="1.6" rx="0.8" fill="#ffffff" opacity="0.4"/><rect x="87.7" y="467.5" width="12.8" height="1.6" rx="0.8" fill="#ffffff" opacity="0.3"/><rect x="89.1" y="543.5" width="24.7" height="1.6" rx="0.8" fill="#ffffff" opacity="0.2"/><rect x="174.4" y="504.6" width="14" height="1.6" rx="0.8" fill="#ffffff" opacity="0.3"/><rect x="219.3" y="442.2" width="11.6" height="1.6" rx="0.8" fill="#ffffff" opacity="0.3"/><rect x="388.5" y="447.5" width="5.2" height="1.6" rx="0.8" fill="#ffffff" opacity="0.3"/><rect x="258.5" y="465.7" width="5.8" height="1.6" rx="0.8" fill="#ffffff" opacity="0.4"/><rect x="49" y="462.2" width="7.8" height="1.6" rx="0.8" fill="#ffffff" opacity="0.2"/><rect x="60.2" y="445.7" width="5.9" height="1.6" rx="0.8" fill="#ffffff" opacity="0.4"/><rect x="151.5" y="490.2" width="11.2" height="1.6" rx="0.8" fill="#ffffff" opacity="0.3"/><rect x="450.2" y="475" width="6.9" height="1.6" rx="0.8" fill="#ffffff" opacity="0.4"/><rect x="444.1" y="470.7" width="12.8" height="1.6" rx="0.8" fill="#ffffff" opacity="0.2"/><rect x="396.2" y="425.2" width="5.3" height="1.6" rx="0.8" fill="#ffffff" opacity="0.4"/><rect x="280.6" y="426.9" width="6.4" height="1.6" rx="0.8" fill="#ffffff" opacity="0.3"/><rect x="444.7" y="424" width="10.1" height="1.6" rx="0.8" fill="#ffffff" opacity="0.4"/><rect x="115.6" y="480" width="6.7" height="1.6" rx="0.8" fill="#ffffff" opacity="0.4"/><rect x="192.8" y="444.3" width="12.5" height="1.6" rx="0.8" fill="#ffffff" opacity="0.3"/><rect x="94.3" y="542.7" width="22.3" height="1.6" rx="0.8" fill="#ffffff" opacity="0.3"/><rect x="231.5" y="429" width="10.4" height="1.6" rx="0.8" fill="#ffffff" opacity="0.2"/><rect x="425.1" y="476.3" width="4.4" height="1.6" rx="0.8" fill="#ffffff" opacity="0.3"/><rect x="234" y="442.6" width="11.8" height="1.6" rx="0.8" fill="#ffffff" opacity="0.3"/><rect x="104.1" y="441.9" width="11.6" height="1.6" rx="0.8" fill="#ffffff" opacity="0.2"/><rect x="493.8" y="494.2" width="14.9" height="1.6" rx="0.8" fill="#ffffff" opacity="0.5"/><rect x="303.2" y="428.3" width="8.3" height="1.6" rx="0.8" fill="#ffffff" opacity="0.2"/><rect x="154.6" y="455.5" width="4.9" height="1.6" rx="0.8" fill="#ffffff" opacity="0.3"/><rect x="456.7" y="426.4" width="4.2" height="1.6" rx="0.8" fill="#ffffff" opacity="0.4"/><rect x="14" y="493.3" width="18.6" height="1.6" rx="0.8" fill="#ffffff" opacity="0.5"/><rect x="260.4" y="474.2" width="15.3" height="1.6" rx="0.8" fill="#ffffff" opacity="0.4"/><rect x="461.6" y="434.8" width="4.9" height="1.6" rx="0.8" fill="#ffffff" opacity="0.4"/><rect x="381" y="469.6" width="8.5" height="1.6" rx="0.8" fill="#ffffff" opacity="0.4"/><rect x="346.4" y="433.8" width="4.4" height="1.6" rx="0.8" fill="#ffffff" opacity="0.3"/><rect x="361.4" y="466.3" width="15.2" height="1.6" rx="0.8" fill="#ffffff" opacity="0.5"/><rect x="36.6" y="459.9" width="10.7" height="1.6" rx="0.8" fill="#ffffff" opacity="0.4"/><rect x="27.6" y="497" width="16.8" height="1.6" rx="0.8" fill="#ffffff" opacity="0.2"/><rect x="486.5" y="513.4" width="14.1" height="1.6" rx="0.8" fill="#ffffff" opacity="0.3"/><rect x="70.1" y="485.5" width="13.7" height="1.6" rx="0.8" fill="#ffffff" opacity="0.5"/><rect x="349.2" y="531.7" width="18.7" height="1.6" rx="0.8" fill="#ffffff" opacity="0.5"/><rect x="169.3" y="449.8" width="14.4" height="1.6" rx="0.8" fill="#ffffff" opacity="0.2"/><g transform="translate(88 402)"><path d="M-20 14 L20 14 L12 22 L-14 22 Z" fill="#27435e"/><path d="M-2 12 L-2 -26 L-22 12 Z" fill="#ffffff"/><path d="M3 12 L3 -20 L16 12 Z" fill="#f1f5f9"/><rect x="-2.5" y="-26" width="2" height="38" fill="#64748b"/></g><path d="M-10 500 q13 -5 26 0 t26 0 q13 -5 26 0 t26 0 q13 -5 26 0 t26 0 q13 -5 26 0 t26 0 q13 -5 26 0 t26 0 q13 -5 26 0 t26 0 q13 -5 26 0 t26 0 q13 -5 26 0 t26 0 q13 -5 26 0 t26 0 q13 -5 26 0 t26 0 " fill="none" stroke="#eafcff" stroke-opacity="0.35" stroke-width="2"/><path d="M-10 535 q13 -6 26 0 t26 0 q13 -6 26 0 t26 0 q13 -6 26 0 t26 0 q13 -6 26 0 t26 0 q13 -6 26 0 t26 0 q13 -6 26 0 t26 0 q13 -6 26 0 t26 0 q13 -6 26 0 t26 0 q13 -6 26 0 t26 0 q13 -6 26 0 t26 0 " fill="none" stroke="#eafcff" stroke-opacity="0.5" stroke-width="2.5"/><path d="M-10 568 q13 -7 26 0 t26 0 q13 -7 26 0 t26 0 q13 -7 26 0 t26 0 q13 -7 26 0 t26 0 q13 -7 26 0 t26 0 q13 -7 26 0 t26 0 q13 -7 26 0 t26 0 q13 -7 26 0 t26 0 q13 -7 26 0 t26 0 q13 -7 26 0 t26 0 " fill="none" stroke="#eafcff" stroke-opacity="0.6" stroke-width="3"/><rect y="600" width="500" height="300" fill="url(#arena)"/><path d="M0 596 Q125 580 250 594 T500 590 L500 648 Q300 664 140 652 T0 648 Z" fill="#c8ab77"/><path d="M0 588 Q125 572 250 586 T500 582 L500 606 Q420 618 340 608 Q300 622 240 610 Q180 626 120 612 Q60 620 0 610 Z" fill="#ffffff" opacity=".92"/><path d="M0 620 Q140 634 260 624 T500 620 L500 628 Q320 642 180 632 T0 630 Z" fill="#ffffff" opacity=".4"/><circle cx="174" cy="832.5" r="1.6" fill="#a9803f" opacity=".3"/><circle cx="396.7" cy="703.6" r="1.5" fill="#a9803f" opacity=".3"/><circle cx="112.9" cy="782.6" r="1.4" fill="#a9803f" opacity=".3"/><circle cx="488" cy="711.7" r="1.1" fill="#a9803f" opacity=".3"/><circle cx="155.7" cy="728.5" r="0.9" fill="#a9803f" opacity=".3"/><circle cx="202.4" cy="721.8" r="1" fill="#a9803f" opacity=".3"/><circle cx="413.8" cy="685.4" r="1.2" fill="#a9803f" opacity=".3"/><circle cx="24.2" cy="673.2" r="1.6" fill="#a9803f" opacity=".3"/><circle cx="389.8" cy="875.7" r="0.9" fill="#a9803f" opacity=".3"/><circle cx="386.3" cy="729.1" r="1.5" fill="#a9803f" opacity=".3"/><circle cx="282.7" cy="760.5" r="1.4" fill="#a9803f" opacity=".3"/><circle cx="131.3" cy="784.1" r="1.6" fill="#a9803f" opacity=".3"/><circle cx="321.2" cy="835.1" r="1.7" fill="#a9803f" opacity=".3"/><circle cx="64.9" cy="839.6" r="1.7" fill="#a9803f" opacity=".3"/><circle cx="269.6" cy="738.1" r="1.4" fill="#a9803f" opacity=".3"/><circle cx="58.3" cy="835.7" r="1.5" fill="#a9803f" opacity=".3"/><circle cx="16.1" cy="783.6" r="1.2" fill="#a9803f" opacity=".3"/><circle cx="363.9" cy="758.7" r="0.9" fill="#a9803f" opacity=".3"/><circle cx="14.9" cy="725.3" r="0.9" fill="#a9803f" opacity=".3"/><circle cx="91.8" cy="801.9" r="1.6" fill="#a9803f" opacity=".3"/><circle cx="90.8" cy="790" r="1.2" fill="#a9803f" opacity=".3"/><circle cx="321.6" cy="882.3" r="1.1" fill="#a9803f" opacity=".3"/><circle cx="292.5" cy="774.2" r="0.9" fill="#a9803f" opacity=".3"/><circle cx="232.8" cy="884.7" r="1.5" fill="#a9803f" opacity=".3"/><circle cx="102.5" cy="737.4" r="1" fill="#a9803f" opacity=".3"/><circle cx="205.9" cy="766.9" r="0.9" fill="#a9803f" opacity=".3"/><circle cx="216" cy="888.5" r="1.2" fill="#a9803f" opacity=".3"/><circle cx="318.4" cy="886.6" r="1.1" fill="#a9803f" opacity=".3"/><circle cx="171.8" cy="761.1" r="0.9" fill="#a9803f" opacity=".3"/><circle cx="38.5" cy="692.4" r="1.4" fill="#a9803f" opacity=".3"/><circle cx="388.1" cy="839.2" r="0.9" fill="#a9803f" opacity=".3"/><circle cx="143.2" cy="871.1" r="1.4" fill="#a9803f" opacity=".3"/><circle cx="195.6" cy="833" r="1" fill="#a9803f" opacity=".3"/><circle cx="50.1" cy="870.5" r="1.6" fill="#a9803f" opacity=".3"/><circle cx="247.1" cy="757.2" r="1.6" fill="#a9803f" opacity=".3"/><circle cx="278.2" cy="884.8" r="0.8" fill="#a9803f" opacity=".3"/><circle cx="323" cy="719" r="1.4" fill="#a9803f" opacity=".3"/><circle cx="456.7" cy="664.9" r="1.4" fill="#a9803f" opacity=".3"/><circle cx="405.1" cy="772.2" r="0.9" fill="#a9803f" opacity=".3"/><circle cx="247.6" cy="821.2" r="1.3" fill="#a9803f" opacity=".3"/><circle cx="281.5" cy="735.1" r="1.1" fill="#a9803f" opacity=".3"/><circle cx="124.2" cy="828.9" r="0.8" fill="#a9803f" opacity=".3"/><circle cx="297.7" cy="814.1" r="1.2" fill="#a9803f" opacity=".3"/><circle cx="211.7" cy="840.5" r="1.3" fill="#a9803f" opacity=".3"/><circle cx="32.2" cy="827.4" r="1.7" fill="#a9803f" opacity=".3"/><circle cx="487.1" cy="859.8" r="0.8" fill="#a9803f" opacity=".3"/><circle cx="280.5" cy="703.6" r="1.5" fill="#a9803f" opacity=".3"/><circle cx="66.9" cy="776.3" r="1.6" fill="#a9803f" opacity=".3"/><circle cx="99" cy="835.6" r="1.7" fill="#a9803f" opacity=".3"/><circle cx="219.5" cy="773.8" r="0.9" fill="#a9803f" opacity=".3"/><circle cx="453.7" cy="697" r="1.5" fill="#a9803f" opacity=".3"/><circle cx="358.1" cy="722.5" r="1.7" fill="#a9803f" opacity=".3"/><circle cx="460.2" cy="804.9" r="1.2" fill="#a9803f" opacity=".3"/><circle cx="243.7" cy="762.4" r="1.4" fill="#a9803f" opacity=".3"/><circle cx="489.6" cy="682.2" r="1.1" fill="#a9803f" opacity=".3"/><circle cx="265.4" cy="804.7" r="1.4" fill="#a9803f" opacity=".3"/><circle cx="456.2" cy="853.6" r="1.1" fill="#a9803f" opacity=".3"/><circle cx="205.4" cy="790.4" r="1.6" fill="#a9803f" opacity=".3"/><circle cx="112.3" cy="693.7" r="1.1" fill="#a9803f" opacity=".3"/><circle cx="353" cy="807.5" r="1.2" fill="#a9803f" opacity=".3"/><g transform="rotate(-7 220 786)"><rect x="160" y="756" width="120" height="62" rx="8" fill="#38bdf8"/><rect x="160" y="768" width="120" height="10" fill="#ffffff" opacity=".85"/><rect x="160" y="789" width="120" height="10" fill="#ffffff" opacity=".85"/></g><ellipse cx="168" cy="786" rx="98" ry="15" fill="#8a6a33" opacity=".3"/><g transform="rotate(-14 118 660)"><rect x="115" y="656" width="6" height="134" rx="3" fill="#7c5326"/><path d="M118 660 L22 660 A96 96 0 0 1 34.9 612 Z" fill="#f43f5e"/><path d="M118 660 L34.9 612 A96 96 0 0 1 70 576.9 Z" fill="#fff7ed"/><path d="M118 660 L70 576.9 A96 96 0 0 1 118 564 Z" fill="#fb923c"/><path d="M118 660 L118 564 A96 96 0 0 1 166 576.9 Z" fill="#fff7ed"/><path d="M118 660 L166 576.9 A96 96 0 0 1 201.1 612 Z" fill="#f43f5e"/><path d="M118 660 L201.1 612 A96 96 0 0 1 214 660 Z" fill="#fff7ed"/><path d="M118 660 L22 660" stroke="#00000022" stroke-width="1.4"/><path d="M118 660 L34.9 612" stroke="#00000022" stroke-width="1.4"/><path d="M118 660 L70 576.9" stroke="#00000022" stroke-width="1.4"/><path d="M118 660 L118 564" stroke="#00000022" stroke-width="1.4"/><path d="M118 660 L166 576.9" stroke="#00000022" stroke-width="1.4"/><path d="M118 660 L201.1 612" stroke="#00000022" stroke-width="1.4"/><path d="M22 660 A96 96 0 0 1 214 660" fill="none" stroke="#ffffff" stroke-opacity=".4" stroke-width="2.5"/><circle cx="118" cy="564" r="6" fill="#7c5326"/></g><ellipse cx="380" cy="822" rx="56" ry="12" fill="#8a6a33" opacity=".32"/><circle cx="372" cy="762" r="50" fill="#fff7ed"/><path d="M372 712 Q452 762 372 812 Q399.5 762 372 712 Z" fill="#f43f5e"/><path d="M372 712 Q399.5 762 372 812 Q344.5 762 372 712 Z" fill="#0ea5e9"/><path d="M372 712 Q344.5 762 372 812 Q292 762 372 712 Z" fill="#fbbf24"/><circle cx="372" cy="762" r="50" fill="none" stroke="#0f172a" stroke-opacity=".15" stroke-width="2"/><ellipse cx="354.5" cy="739.5" rx="15" ry="9" fill="#ffffff" opacity=".75" transform="rotate(-28 354.5 739.5)"/><path d="M258 836 L265 852.3 L282.7 854 L269.4 865.7 L273.3 883 L258 874 L242.7 883 L246.6 865.7 L233.3 854 L251 852.3 Z" fill="#fb923c" stroke="#fb923c" stroke-width="11" stroke-linejoin="round"/><circle cx="251" cy="857" r="2.2" fill="#c2570b"/><circle cx="266" cy="861" r="2.2" fill="#c2570b"/><circle cx="258" cy="871" r="2.2" fill="#c2570b"/><path d="M64 848 a11 11 0 0 1 22 0 Z" fill="#fde8d0" stroke="#d9b28c" stroke-width="1.5"/><path d="M75 848 L69 838 M75 848 L75 836 M75 848 L81 838" stroke="#d9b28c" stroke-width="1.2"/><circle cx="452" cy="874" r="7" fill="#f3d9bd" stroke="#d9b28c" stroke-width="1.4"/></svg>