<svg xmlns="http://www.w3.org/2000/svg" viewBox="0 0 500 900"><g transform="rotate(-31.5 70 150)"><path d="M70 137 C79 144 79 157 70 163 C61 157 61 144 70 137 Z" fill="#1c1917"/><ellipse cx="67" cy="145" rx="2.6" ry="3.6" fill="#ffffff" opacity=".55"/></g><g transform="rotate(16.2 300 95)"><path d="M300 82 C309 89 309 102 300 108 C291 102 291 89 300 82 Z" fill="#1c1917"/><ellipse cx="297" cy="90" rx="2.6" ry="3.6" fill="#ffffff" opacity=".55"/></g><g transform="rotate(12.2 430 210)"><path d="M430 197 C439 204 439 217 430 223 C421 217 421 204 430 197 Z" fill="#1c1917"/><ellipse cx="427" cy="205" rx="2.6" ry="3.6" fill="#ffffff" opacity=".55"/></g><g transform="rotate(35.2 150 330)"><path d="M150 317 C159 324 159 337 150 343 C141 337 141 324 150 317 Z" fill="#1c1917"/><ellipse cx="147" cy="325" rx="2.6" ry="3.6" fill="#ffffff" opacity=".55"/></g><g transform="rotate(-18.3 390 420)"><path d="M390 407 C399 414 399 427 390 433 C381 427 381 414 390 407 Z" fill="#1c1917"/><ellipse cx="387" cy="415" rx="2.6" ry="3.6" fill="#ffffff" opacity=".55"/></g><g transform="rotate(-19.5 60 500)"><path d="M60 487 C69 494 69 507 60 513 C51 507 51 494 60 487 Z" fill="#1c1917"/><ellipse cx="57" cy="495" rx="2.6" ry="3.6" fill="#ffffff" opacity=".55"/></g><g transform="rotate(18.7 250 560)"><path d="M250 547 C259 554 259 567 250 573 C241 567 241 554 250 547 Z" fill="#1c1917"/><ellipse cx="247" cy="555" rx="2.6" ry="3.6" fill="#ffffff" opacity=".55"/></g><g transform="rotate(12.7 440 640)"><path d="M440 627 C449 634 449 647 440 653 C431 647 431 634 440 627 Z" fill="#1c1917"/><ellipse cx="437" cy="635" rx="2.6" ry="3.6" fill="#ffffff" opacity=".55"/></g><g transform="rotate(-15.8 140 680)"><path d="M140 667 C149 674 149 687 140 693 C131 687 131 674 140 667 Z" fill="#1c1917"/><ellipse cx="137" cy="675" rx="2.6" ry="3.6" fill="#ffffff" opacity=".55"/></g><g transform="rotate(14.7 330 250)"><path d="M330 237 C339 244 339 257 330 263 C321 257 321 244 330 237 Z" fill="#1c1917"/><ellipse cx="327" cy="245" rx="2.6" ry="3.6" fill="#ffffff" opacity=".55"/></g><path d="M0 782 Q250 742 500 782 L500 900 L0 900 Z" fill="#fdfcf5"/><path d="M0 806 Q250 766 500 806 L500 900 L0 900 Z" fill="#bbf7d0"/><path d="M0 824 Q250 784 500 824 L500 900 L0 900 Z" fill="#16a34a"/><path d="M20 900 Q26 860.9 22 836.9" stroke="#0c7a35" stroke-width="15" fill="none" stroke-linecap="round"/><path d="M92 900 Q98 852 94 828" stroke="#0c7a35" stroke-width="15" fill="none" stroke-linecap="round"/><path d="M164 900 Q170 846.4 166 822.4" stroke="#0c7a35" stroke-width="15" fill="none" stroke-linecap="round"/><path d="M236 900 Q242 844.1 238 820.1" stroke="#0c7a35" stroke-width="15" fill="none" stroke-linecap="round"/><path d="M308 900 Q314 845.1 310 821.1" stroke="#0c7a35" stroke-width="15" fill="none" stroke-linecap="round"/><path d="M380 900 Q386 849.4 382 825.4" stroke="#0c7a35" stroke-width="15" fill="none" stroke-linecap="round"/><path d="M452 900 Q458 857.1 454 833.1" stroke="#0c7a35" stroke-width="15" fill="none" stroke-linecap="round"/></svg>